<?xml version="1.0" standalone="no"?>
<!DOCTYPE svg PUBLIC "-//W3C//DTD SVG 1.1//EN" "http://www.w3.org/Graphics/SVG/1.1/DTD/svg11.dtd" >
<svg xmlns="http://www.w3.org/2000/svg" xmlns:xlink="http://www.w3.org/1999/xlink" version="1.1">
<metadata>
Created by FontForge 20170731 at Tue Jun  7 16:39:40 2022
 By Aleksey,,,
Copyright (c) 2017 Monotype Imaging Inc. All rights reserved.
</metadata>
<defs>
<font id="AlbertusNova" horiz-adv-x="0" >
  <font-face 
    font-family="Albertus Nova"
    font-weight="400"
    font-stretch="normal"
    units-per-em="2048"
    panose-1="2 14 5 3 4 3 4 2 3 4"
    ascent="1638"
    descent="-410"
    x-height="1165"
    cap-height="1677"
    bbox="-1577 -610 2744 2245"
    underline-thickness="102"
    underline-position="-409"
    unicode-range="U+000D-FEFF"
  />
<missing-glyph horiz-adv-x="1269" 
d="M1198 0h-1126v1677h1126v-1677zM195 1554v-1431h880v1431h-880zM434 760q0 47 18 66t80 38q197 59 197 234q0 92 -60.5 151.5t-154.5 59.5q-107 0 -197 -72l-4 2l15 221q93 37 207 37q189 0 310.5 -109t121.5 -280q0 -141 -79 -242t-222 -145q-85 -26 -124.5 -54
t-70.5 -83h-18q-19 97 -19 176zM328 332q0 69 42.5 111t110.5 42q69 0 112.5 -42t43.5 -111t-43.5 -112.5t-112.5 -43.5q-68 0 -110.5 43.5t-42.5 112.5z" />
    <glyph glyph-name="ff" unicode="ff" horiz-adv-x="1363" 
d="M1481 1657l-31 -240l-6 -2q-116 113 -213 113q-139 0 -139 -189v-174h268v-153h-268v-695q0 -175 55 -317h-344q55 142 55 317v695h-438v-695q0 -175 55 -317h-344q55 142 55 317v695h-149v8l149 156v120q0 182 106.5 287t282.5 105q116 0 234 -31l-31 -240l-6 -2
q-116 113 -213 113q-139 0 -139 -189v-174h438v131q0 182 106.5 287t282.5 105q116 0 234 -31z" />
    <glyph glyph-name=".notdef" horiz-adv-x="1269" 
d="M1198 0h-1126v1677h1126v-1677zM195 1554v-1431h880v1431h-880zM434 760q0 47 18 66t80 38q197 59 197 234q0 92 -60.5 151.5t-154.5 59.5q-107 0 -197 -72l-4 2l15 221q93 37 207 37q189 0 310.5 -109t121.5 -280q0 -141 -79 -242t-222 -145q-85 -26 -124.5 -54
t-70.5 -83h-18q-19 97 -19 176zM328 332q0 69 42.5 111t110.5 42q69 0 112.5 -42t43.5 -111t-43.5 -112.5t-112.5 -43.5q-68 0 -110.5 43.5t-42.5 112.5z" />
    <glyph glyph-name=".null" 
 />
    <glyph glyph-name="nonmarkingreturn" horiz-adv-x="682" 
 />
    <glyph glyph-name="NULL" 
 />
    <glyph glyph-name="NULL" 
 />
    <glyph glyph-name="CR.001" unicode="&#xd;" horiz-adv-x="491" 
 />
    <glyph glyph-name="space" unicode=" " horiz-adv-x="491" 
 />
    <glyph glyph-name="exclam" unicode="!" horiz-adv-x="608" 
d="M422 1153v-350q0 -91 -21 -156q-22 -67 -84 -180h-24q-61 108 -84 178q-21 65 -21 158v350q0 222 -18 330q-15 106 -72 194h412q-57 -88 -72 -194q-16 -115 -16 -330zM487 162q0 -75 -53.5 -128.5t-128.5 -53.5t-128.5 53.5t-53.5 128.5t53.5 128.5t128.5 53.5
q78 0 130 -52t52 -130z" />
    <glyph glyph-name="quotedbl" unicode="&#x22;" horiz-adv-x="929" 
d="M362 1098h-212q-9 317 -50 579h310q-39 -254 -48 -579zM782 1098h-213q-9 325 -49 579h309q-38 -247 -47 -579z" />
    <glyph glyph-name="numbersign" unicode="#" horiz-adv-x="1597" 
d="M1516 1231l-64 -211h-242l-108 -363h237l-63 -211h-240l-135 -446h-219l135 446h-274l-135 -446h-220l136 446h-244l63 211h246l109 363h-242l63 211h244l135 446h220l-136 -446h275l135 446h219l-135 -446h240zM608 657h275l108 363h-274z" />
    <glyph glyph-name="dollar" unicode="$" horiz-adv-x="1224" 
d="M696 -8v-266h-170v264q-173 3 -336 39l-10 342h6q120 -164 340 -185v523q-138 57 -211 104q-194 128 -194 352q0 181 110 297q111 120 295 129v92h170v-96l105 -8q73 -8 104 -8q38 0 66 4l10 -320h-8q-74 64 -137.5 97t-139.5 43v-475q58 -24 100 -43.5t88 -45.5
t77.5 -52t62 -61.5t48.5 -75.5t29.5 -91t12.5 -111q0 -183 -114.5 -303t-303.5 -145zM526 989v408q-91 -12 -136.5 -63.5t-45.5 -133.5q0 -74 40.5 -120t141.5 -91zM899 397q0 82 -50 138t-153 102v-449q203 34 203 209z" />
    <glyph glyph-name="percent" unicode="%" horiz-adv-x="1814" 
d="M805 1284q0 -190 -106 -303t-267 -113q-159 0 -267 114t-108 306q0 164 104.5 282t264.5 118q165 0 272 -114.5t107 -289.5zM1364 1462l-682 -1226q-74 -134 -96 -236h-289q93 107 154 215l682 1227q75 135 96 235h289q-93 -107 -154 -215zM283 1284q0 -101 41 -166
t106 -65q71 0 110.5 64t39.5 169q0 100 -40 159.5t-106 59.5q-69 0 -110 -61t-41 -160zM1757 403q0 -190 -106 -302.5t-267 -112.5q-159 0 -266.5 114t-107.5 306q0 164 104 281.5t264 117.5q165 0 272 -114.5t107 -289.5zM1235 403q0 -101 41 -166t106 -65q71 0 110.5 64.5
t39.5 169.5q0 100 -40 159.5t-106 59.5q-68 0 -109.5 -61.5t-41.5 -160.5z" />
    <glyph glyph-name="ampersand" unicode="&#x26;" horiz-adv-x="1933" 
d="M1929 145v-6l-260 -153q-88 19 -200 94t-222 190q-111 -138 -263.5 -211t-334.5 -73q-271 0 -421 117.5t-150 318.5q0 126 62 216t202 161q-143 91 -143 282q0 149 111.5 255t273.5 106q154 0 258 -90q104 -88 104 -250q0 -152 -127 -250q204 -77 385 -225q86 204 86 473
q0 83 -2 106q-169 -4 -237 -30v237h747l-2 -254q-115 47 -297 47l2 -104q0 -364 -131 -635q298 -257 559 -322zM418 1081q0 -62 39.5 -101.5t132.5 -70.5q135 61 135 178q0 62 -41.5 101t-108.5 39q-70 0 -113.5 -42t-43.5 -104zM1081 420q-187 181 -542 289
q-106 -51 -153.5 -112.5t-47.5 -147.5q0 -101 85.5 -164.5t231.5 -63.5q257 0 426 199z" />
    <glyph glyph-name="quotesingle" unicode="'" horiz-adv-x="509" 
d="M362 1098h-212q-9 317 -50 579h310q-39 -254 -48 -579z" />
    <glyph glyph-name="parenleft" unicode="(" horiz-adv-x="827" 
d="M817 1671v-18q-64 -20 -112 -46.5t-87.5 -65t-67 -94t-47.5 -126.5t-32 -169.5t-18 -216t-7 -273.5q2 -182 9.5 -313t25 -238t44 -177t68.5 -123.5t95.5 -85.5t128.5 -55v-18q-80 -23 -170 -23q-177 4 -276.5 99t-146.5 316t-50 618q2 299 27 492.5t82.5 314.5t144 171.5
t219.5 53.5q89 0 170 -23z" />
    <glyph glyph-name="parenright" unicode=")" horiz-adv-x="827" 
d="M653 662q-3 -397 -50 -618t-146.5 -316t-276.5 -99q-90 0 -170 23v18q75 23 128.5 55t95.5 85.5t68.5 123.5t44 177t25 238t9.5 313q-1 156 -7 273.5t-18 216t-32 169.5t-47.5 126.5t-67 94t-87.5 65t-112 46.5v18q81 23 170 23q133 -3 219.5 -53.5t144 -171.5
t82.5 -314.5t27 -492.5z" />
    <glyph glyph-name="asterisk" unicode="*" horiz-adv-x="1130" 
d="M711 1425q176 3 358 48l8 -15q-133 -139 -221 -282q89 -145 221 -283l-8 -14q-178 44 -358 47q-96 -184 -138 -334h-16q-43 154 -137 334q-181 -3 -359 -47l-8 14q132 138 221 283q-88 143 -221 282l8 15q182 -45 359 -48q88 165 137 334h16q48 -165 138 -334zM410 1176
q0 -63 46 -109.5t109 -46.5t109.5 46.5t46.5 109.5t-46.5 109t-109.5 46t-109 -46t-46 -109z" />
    <glyph glyph-name="plus" unicode="+" horiz-adv-x="1208" 
d="M1126 801v-246q-109 20 -286 20h-133v-133q0 -177 20 -286h-246q21 114 21 286v133h-133q-178 0 -287 -20v246q114 -21 287 -21h133v133q0 173 -21 287h246q-20 -109 -20 -287v-133h133q172 0 286 21z" />
    <glyph glyph-name="comma" unicode="," horiz-adv-x="565" 
d="M131 -367h-158q170 348 170 568q0 71 -22 151h350q-26 -168 -109 -334q-74 -151 -231 -385z" />
    <glyph glyph-name="hyphen" unicode="-" horiz-adv-x="688" 
d="M618 807v-283q-132 27 -274 27t-274 -27v283q150 -27 274 -27t274 27z" />
    <glyph glyph-name="period" unicode="." horiz-adv-x="528" 
d="M446 164q0 -82 -50 -133t-132 -51t-133 51t-51 133t51 132t133 50t132 -50t50 -132z" />
    <glyph glyph-name="slash" unicode="/" horiz-adv-x="851" 
d="M752 1425l-525 -1433q-61 -168 -67 -275h-266q73 115 124 252l525 1434q61 169 67 274h267q-75 -119 -125 -252z" />
    <glyph glyph-name="zero" unicode="0" horiz-adv-x="1425" 
d="M1343 848q0 -198 -49 -363t-134 -274.5t-200 -170t-247 -60.5q-129 0 -243.5 59.5t-201 169t-136.5 276.5t-50 369q-1 166 44 321t125.5 271.5t198 185.5t252.5 66q184 3 332 -108t229.5 -306.5t79.5 -435.5zM346 850q0 -189 44 -340t127 -238.5t190 -87.5
q117 0 202.5 90t126.5 239t41 339q0 292 -101 466.5t-265 174.5q-167 0 -266 -177t-99 -466z" />
    <glyph glyph-name="one" unicode="1" horiz-adv-x="815" 
d="M301 397v977h-188v10l417 314h7v-1403q0 -97 10.5 -162.5t36.5 -132.5h-357q41 92 57.5 180.5t16.5 216.5z" />
    <glyph glyph-name="two" unicode="2" horiz-adv-x="1228" 
d="M1155 326h6l-28 -326h-1102v10q136 171 338 451q232 321 307 428q89 129 131 219q33 73 33 149q0 98 -70 164t-178 66q-117 0 -189.5 -76.5t-72.5 -191.5q0 -81 24 -146l-6 -4l-213 135q-2 8 -2 37q0 122 60 226.5t168.5 167.5t240.5 63q213 0 341 -123.5t128 -312.5
q0 -111 -49 -218q-48 -111 -184 -296l-412 -564h262q159 0 264 31q100 34 203 111z" />
    <glyph glyph-name="three" unicode="3" horiz-adv-x="1175" 
d="M1090 492q0 -146 -74.5 -263.5t-206 -183t-293.5 -65.5q-316 0 -502 174l146 280h6q70 -260 362 -260q136 0 221 82t85 217q0 138 -103 228t-280 90q-66 0 -129 -17l-3 6l394 709q-102 4 -140 4q-196 0 -301 -31q-98 -30 -174 -112h-6l6 327h981l-403 -725
q184 -36 299 -166t115 -294z" />
    <glyph glyph-name="four" unicode="4" horiz-adv-x="1259" 
d="M952 610h-4v-129q0 -151 15 -260.5t51 -220.5h-363q36 111 51 220.5t15 260.5v129h-697v168q144 144 261 307l299 408q94 127 127 184h241v-889h4q187 0 287 43v-264q-100 43 -287 43zM717 1395l-443 -607h443v607z" />
    <glyph glyph-name="five" unicode="5" horiz-adv-x="1146" 
d="M1030 516q0 -107 -41 -204.5t-113 -171t-178.5 -117t-230.5 -43.5q-266 0 -449 151l132 252h6q109 -190 313 -190q124 0 212.5 89.5t88.5 221.5q0 139 -94 227t-244 88q-130 0 -231 -63v655q0 176 -33 266h876l-120 -256q-63 38 -134 55t-174 17h-186v-481q14 2 64 2
q152 0 274.5 -62.5t192 -176.5t69.5 -259z" />
    <glyph glyph-name="six" unicode="6" horiz-adv-x="1189" 
d="M1122 496q3 -138 -63.5 -257t-190 -190.5t-274.5 -68.5q-153 0 -274 70.5t-186.5 188t-65.5 257.5q0 94 32 190t113 236l272 475q95 170 95 258q0 18 -2 22h395v-6q-69 -63 -128.5 -141.5t-131.5 -202.5l-201 -342q31 8 84 8q229 0 377.5 -141t148.5 -356zM891 496
q0 131 -82.5 214t-212.5 83q-131 0 -214 -82t-83 -215q0 -135 83 -220.5t214 -85.5q130 0 212.5 85.5t82.5 220.5z" />
    <glyph glyph-name="seven" unicode="7" horiz-adv-x="1120" 
d="M1112 1677l-522 -1300q-76 -198 -76 -299q0 -48 6 -78h-391v6q109 146 176 313l488 1170h-347q-133 0 -221.5 -26.5t-171.5 -88.5v303h1059z" />
    <glyph glyph-name="eight" unicode="8" horiz-adv-x="1236" 
d="M1143 483q0 -214 -147.5 -358.5t-377.5 -144.5t-377 142.5t-147 366.5q0 122 69 230.5t183 169.5q-203 135 -203 371q0 86 33 165t92.5 140t150 97t197.5 36t198 -37.5t150.5 -100t92.5 -143t33 -166.5q0 -112 -59 -211.5t-148 -150.5q113 -46 186 -162q74 -118 74 -244z
M369 1237q0 -104 71 -178t176 -74q104 0 175 74q73 73 73 178t-73 178q-71 74 -175 74q-105 0 -176 -74t-71 -178zM907 483q0 121 -85 207t-204 86t-203.5 -86t-84.5 -207t84.5 -207t203.5 -86t204 86t85 207z" />
    <glyph glyph-name="nine" unicode="9" horiz-adv-x="1189" 
d="M1122 1188q0 -105 -32 -193q-30 -94 -113 -239l-272 -475q-91 -160 -91 -252q0 -23 2 -29h-385v6q111 114 246 344l201 342q-31 -8 -84 -8q-228 0 -377 143.5t-149 360.5q0 137 65.5 253t187.5 186.5t275 70.5q115 0 214 -41.5t167 -111t106.5 -162.5t38.5 -195z
M891 1188q0 130 -84 214.5t-213 84.5t-212 -84t-83 -215q0 -132 82 -217q83 -86 213 -86t213 86q84 87 84 217z" />
    <glyph glyph-name="colon" unicode=":" horiz-adv-x="528" 
d="M446 164q0 -82 -50 -133t-132 -51t-133 51t-51 133t51 132t133 50t132 -50t50 -132zM446 1001q0 -82 -50 -133t-132 -51t-133 51t-51 133t51 132.5t133 50.5t132 -50.5t50 -132.5z" />
    <glyph glyph-name="semicolon" unicode=";" horiz-adv-x="575" 
d="M481 1001q0 -82 -50 -133t-132 -51t-133 51t-51 133t51 132.5t133 50.5t132 -50.5t50 -132.5zM131 -367h-158q170 348 170 568q0 71 -22 151h350q-26 -168 -109 -334q-74 -151 -231 -385z" />
    <glyph glyph-name="less" unicode="&#x3c;" horiz-adv-x="1208" 
d="M1126 1219v-250l-833 -291l833 -291v-250q-121 75 -260 125l-784 285v262l784 285q139 50 260 125z" />
    <glyph glyph-name="equal" unicode="=" horiz-adv-x="1208" 
d="M1126 1026v-246q-114 21 -286 21h-471q-173 0 -287 -21v246q109 -20 287 -20h471q177 0 286 20zM1126 575v-245q-109 20 -286 20h-471q-178 0 -287 -20v245q109 -20 287 -20h471q177 0 286 20z" />
    <glyph glyph-name="greater" unicode="&#x3e;" horiz-adv-x="1208" 
d="M342 1094l784 -285v-262l-784 -285q-139 -50 -260 -125v250l833 291l-833 291v250q121 -75 260 -125z" />
    <glyph glyph-name="question" unicode="?" horiz-adv-x="980" 
d="M266 690q0 55 24 79.5t103 47.5q142 41 217.5 131t75.5 215q0 139 -89.5 232.5t-217.5 93.5q-142 0 -270 -96l-7 2l17 252q127 47 270 47q247 0 403 -144t156 -372q0 -190 -102.5 -324.5t-292.5 -196.5q-114 -40 -160 -75q-48 -37 -90 -109h-27q-10 140 -10 217zM131 162
q0 75 53.5 128.5t128.5 53.5q78 0 130.5 -52t52.5 -130q0 -75 -54 -128.5t-129 -53.5t-128.5 53.5t-53.5 128.5z" />
    <glyph glyph-name="at" unicode="@" horiz-adv-x="2113" 
d="M1085 172l21 131q-102 -58 -207 -143q-143 8 -221 95.5t-78 244.5q-2 129 52 253.5t146 219t224 151.5t276 54q124 0 201 -15q-55 -128 -102 -415q-48 -295 -51 -431q191 9 307 144t116 356q0 284 -176 446t-481 162q-166 2 -309 -57.5t-243 -166.5t-156 -260t-54 -331
q0 -341 195 -539t532 -198q200 0 363 55l2 -6l-121 -184q-128 -45 -315 -45q-416 0 -650.5 238.5t-234.5 650.5q-3 177 45 339.5t140 291t216.5 223t282 144t330.5 46.5q254 0 448.5 -98.5t302 -279t107.5 -417.5q0 -302 -196.5 -486.5t-530.5 -184.5q-90 0 -181 12z
M1116 371l94 630q-27 9 -59 9q-130 0 -219.5 -134t-89.5 -331q0 -98 40 -149.5t113 -51.5q57 0 121 27z" />
    <glyph glyph-name="A" unicode="A" horiz-adv-x="1656" 
d="M1712 6v-6h-407q6 21 6 55q0 110 -84 293l-80 184h-629l-90 -190q-86 -180 -86 -287q0 -19 4 -55h-401v6q111 135 239 387l668 1325h6l623 -1331q54 -120 105 -203.5t126 -177.5zM844 1221l-234 -496h451z" />
    <glyph glyph-name="B" unicode="B" horiz-adv-x="1208" 
d="M1122 463q0 -133 -80.5 -239.5t-216 -165t-297.5 -58.5h-401q36 111 51 220.5t15 260.5v715q0 151 -15 260.5t-51 220.5h397q229 0 372.5 -119t143.5 -303q0 -104 -60 -196t-169 -160q162 -95 236.5 -198t74.5 -238zM436 1536v-633q161 30 256.5 125t95.5 215
q0 126 -99.5 209.5t-252.5 83.5zM864 463q0 144 -120.5 260.5t-307.5 146.5v-729q199 0 313.5 90t114.5 232z" />
    <glyph glyph-name="C" unicode="C" horiz-adv-x="1546" 
d="M96 811q-3 195 72.5 363t205 283t304.5 179t369 62q205 0 393 -58v-258l-6 -2q-91 56 -208 87.5t-233 31.5q-129 2 -246 -48.5t-201 -138.5t-132.5 -212t-46.5 -262q-2 -135 43.5 -258t125 -211t191.5 -139t236 -48q151 0 286.5 49t225.5 131l6 -2l-15 -254
q-225 -126 -534 -126q-181 -2 -338.5 62t-267.5 175.5t-171.5 266t-58.5 327.5z" />
    <glyph glyph-name="D" unicode="D" horiz-adv-x="1570" 
d="M193 481v715q0 144 -19 258q-14 104 -59 221q150 15 274 15q257 0 462.5 -60t341.5 -170t208 -264.5t72 -343.5q2 -156 -46.5 -291.5t-139.5 -238t-216 -176t-279 -110.5t-325 -36h-340q36 111 51 220.5t15 260.5zM1190 831q0 303 -200.5 491.5t-540.5 203.5
q-13 -130 -13 -301v-736q0 -182 17 -325q339 15 538 184t199 483z" />
    <glyph glyph-name="E" unicode="E" horiz-adv-x="1132" 
d="M193 481v715q0 151 -15 260.5t-51 220.5h907l-121 -264q-195 98 -477 98v-573h539l-144 -242q-168 63 -395 72v-604q203 0 367 27.5t323 87.5l4 -5l-118 -274h-885q36 111 51 220.5t15 260.5z" />
    <glyph glyph-name="F" unicode="F" horiz-adv-x="1075" 
d="M193 481v715q0 151 -15 260.5t-51 220.5h928l-129 -250q-72 40 -203 62t-287 22v-589h565l-122 -246q-143 76 -443 76v-271q0 -151 15 -260.5t51 -220.5h-375q36 111 51 220.5t15 260.5z" />
    <glyph glyph-name="G" unicode="G" horiz-adv-x="1730" 
d="M1493 1647v-267l-6 -2q-236 133 -481 133q-136 0 -254 -48t-203 -133.5t-133.5 -209.5t-48.5 -270q-2 -146 48.5 -272.5t139 -215.5t213 -139t266.5 -49q174 0 307 59v156q0 268 -110 457h401q-47 -118 -47 -299v-189q0 -172 31 -270q-276 -108 -590 -108
q-187 -1 -342 42t-263 118.5t-182 180t-109 225t-34 253.5q-2 193 67 361.5t192 287.5t298 186t377 64q249 0 463 -51z" />
    <glyph glyph-name="H" unicode="H" horiz-adv-x="1611" 
d="M1419 1196v-715q0 -151 15 -260.5t51 -220.5h-375q36 111 51 220.5t15 260.5v260h-740v-260q0 -151 15 -260.5t51 -220.5h-375q36 111 51 220.5t15 260.5v715q0 151 -15 260.5t-51 220.5h375q-36 -111 -51 -220.5t-15 -260.5v-256h740v256q0 151 -15 260.5t-51 220.5h375
q-36 -111 -51 -220.5t-15 -260.5z" />
    <glyph glyph-name="I" unicode="I" horiz-adv-x="628" 
d="M193 481v715q0 151 -15 260.5t-51 220.5h375q-36 -111 -51 -220.5t-15 -260.5v-715q0 -151 15 -260.5t51 -220.5h-375q36 111 51 220.5t15 260.5z" />
    <glyph glyph-name="J" unicode="J" horiz-adv-x="755" 
d="M582 1120v-727q0 -389 -124 -573.5t-378 -184.5q-59 0 -121 19v8q96 45 161 97t116 134.5t76 204t26 291.5v1096q-54 4 -88 4q-146 0 -266 -27l65 215h580q-26 -113 -37 -225q-10 -133 -10 -332z" />
    <glyph glyph-name="K" unicode="K" horiz-adv-x="1468" 
d="M1530 8v-8h-436q-12 59 -63 148.5t-126 183.5l-469 577v-428q0 -151 15 -260.5t51 -220.5h-375q36 111 51 220.5t15 260.5v715q0 151 -15 260.5t-51 220.5h375q-36 -111 -51 -220.5t-15 -260.5v-262l422 506q55 65 78 117t29 120h462v-8q-225 -173 -399 -379l-301 -360
l504 -621q173 -204 299 -301z" />
    <glyph glyph-name="L" unicode="L" horiz-adv-x="1062" 
d="M193 481v715q0 151 -15 260.5t-51 220.5h375q-36 -111 -51 -220.5t-15 -260.5v-1020q144 8 342 51q186 43 295 90l4 -4l-129 -313h-821q36 111 51 220.5t15 260.5z" />
    <glyph glyph-name="M" unicode="M" horiz-adv-x="2027" 
d="M1835 1278v-797q0 -151 15 -260.5t51 -220.5h-375q36 107 50.5 215.5t14.5 265.5v750l-579 -717l-576 711v-744q0 -151 15 -260.5t51 -220.5h-375q37 108 51.5 216.5t14.5 264.5v1016q-68 88 -164 174v6h370q48 -116 164 -256l451 -557l502 623q78 96 124 190h322v-6
q-78 -96 -102 -176q-25 -83 -25 -217z" />
    <glyph glyph-name="N" unicode="N" horiz-adv-x="1837" 
d="M1645 1130v-583q0 -342 45 -547h-310q-32 95 -137 223l-766 971v-647q0 -183 15 -303q16 -125 51 -244h-375q35 117 51 246q14 112 14 301v903q-97 121 -208 219v8h413q28 -68 66 -125q39 -59 123 -163l774 -981v722q0 182 -15 302q-16 127 -51 245h375
q-36 -119 -51 -243q-14 -112 -14 -304z" />
    <glyph glyph-name="O" unicode="O" horiz-adv-x="1943" 
d="M1845 850q4 -183 -65.5 -346.5t-189 -279t-284 -181.5t-345.5 -63q-150 -3 -287 43t-241.5 128.5t-182 191t-117 236.5t-37.5 259q-3 170 66.5 330.5t187 277.5t280.5 186.5t339 65.5q176 2 338 -61t281.5 -173.5t189.5 -271t67 -342.5zM367 893q-2 -143 46 -278
t132 -237t206 -162.5t259 -57.5q163 0 293.5 84.5t202 228t71.5 317.5q2 143 -50.5 279t-141 236.5t-211.5 160.5t-254 56q-112 0 -213 -46t-176.5 -126.5t-119.5 -199t-44 -255.5z" />
    <glyph glyph-name="P" unicode="P" horiz-adv-x="1187" 
d="M1128 1174q0 -230 -165 -367t-441 -137q-32 0 -86 4v-193q0 -151 15 -260.5t51 -220.5h-375q36 111 51 220.5t15 260.5v715q0 151 -15 260.5t-51 220.5h356q154 0 277.5 -38.5t203 -107t122 -159.5t42.5 -198zM872 1169q0 156 -115 257t-313 108q-8 -79 -8 -231v-537
q200 20 318 131t118 272z" />
    <glyph glyph-name="Q" unicode="Q" horiz-adv-x="1943" 
d="M1851 -330v-8q-55 -22 -147 -22q-95 0 -174 31t-182 112q-101 82 -230 209q-76 -12 -157 -12q-150 -3 -287 43t-241.5 128.5t-182 191t-117 236.5t-37.5 259q-3 170 66.5 330.5t187 277.5t280.5 186.5t339 65.5q176 2 338 -61t281.5 -173.5t189.5 -271t67 -342.5
q0 -239 -107.5 -433t-299.5 -311q244 -330 413 -436zM1010 158q163 0 293.5 84.5t202 228t71.5 317.5q2 143 -50.5 279t-141 236.5t-211.5 160.5t-254 56q-112 0 -213 -46t-176.5 -126.5t-119.5 -199t-44 -255.5q-2 -143 46 -278t132 -237t206 -162.5t259 -57.5z" />
    <glyph glyph-name="R" unicode="R" horiz-adv-x="1292" 
d="M1323 8v-8h-199q-92 35 -239 201q-200 226 -449 569v-289q0 -151 15 -260.5t51 -220.5h-375q36 111 51 220.5t15 260.5v715q0 151 -15 260.5t-51 220.5h348q153 0 276.5 -37.5t202.5 -102.5t121.5 -151t42.5 -186q0 -300 -342 -457q101 -170 232 -344q110 -147 315 -391z
M436 1534v-737q207 42 316.5 139t109.5 233q0 162 -121.5 263.5t-304.5 101.5z" />
    <glyph glyph-name="S" unicode="S" horiz-adv-x="1122" 
d="M113 45v340h8q110 -126 186 -170q80 -47 185 -47q111 0 186.5 71.5t75.5 176.5q0 91 -65 159t-255 175q-184 103 -258 208q-74 109 -74 263q-1 89 37.5 176.5t105 154.5t163.5 107.5t204 38.5q172 0 320 -74v-254l-6 -2q-83 72 -155 101.5t-159 29.5q-117 0 -189.5 -69.5
t-72.5 -165.5q0 -95 67.5 -172t235.5 -170q142 -80 215.5 -141t111 -137.5t40.5 -186.5q0 -145 -74.5 -255t-199 -166t-279.5 -56q-197 0 -354 65z" />
    <glyph glyph-name="T" unicode="T" horiz-adv-x="1282" 
d="M508 481v1020q-305 0 -531 -112l-4 4l84 284h1254l-115 -266q-99 48 -202 69t-242 21v-1020q0 -152 15 -261t50 -220h-375q37 108 51.5 216.5t14.5 264.5z" />
    <glyph glyph-name="U" unicode="U" horiz-adv-x="1595" 
d="M176 627v569q0 152 -15 261t-50 220h374q-35 -111 -50 -220t-15 -261v-571q0 -212 93.5 -322t262.5 -110q156 0 269.5 111t113.5 280v612q0 152 -15 261t-50 220h374q-35 -111 -50 -220t-15 -261v-715q0 -152 15 -261t50 -220h-315q14 49 14 168q-259 -182 -487 -182
q-245 0 -374.5 163.5t-129.5 477.5z" />
    <glyph glyph-name="V" unicode="V" horiz-adv-x="1613" 
d="M1235 1677h434v-6q-68 -79 -125 -172q-45 -78 -110 -233l-533 -1266h-235l-486 1235q-135 336 -235 436v6h434q-17 -66 -17 -116q0 -129 80 -336l349 -887l354 844q108 252 108 387q0 61 -18 108z" />
    <glyph glyph-name="W" unicode="W" horiz-adv-x="2076" 
d="M1745 1677h358q-71 -153 -155 -452l-334 -1225h-238l-334 993l-335 -993h-242l-336 1225q-82 309 -158 452h363q-10 -68 -10 -116q0 -141 53 -336l223 -815l436 1280h11l434 -1274l221 809q53 201 53 334q0 50 -10 118z" />
    <glyph glyph-name="X" unicode="X" horiz-adv-x="1484" 
d="M1456 6v-6h-461q6 34 6 66q0 106 -88 251l-184 308l-213 -340q-88 -140 -88 -240q0 -9 4 -45h-412v6q147 153 359 494l217 346l-217 358q-101 164 -176.5 271t-157.5 196v6h416q-4 -36 -4 -43q0 -96 73 -221l213 -354l185 293q102 164 102 284q0 9 -4 41h406v-6
q-70 -84 -150 -201q-106 -151 -168 -253l-237 -377l206 -344q97 -162 198 -294t175 -196z" />
    <glyph glyph-name="Y" unicode="Y" horiz-adv-x="1247" 
d="M950 1677h353v-6q-75 -81 -166 -244l-377 -663v-283q0 -152 15 -261t50 -220h-374q35 111 50 220t15 261v267l-379 659q-58 102 -102 162t-90 102v6h387q-4 -28 -4 -45q0 -86 67 -205l248 -436l248 443q63 114 63 208q0 15 -4 35z" />
    <glyph glyph-name="Z" unicode="Z" horiz-adv-x="1236" 
d="M1253 322l4 -5l-122 -317h-1115q119 191 383 707q267 525 388 792q-67 6 -138 6q-172 0 -344 -41q-166 -40 -266 -114l-4 4l115 323h1005q-126 -235 -360 -710q-210 -428 -373 -785q64 -6 125 -6q495 0 702 146z" />
    <glyph glyph-name="bracketleft" unicode="[" horiz-adv-x="663" 
d="M641 1677v-164q-90 11 -227 11v-1725q137 0 227 11v-164h-461v2031h461z" />
    <glyph glyph-name="backslash" unicode="\" horiz-adv-x="851" 
d="M-25 1677h267q6 -105 67 -274l525 -1434q51 -137 124 -252h-266q-6 107 -67 275l-525 1433q-50 133 -125 252z" />
    <glyph glyph-name="bracketright" unicode="]" horiz-adv-x="663" 
d="M23 -354v164q90 -11 227 -11v1725q-137 0 -227 -11v164h460v-2031h-460z" />
    <glyph glyph-name="asciicircum" unicode="^" horiz-adv-x="942" 
d="M594 1677l287 -602h-234l-176 395l-176 -395h-234l287 602h246z" />
    <glyph glyph-name="underscore" unicode="_" horiz-adv-x="1024" 
d="M0 -215h1024v-191h-1024v191z" />
    <glyph glyph-name="grave" unicode="`" horiz-adv-x="571" 
d="M102 1671h248q21 -196 119 -375h-96q-182 128 -271 375z" />
    <glyph glyph-name="a" unicode="a" horiz-adv-x="1015" 
d="M860 819v-502q0 -99 14 -168.5t50 -148.5h-297v131q-100 -59 -195 -135q-10 -2 -45 -2q-163 0 -253.5 78t-90.5 213q0 96 60.5 168.5t209.5 142.5q69 34 314 137v47q0 102 -58.5 159.5t-158.5 57.5q-131 0 -256 -79l-4 4l81 225q112 37 242 37q190 0 288.5 -93t98.5 -272
zM627 520h-295q-39 -68 -39 -151q0 -183 256 -183q37 0 78 9v325z" />
    <glyph glyph-name="b" unicode="b" horiz-adv-x="1216" 
d="M406 1137v-185l188 197q64 31 151 31q174 0 287 -135t113 -359q0 -158 -54.5 -288t-150 -216.5t-225.5 -134t-281 -47.5h-317q55 174 55 371v872q0 134 -12.5 218t-42.5 157l338 65q-49 -191 -49 -546zM406 887v-715q60 -14 143 -14q153 0 249.5 112.5t96.5 311.5
q0 95 -25.5 169t-68.5 117t-94.5 64.5t-108.5 21.5q-104 0 -192 -67z" />
    <glyph glyph-name="c" unicode="c" horiz-adv-x="974" 
d="M930 1155l-21 -281l-6 -2q-77 74 -140 105t-132 31q-138 0 -222.5 -100t-84.5 -285q0 -210 110 -331.5t289 -121.5q113 0 217 43l4 -4l-113 -199q-79 -24 -188 -24q-92 0 -175.5 21.5t-156 68t-125.5 113.5t-83.5 163t-30.5 211q0 177 73.5 317.5t213 222t323.5 81.5
q116 0 248 -29z" />
    <glyph glyph-name="d" unicode="d" horiz-adv-x="1224" 
d="M72 502q-3 121 46.5 245.5t132 220.5t195.5 156t228 56q80 0 145 -27v90q0 134 -12.5 218t-42.5 157l334 65q-45 -205 -45 -546v-820q0 -175 55 -317h-289v164q-88 -100 -155 -139t-162 -39q-119 -3 -219.5 67.5t-156.5 190t-54 258.5zM819 227v680q-102 99 -250 99
q-98 0 -163 -56q-80 -151 -80 -354q0 -193 97 -303.5t259 -110.5q75 0 137 45z" />
    <glyph glyph-name="e" unicode="e" horiz-adv-x="1054" 
d="M977 592l-653 -19q7 -195 98 -289t244 -94q136 0 297 113l4 -4l-80 -256q-120 -57 -271 -57q-260 0 -402 149t-142 434q0 143 39.5 260.5t108.5 194.5t162 118.5t200 41.5q194 0 297.5 -122t103.5 -341q0 -79 -6 -129zM326 721h460q0 149 -58.5 227t-170.5 78
q-204 0 -231 -305z" />
    <glyph glyph-name="f" unicode="f" horiz-adv-x="692" 
d="M186 317v695h-149v8l149 156v120q0 182 106.5 287t282.5 105q116 0 234 -31l-31 -240l-6 -2q-116 113 -213 113q-139 0 -139 -189v-174h268v-153h-268v-695q0 -175 55 -317h-344q55 142 55 317z" />
    <glyph glyph-name="g" unicode="g" horiz-adv-x="1134" 
d="M1087 1186v-234q-109 15 -206 49q86 -106 86 -223q0 -166 -125 -271.5t-324 -105.5q-52 0 -117 7q-55 -55 -55 -103q0 -67 111 -67l200 2q41 2 177 2q85 -15 157 -90q72 -72 72 -162q0 -71 -36.5 -132.5t-111.5 -125.5q-186 -154 -440 -154q-187 0 -291 67.5t-104 184.5
q0 36 12 66q142 86 221 165q-98 6 -151 40t-53 89q0 39 16.5 65.5t58.5 55.5l166 113q-132 64 -197 145.5t-65 188.5q0 181 126.5 303.5t322.5 122.5q137 0 239 -60q174 12 311 62zM735 741q0 132 -66 220t-169 88q-81 0 -131 -67t-50 -173q0 -129 65.5 -207t174.5 -78
q82 0 129 57.5t47 159.5zM647 63l-149 -2q-31 -2 -119 -2q-35 -41 -48.5 -71.5t-13.5 -67.5q0 -77 58 -119.5t176 -42.5q129 0 233 37q45 59 45 139q0 129 -182 129z" />
    <glyph glyph-name="h" unicode="h" horiz-adv-x="1236" 
d="M172 317v926q0 134 -12.5 218t-42.5 157l338 65q-49 -191 -49 -546v-185q111 139 184 183q76 49 178 49q138 0 224.5 -90.5t86.5 -251.5v-525q0 -172 56 -317h-347q32 79 45 150.5t13 166.5v406q0 120 -57 182t-158 62q-100 0 -225 -78v-572q0 -95 12.5 -167t44.5 -150
h-346q55 142 55 317z" />
    <glyph glyph-name="i" unicode="i" horiz-adv-x="587" 
d="M457 1485q0 -68 -47.5 -116t-114.5 -48q-69 0 -117.5 48t-48.5 116t48.5 116t117.5 48q67 0 114.5 -48t47.5 -116zM410 848v-531q0 -95 12.5 -167t44.5 -150h-346q55 142 55 317v531q0 175 -55 317h346q-32 -78 -44.5 -150t-12.5 -167z" />
    <glyph glyph-name="j" unicode="j" horiz-adv-x="583" 
d="M127 1485q0 68 48.5 116t117.5 48q67 0 114.5 -48t47.5 -116t-47.5 -116t-114.5 -48q-69 0 -117.5 48t-48.5 116zM174 135v713q0 175 -55 317h344q-55 -142 -55 -317v-713q0 -352 -183 -541h-215q90 116 127 234q37 115 37 307z" />
    <glyph glyph-name="k" unicode="k" horiz-adv-x="1126" 
d="M406 1137v-820q0 -95 12.5 -167t44.5 -150h-346q55 142 55 317v926q0 134 -12.5 218t-42.5 157l338 65q-49 -191 -49 -546zM1120 6v-6h-377q0 95 -90 240l-245 391l292 375q33 44 48.5 78.5t19.5 80.5h342v-8q-74 -56 -135 -118t-139 -160l-172 -220l202 -317
q95 -151 254 -336z" />
    <glyph glyph-name="l" unicode="l" horiz-adv-x="579" 
d="M172 317v926q0 134 -12.5 218t-42.5 157l338 65q-49 -191 -49 -546v-820q0 -95 12.5 -167t44.5 -150h-346q55 142 55 317z" />
    <glyph glyph-name="m" unicode="m" horiz-adv-x="1826" 
d="M1434 317v422q0 114 -52.5 171t-148.5 57q-93 0 -197 -70q4 -54 4 -59v-521q0 -172 56 -317h-346q32 78 44.5 150t12.5 167v420q0 115 -48 171.5t-136 56.5q-94 0 -213 -74v-574q0 -95 12.5 -167t44.5 -150h-346q55 142 55 317v533q0 173 -47 315h293q-12 -71 -12 -151
v-60l73 119q31 51 96 81t146 30q113 0 193.5 -60.5t109.5 -173.5l74 123q30 53 93 82t146 29q145 0 235.5 -89.5t90.5 -254.5v-523q0 -165 57 -317h-346q56 145 56 317z" />
    <glyph glyph-name="n" unicode="n" horiz-adv-x="1241" 
d="M176 317v533q0 173 -47 315h293q-12 -71 -12 -151v-62l184 195q73 37 178 37q138 0 224.5 -90.5t86.5 -251.5v-525q0 -172 56 -317h-346q32 78 44.5 150t12.5 167v467q0 81 -60.5 132t-154.5 51q-100 0 -225 -78v-572q0 -95 12.5 -167t44.5 -150h-346q55 142 55 317z" />
    <glyph glyph-name="o" unicode="o" horiz-adv-x="1251" 
d="M1180 594q2 -100 -28.5 -195t-86.5 -169t-128 -130.5t-156.5 -86t-168.5 -27.5q-109 0 -205 35.5t-171.5 104t-119.5 179.5t-44 252q-3 134 46 254t129 201t182 127.5t204 44.5q118 0 218.5 -40.5t173.5 -115t114 -186.5t41 -248zM336 606q0 -190 91.5 -317t227.5 -142
q115 18 187.5 133.5t72.5 292.5q0 190 -90.5 317.5t-218.5 127.5q-117 0 -193.5 -111t-76.5 -301z" />
    <glyph glyph-name="p" unicode="p" horiz-adv-x="1253" 
d="M172 -88v938q0 173 -47 315h293q-12 -59 -12 -125v-110q86 129 171.5 190.5t182.5 61.5q77 2 150.5 -40t129.5 -115t89 -178.5t32 -221.5q2 -171 -61 -317t-185.5 -235.5t-279.5 -86.5q-124 0 -229 55v-131q0 -96 12.5 -168t44.5 -150h-346q55 142 55 318zM905 553
q0 200 -74.5 310t-203.5 110t-221 -117v-696q79 -29 145 -29q156 0 255 114t99 308z" />
    <glyph glyph-name="q" unicode="q" horiz-adv-x="1210" 
d="M803 -88v244q-75 -87 -152.5 -128.5t-173.5 -41.5q-81 0 -154 35.5t-129 99.5t-89 161t-33 212q-2 146 49 272.5t145.5 220t238 146t316.5 51.5q120 0 242 -17q-27 -85 -27 -295v-960q0 -175 58 -318h-346q55 142 55 318zM805 219v764q-65 27 -143 27q-161 0 -254 -110.5
t-93 -305.5q0 -179 96 -295.5t248 -116.5q93 0 146 37z" />
    <glyph glyph-name="r" unicode="r" horiz-adv-x="851" 
d="M176 317v533q0 173 -47 315h293q-12 -71 -12 -151v-121q90 159 167 223t175 64q52 0 86 -15l-31 -284q-92 57 -164 57q-127 0 -233 -121v-500q0 -95 12.5 -167t44.5 -150h-346q55 142 55 317z" />
    <glyph glyph-name="s" unicode="s" horiz-adv-x="829" 
d="M76 29l14 323h6q69 -117 128 -163t141 -46q75 0 115 37.5t40 106.5q0 63 -39 108q-43 54 -149 119q-121 78 -170 155.5t-49 182.5q0 144 107 238t276 94q117 0 227 -35v-221h-6q-65 55 -116 77.5t-107 22.5q-69 0 -107.5 -33.5t-38.5 -93.5q0 -62 39.5 -110.5
t140.5 -110.5q125 -75 178.5 -154t53.5 -188q0 -164 -107 -258t-278 -94q-142 0 -299 43z" />
    <glyph glyph-name="t" unicode="t" horiz-adv-x="792" 
d="M420 1417v-252h321v-153h-321v-695q0 -77 35.5 -111t111.5 -34q88 0 201 35l4 -4l-141 -197q-95 -18 -164 -18q-149 0 -215 63.5t-66 208.5v752h-149v8l375 397h8z" />
    <glyph glyph-name="u" unicode="u" horiz-adv-x="1220" 
d="M158 182v666q0 172 -56 317h347q-32 -79 -45 -150.5t-13 -166.5v-434q0 -110 47 -161.5t146 -51.5q110 0 227 65v582q0 175 -55 317h344q-56 -145 -56 -317v-531q0 -172 56 -317h-303q14 66 14 205l-152 -180q-93 -41 -210 -41q-213 0 -291 198z" />
    <glyph glyph-name="v" unicode="v" horiz-adv-x="1024" 
d="M754 1165h297v-6q-53 -73 -78 -129q-28 -65 -68 -182l-280 -848h-240l-244 811q-73 227 -170 348v6h381q-16 -56 -16 -112q0 -74 35 -193l170 -571l194 583q33 98 33 195q0 55 -14 98z" />
    <glyph glyph-name="w" unicode="w" horiz-adv-x="1667" 
d="M1378 1165h316v-6q-41 -55 -84 -143q-28 -57 -70 -195l-244 -821h-239l-230 784l-227 -784h-242l-208 778q-67 251 -179 381v6h385q-18 -59 -18 -127q0 -74 29 -184l145 -537l246 848h196l254 -862l150 500q37 121 37 241q0 62 -17 121z" />
    <glyph glyph-name="x" unicode="x" horiz-adv-x="1064" 
d="M1077 6v-6h-389q4 28 4 43q0 55 -20.5 111t-73.5 139l-82 131l-104 -164q-43 -66 -59.5 -110.5t-16.5 -88.5q0 -38 10 -61h-344v6q133 133 244 309l170 269l-217 344q-75 120 -181 231v6h390q-11 -42 -11 -65q0 -37 17 -77t67 -118l72 -112l72 112q69 114 69 201
q0 32 -6 59h332v-6q-49 -48 -87.5 -97t-94.5 -134l-187 -295l226 -357q81 -130 200 -270z" />
    <glyph glyph-name="y" unicode="y" horiz-adv-x="1060" 
d="M750 1165h337v-6q-82 -114 -169 -340l-334 -864q-63 -159 -113.5 -244.5t-103.5 -116.5h-267v9q92 82 175.5 203t142.5 268l-289 762q-73 197 -158 323v6h367q-16 -50 -16 -102q0 -84 32 -166l191 -502l184 475q37 104 37 199q0 50 -16 96z" />
    <glyph glyph-name="z" unicode="z" horiz-adv-x="880" 
d="M850 258l4 -4l-74 -254h-753q162 272 292 575l179 418h-197q-170 0 -256 -80l-4 5l53 247h740q-155 -306 -273 -583l-178 -410h113q117 0 200 19.5t154 66.5z" />
    <glyph glyph-name="braceleft" unicode="{" horiz-adv-x="735" 
d="M696 1665v-18q-122 -32 -170.5 -112t-48.5 -251v-309q0 -135 -59 -212.5t-166 -98.5v-5q107 -21 166 -98.5t59 -212.5v-309q0 -171 48.5 -251t170.5 -112v-18q-77 -25 -151 -25q-148 0 -224.5 86t-76.5 256v445q0 99 -38.5 153.5t-123.5 77.5v21q85 23 123.5 77.5
t38.5 153.5v445q0 170 76.5 256t224.5 86q74 0 151 -25z" />
    <glyph glyph-name="bar" unicode="|" horiz-adv-x="532" 
d="M164 -406v2089h205v-2089h-205z" />
    <glyph glyph-name="braceright" unicode="}" horiz-adv-x="735" 
d="M39 -342v18q122 32 170.5 112t48.5 251v309q0 135 59 212.5t166 98.5v5q-107 21 -166 98.5t-59 212.5v309q0 171 -48.5 251t-170.5 112v18q77 25 151 25q148 0 225 -86t77 -256v-445q0 -99 38 -153.5t123 -77.5v-21q-85 -23 -123 -77.5t-38 -153.5v-445q0 -170 -77 -256
t-225 -86q-74 0 -151 25z" />
    <glyph glyph-name="asciitilde" unicode="~" horiz-adv-x="1208" 
d="M82 489q0 149 87 253t222 104q69 0 119.5 -23.5t132.5 -83.5q61 -47 94.5 -64.5t73.5 -17.5q63 0 104 42t41 108q0 24 -6 39h174q2 -8 2 -39q0 -149 -87 -252.5t-222 -103.5q-69 0 -123.5 25.5t-128.5 84.5q-61 47 -94.5 64.5t-73.5 17.5q-63 0 -104 -44t-41 -110
q0 -20 6 -38h-174q-2 8 -2 38z" />
    <glyph glyph-name="uni00A0" unicode="&#xa0;" horiz-adv-x="491" 
 />
    <glyph glyph-name="exclamdown" unicode="&#xa1;" horiz-adv-x="608" 
d="M121 1094q0 75 53.5 128.5t128.5 53.5t128.5 -53.5t53.5 -128.5t-53.5 -129t-128.5 -54t-128.5 54t-53.5 129zM186 102v351q0 89 21 153q24 72 84 182h24q60 -106 84 -180q21 -64 21 -155v-351q0 -214 16 -329q18 -109 74 -195h-412q57 88 72 195q16 115 16 329z" />
    <glyph glyph-name="cent" unicode="&#xa2;" horiz-adv-x="1079" 
d="M973 467l4 -4l-113 -199q-80 -24 -188 -24q-66 0 -107 8l-63 -248h-170l74 293q-144 65 -225 198t-81 326q0 172 71 311t206 222.5t311 87.5l62 239h170l-64 -250q31 -3 103 -18l-21 -260l-6 -2q-63 56 -117 80l-201 -783q67 -20 138 -20q113 0 217 43zM473 539l182 723
q-136 -5 -217.5 -103.5t-81.5 -281.5q0 -215 117 -338z" />
    <glyph glyph-name="sterling" unicode="&#xa3;" horiz-adv-x="1247" 
d="M1225 285l4 -4l-105 -281h-1079q231 354 252 768q-169 0 -262 -45v268q95 -49 266 -49q6 237 39 363q49 187 173 286t304 99q168 0 320 -70l-25 -256q-142 121 -278 121q-105 0 -173.5 -62t-91.5 -182q-27 -147 -30 -297h4q139 3 178 10q50 9 115 37l-13 -266
q-82 43 -286 43h-2q-7 -158 -40.5 -296t-99.5 -308h88q396 0 742 121z" />
    <glyph glyph-name="currency" unicode="&#xa4;" horiz-adv-x="1335" 
d="M1108 492l164 -164l-148 -148l-163 164q-131 -88 -293 -88t-293 88l-164 -164l-148 148l164 164q-88 131 -88 292q0 162 88 293l-164 164l148 148l164 -164q131 88 293 88t293 -88l163 164l148 -148l-164 -164q88 -131 88 -293q0 -161 -88 -292zM987 784
q0 131 -94.5 225.5t-224.5 94.5t-225 -95t-95 -225t94.5 -224.5t225.5 -94.5q130 0 224.5 94.5t94.5 224.5z" />
    <glyph glyph-name="yen" unicode="&#xa5;" horiz-adv-x="1224" 
d="M1047 1427l-293 -514h90q124 0 274 27v-227q-127 26 -274 26h-103v-190h103q130 0 274 26v-227q-132 27 -274 27h-101q3 -251 66 -375h-371q63 124 66 375h-105q-142 0 -274 -27v227q144 -26 274 -26h107v190h-107q-147 0 -274 -26v227q150 -27 274 -27h95l-285 494
q-63 108 -105.5 166.5t-85.5 95.5v8h375q-4 -28 -4 -45q0 -84 68 -205l176 -307l176 314q63 114 63 208q0 29 -2 35h340v-8q-71 -78 -163 -242z" />
    <glyph glyph-name="brokenbar" unicode="&#xa6;" horiz-adv-x="532" 
d="M164 1683h205v-737h-205v737zM164 332h205v-738h-205v738z" />
    <glyph glyph-name="section" unicode="&#xa7;" horiz-adv-x="1036" 
d="M909 119q0 -178 -132.5 -285.5t-334.5 -107.5q-170 0 -315 77l35 267q144 -160 309 -160q98 0 153.5 48t55.5 130q0 51 -33 90q-29 36 -72.5 63t-138.5 72q-102 47 -174 90q-160 104 -160 277q0 127 50 227l167 66q-104 65 -156 137t-52 166q0 180 133.5 297t371.5 117
q138 0 228 -35v-260q-125 106 -260 106q-102 0 -158.5 -52.5t-56.5 -145.5q0 -61 32 -101q33 -41 80 -71t140 -74q87 -42 163 -90q68 -41 109 -106t41 -148q0 -122 -57 -221l-181 -60q107 -65 160 -136.5t53 -176.5zM580 492l94 -48q65 103 65 195q0 38 -15 69.5t-52 62
t-81 56.5t-120 64q-23 13 -68 37t-61 33q-45 -86 -45 -179q0 -71 37 -123q36 -48 87.5 -81.5t158.5 -85.5z" />
    <glyph glyph-name="dieresis" unicode="&#xa8;" horiz-adv-x="917" 
d="M293 1335h-191q72 159 78 293h219q-18 -151 -106 -293zM709 1335h-191q72 159 78 293h219q-18 -151 -106 -293z" />
    <glyph glyph-name="copyright" unicode="&#xa9;" horiz-adv-x="1882" 
d="M82 840q-2 114 28.5 225t87 205.5t137.5 175t176 136.5t206 87t225 29q114 2 225 -29t205.5 -87t175 -136.5t136.5 -175t87 -205.5t29 -225q2 -114 -29 -225t-87 -206t-136.5 -176t-175 -137.5t-205.5 -87t-225 -28.5q-170 -4 -330.5 65.5t-277.5 186.5t-186.5 277.5
t-65.5 330.5zM1636 840q4 184 -91 346t-257 257t-346 91q-184 4 -346.5 -91t-258 -257t-91.5 -346q-3 -138 53 -268t151 -224.5t224.5 -151t267.5 -53.5q138 -3 267.5 53.5t223.5 151t150 224.5t53 268zM449 827q0 158 78.5 280t211 186.5t295.5 64.5q133 0 236 -33v-225h-2
q-132 84 -275 84q-130 0 -217.5 -95.5t-87.5 -240.5q0 -138 86 -233t213 -95q188 0 305 117l4 -2l-10 -232q-135 -75 -319 -75q-229 0 -373.5 142t-144.5 357z" />
    <glyph glyph-name="ordfeminine" unicode="&#xaa;" horiz-adv-x="743" 
d="M647 1300v-329q0 -128 41 -234h-239v90q-45 -23 -109 -84q-30 -10 -59 -10q-118 0 -186 54.5t-68 148.5q0 73 45 123.5t159 99.5q81 35 218 82v29q0 65 -38 99t-108 34q-104 0 -217 -72l-2 4l53 185q96 47 215 47q145 0 220 -69t75 -198zM449 1096h-170q-46 -46 -46 -109
q0 -68 30.5 -99.5t96.5 -31.5q46 0 89 16v224z" />
    <glyph glyph-name="guillemotleft" unicode="&#xab;" horiz-adv-x="1060" 
d="M762 1122h239l-249 -460l249 -461h-239l-279 461zM324 1122h239l-250 -460l250 -461h-239l-279 461z" />
    <glyph glyph-name="logicalnot" unicode="&#xac;" horiz-adv-x="1208" 
d="M901 555v266h-532q-178 0 -287 -20v246q114 -21 287 -21h737v-471q0 -178 20 -287h-245q20 109 20 287z" />
    <glyph glyph-name="uni00AD" unicode="&#xad;" horiz-adv-x="688" 
d="M618 807v-283q-132 27 -274 27t-274 -27v283q150 -27 274 -27t274 27z" />
    <glyph glyph-name="registered" unicode="&#xae;" horiz-adv-x="1249" 
d="M1167 1239q3 -144 -71 -270.5t-200.5 -201t-270.5 -71.5q-108 -2 -209 41.5t-175 117.5t-117.5 175t-41.5 209q-2 108 41.5 209t117.5 175t175 117.5t209 41.5q144 3 270.5 -71.5t200.5 -201t71 -270.5zM1044 1239q0 173 -123 296.5t-296 123.5t-296.5 -123.5
t-123.5 -296.5t123.5 -296.5t296.5 -123.5t296 123.5t123 296.5zM725 1188q58 -100 178 -240v-6h-131q-35 15 -78 70q-48 62 -137 200v-102q0 -91 23 -168h-181q23 70 23 168v250q0 97 -23 170h174q130 0 205.5 -49.5t75.5 -126.5q0 -108 -129 -166zM715 1346q0 42 -44.5 67
t-113.5 25v-215q74 17 116 50.5t42 72.5z" />
    <glyph glyph-name="overscore" unicode="&#xaf;" horiz-adv-x="862" 
d="M760 1591v-211q-114 15 -287 15h-84q-173 0 -287 -15v211q106 -14 287 -14h84q181 0 287 14z" />
    <glyph glyph-name="degree" unicode="&#xb0;" horiz-adv-x="690" 
d="M625 1413q0 -119 -80 -199q-79 -79 -199 -79q-119 0 -201 79q-79 79 -79 199t79 199q82 82 201 82q120 0 199 -82q80 -80 80 -199zM188 1413q0 -66 46 -111t112 -45t111 45t45 111q0 67 -45 112.5t-111 45.5t-112 -45.5t-46 -112.5z" />
    <glyph glyph-name="plusminus" unicode="&#xb1;" horiz-adv-x="1208" 
d="M1126 934v-246q-114 21 -286 21h-133q0 -178 20 -287h-246q21 114 21 287h-133q-173 0 -287 -21v246q114 -21 287 -21h133q0 173 -21 287h246q-20 -109 -20 -287h133q172 0 286 21zM369 330h471q177 0 286 20v-246q-114 21 -286 21h-471q-173 0 -287 -21v246
q109 -20 287 -20z" />
    <glyph glyph-name="twosuperior" unicode="&#xb2;" horiz-adv-x="741" 
d="M690 975h4l-18 -238h-653v6q115 159 190 261q119 166 149 213q48 71 65 110t17 72q0 51 -29.5 81.5t-80.5 30.5q-54 0 -88.5 -38t-34.5 -93q0 -33 10 -71l-2 -4l-166 92q-2 6 -2 20q0 111 84.5 191t208.5 80q139 0 222 -77t83 -198q0 -64 -26 -125t-97 -158l-170 -229h64
q93 0 151 16t119 58z" />
    <glyph glyph-name="threesuperior" unicode="&#xb3;" horiz-adv-x="735" 
d="M676 1034q0 -133 -104.5 -221t-262.5 -88q-192 0 -299 113l99 186h8q55 -143 184 -143q72 0 116 38t44 101q0 69 -52.5 112.5t-142.5 43.5q-36 0 -73 -9l-3 2l203 357h-59q-117 0 -173.5 -18.5t-99.5 -69.5h-6l4 239h611l-217 -383q100 -26 161.5 -97.5t61.5 -162.5z" />
    <glyph glyph-name="acute" unicode="&#xb4;" horiz-adv-x="571" 
d="M199 1296h-97q98 179 119 375h248q-89 -248 -270 -375z" />
    <glyph glyph-name="mu" unicode="&#xb5;" horiz-adv-x="1247" 
d="M1071 850v-535q0 -173 55 -315h-301q13 86 13 221q-57 -128 -118 -182.5t-147 -54.5q-118 0 -167 106v-180q0 -174 55 -316h-344q55 142 55 316v940q0 173 -55 315h344q-55 -142 -55 -315v-420q0 -122 48 -178.5t148 -56.5q62 0 116 19.5t120 68.5v567q0 170 -56 315h344
q-55 -142 -55 -315z" />
    <glyph glyph-name="paragraph" unicode="&#xb6;" horiz-adv-x="1320" 
d="M727 1677v-2083h-244q36 70 52 182.5t16 299.5v586q-232 0 -360 133t-128 374t128 374.5t360 133.5h176zM1087 1196v-1120q0 -187 16 -299.5t52 -182.5h-244v2083h244q-36 -70 -52 -182t-16 -299z" />
    <glyph glyph-name="middot" unicode="&#xb7;" horiz-adv-x="528" 
d="M446 588q0 -82 -50.5 -133.5t-131.5 -51.5q-82 0 -133 51.5t-51 133.5t51 132t133 50t132 -50t50 -132z" />
    <glyph glyph-name="cedilla" unicode="&#xb8;" horiz-adv-x="636" 
d="M535 -256q0 -82 -70 -136t-182 -54q-89 0 -181 24l39 109q57 -11 95 -11q133 0 133 78q0 35 -30.5 55.5t-84.5 20.5q-14 0 -68 -4l58 184h112l-24 -80q96 -6 149.5 -57.5t53.5 -128.5z" />
    <glyph glyph-name="onesuperior" unicode="&#xb9;" horiz-adv-x="614" 
d="M223 961v479h-143v10l342 238h2v-785q0 -102 29 -166h-281q29 49 40 99t11 125z" />
    <glyph glyph-name="ordmasculine" unicode="&#xba;" horiz-adv-x="907" 
d="M864 1153q0 -118 -59 -216.5t-155.5 -154t-207.5 -55.5q-109 0 -198 43t-145 135t-56 219q0 94 36 177.5t94.5 141t134 91t153.5 33.5q187 0 295 -110t108 -304zM262 1165q0 -129 58 -209.5t153 -91.5q80 11 128 84.5t48 190.5q0 123 -62 207t-151 84q-79 0 -126.5 -70
t-47.5 -195z" />
    <glyph glyph-name="guillemotright" unicode="&#xbb;" horiz-adv-x="1060" 
d="M299 201h-240l250 461l-250 460h240l279 -460zM737 201h-239l250 461l-250 460h239l279 -460z" />
    <glyph glyph-name="onequarter" unicode="&#xbc;" horiz-adv-x="1734" 
d="M223 961v479h-143v10l342 238h2v-785q0 -102 29 -166h-281q29 49 40 99t11 125zM1260 1462l-682 -1226q-76 -137 -97 -236h-288q90 104 153 215l682 1227q75 135 96 235h289q-90 -104 -153 -215zM1554 297h-6v-27q0 -158 37 -270h-266q37 110 37 270v27h-391v139
q64 61 151 172l176 228q59 79 74 104h182v-510h6q102 0 166 25v-183q-57 25 -166 25zM1356 709l-213 -279h213v279z" />
    <glyph glyph-name="onehalf" unicode="&#xbd;" horiz-adv-x="1732" 
d="M223 961v479h-143v10l342 238h2v-785q0 -102 29 -166h-281q29 49 40 99t11 125zM1260 1462l-682 -1226q-76 -137 -97 -236h-288q90 104 153 215l682 1227q75 135 96 235h289q-90 -104 -153 -215zM1681 238h5l-19 -238h-653v6q67 93 190 260q127 177 150 213q48 71 65 110
t17 73q0 51 -30 81.5t-81 30.5q-54 0 -88.5 -38t-34.5 -93q0 -34 10 -72l-2 -4l-166 92q-2 6 -2 21q0 110 84.5 190t208.5 80q139 0 222 -77t83 -197q0 -64 -25.5 -125.5t-96.5 -157.5l-170 -229h63q93 0 151 16t119 58z" />
    <glyph glyph-name="threequarters" unicode="&#xbe;" horiz-adv-x="1855" 
d="M676 1034q0 -133 -104.5 -221t-262.5 -88q-192 0 -299 113l99 186h8q55 -143 184 -143q72 0 116 38t44 101q0 69 -52.5 112.5t-142.5 43.5q-36 0 -73 -9l-3 2l203 357h-59q-117 0 -173.5 -18.5t-99.5 -69.5h-6l4 239h611l-217 -383q100 -26 161.5 -97.5t61.5 -162.5z
M1380 1462l-682 -1226q-74 -134 -96 -236h-289q93 107 154 215l682 1227q75 135 96 235h289q-93 -107 -154 -215zM1675 297h-6v-27q0 -158 37 -270h-266q37 110 37 270v27h-392v139q68 65 152 172l176 228q59 79 74 104h182v-510h6q102 0 166 25v-183q-57 25 -166 25z
M1477 709l-213 -279h213v279z" />
    <glyph glyph-name="questiondown" unicode="&#xbf;" horiz-adv-x="980" 
d="M850 1110q0 -75 -53.5 -128.5t-128.5 -53.5t-129 53.5t-54 128.5t54 128.5t129 53.5t128.5 -53.5t53.5 -128.5zM715 582q0 -55 -24 -79.5t-103 -47.5q-142 -41 -217.5 -131t-75.5 -215q0 -139 89.5 -232.5t217.5 -93.5q142 0 270 96l7 -2l-17 -252q-127 -47 -270 -47
q-247 0 -403 144t-156 372q0 190 102.5 324t292.5 196q111 39 158 74q51 39 92 111h27q10 -140 10 -217z" />
    <glyph glyph-name="Agrave" unicode="&#xc0;" horiz-adv-x="1656" 
d="M1712 6v-6h-407q6 21 6 55q0 110 -84 293l-80 184h-629l-90 -190q-86 -180 -86 -287q0 -19 4 -55h-401v6q111 135 239 387l668 1325h6l623 -1331q54 -120 105 -203.5t126 -177.5zM844 1221l-234 -496h451zM596 2122h248q21 -196 119 -375h-97q-181 127 -270 375z" />
    <glyph glyph-name="Aacute" unicode="&#xc1;" horiz-adv-x="1656" 
d="M1712 6v-6h-407q6 21 6 55q0 110 -84 293l-80 184h-629l-90 -190q-86 -180 -86 -287q0 -19 4 -55h-401v6q111 135 239 387l668 1325h6l623 -1331q54 -120 105 -203.5t126 -177.5zM844 1221l-234 -496h451zM825 1747h-96q98 179 119 375h248q-89 -247 -271 -375z" />
    <glyph glyph-name="Acircumflex" unicode="&#xc2;" horiz-adv-x="1656" 
d="M1712 6v-6h-407q6 21 6 55q0 110 -84 293l-80 184h-629l-90 -190q-86 -180 -86 -287q0 -19 4 -55h-401v6q111 135 239 387l668 1325h6l623 -1331q54 -120 105 -203.5t126 -177.5zM844 1221l-234 -496h451zM1167 1747h-96q-129 95 -215 227q-86 -132 -215 -227h-96
q122 166 166 375h293q48 -218 163 -375z" />
    <glyph glyph-name="Atilde" unicode="&#xc3;" horiz-adv-x="1656" 
d="M1712 6v-6h-407q6 21 6 55q0 110 -84 293l-80 184h-629l-90 -190q-86 -180 -86 -287q0 -19 4 -55h-401v6q111 135 239 387l668 1325h6l623 -1331q54 -120 105 -203.5t126 -177.5zM844 1221l-234 -496h451zM1024 1782q-47 0 -88.5 15t-101.5 50q-61 32 -89.5 43t-58.5 11
q-43 0 -69.5 -26t-26.5 -65q0 -8 4 -28h-152q0 134 64 217.5t182 83.5q45 0 83 -14t110 -52q60 -32 88 -42.5t59 -10.5q42 0 69 25.5t27 64.5q0 9 -4 29h152q0 -134 -65 -217.5t-183 -83.5z" />
    <glyph glyph-name="Adieresis" unicode="&#xc4;" horiz-adv-x="1656" 
d="M1712 6v-6h-407q6 21 6 55q0 110 -84 293l-80 184h-629l-90 -190q-86 -180 -86 -287q0 -19 4 -55h-401v6q111 135 239 387l668 1325h6l623 -1331q54 -120 105 -203.5t126 -177.5zM844 1221l-234 -496h451zM731 1786h-190q71 157 77 293h220q-18 -148 -107 -293z
M1147 1786h-191q72 159 78 293h219q-18 -151 -106 -293z" />
    <glyph glyph-name="Aring" unicode="&#xc5;" horiz-adv-x="1656" 
d="M1712 6v-6h-407q6 21 6 55q0 110 -84 293l-80 184h-629l-90 -190q-86 -180 -86 -287q0 -19 4 -55h-401v6q111 135 239 387l668 1325h6l623 -1331q54 -120 105 -203.5t126 -177.5zM844 1221l-234 -496h451zM1059 1935q0 -86 -59 -145t-144 -59q-86 0 -145.5 59t-59.5 145
q0 85 59.5 145t145.5 60q85 0 144 -60t59 -145zM743 1935q0 -47 33 -79.5t80 -32.5t80 32.5t33 79.5t-33 80t-80 33t-80 -33t-33 -80z" />
    <glyph glyph-name="AE" unicode="&#xc6;" horiz-adv-x="1982" 
d="M1976 279l4 -5l-118 -274h-885q36 107 50.5 215.5t14.5 265.5v260h-417l-150 -274q-76 -143 -108.5 -251.5t-34.5 -215.5h-412v6q119 144 211 318l588 1085q83 157 104 268h1061l-121 -264q-195 98 -477 98v-577h539l-142 -264q-166 84 -397 84v-590q203 0 367 27.5
t323 87.5zM1042 1513l-313 -579h313v579z" />
    <glyph glyph-name="Ccedilla" unicode="&#xc7;" horiz-adv-x="1546" 
d="M936 -20l-14 -50q96 -6 149 -57.5t53 -128.5q0 -82 -70 -136t-182 -54q-88 0 -180 24l39 109q57 -11 94 -11q133 0 133 78q0 35 -30 55.5t-84 20.5q-14 0 -68 -4l49 160q-213 20 -381.5 135t-259.5 296t-88 394q-3 195 72.5 363t205 283t304.5 179t369 62q205 0 393 -58
v-258l-6 -2q-91 56 -208 87.5t-233 31.5q-129 2 -246 -48.5t-201 -138.5t-132.5 -212t-46.5 -262q-2 -135 43.5 -258t125 -211t191.5 -139t236 -48q151 0 286.5 49t225.5 131l6 -2l-15 -254q-225 -126 -530 -126z" />
    <glyph glyph-name="Egrave" unicode="&#xc8;" horiz-adv-x="1132" 
d="M193 481v715q0 151 -15 260.5t-51 220.5h907l-121 -264q-195 98 -477 98v-573h539l-144 -242q-168 63 -395 72v-604q203 0 367 27.5t323 87.5l4 -5l-118 -274h-885q36 111 51 220.5t15 260.5zM322 2122h247q21 -196 119 -375h-96q-181 127 -270 375z" />
    <glyph glyph-name="Eacute" unicode="&#xc9;" horiz-adv-x="1132" 
d="M193 481v715q0 151 -15 260.5t-51 220.5h907l-121 -264q-195 98 -477 98v-573h539l-144 -242q-168 63 -395 72v-604q203 0 367 27.5t323 87.5l4 -5l-118 -274h-885q36 111 51 220.5t15 260.5zM551 1747h-96q97 177 118 375h248q-89 -248 -270 -375z" />
    <glyph glyph-name="Ecircumflex" unicode="&#xca;" horiz-adv-x="1132" 
d="M193 481v715q0 151 -15 260.5t-51 220.5h907l-121 -264q-195 98 -477 98v-573h539l-144 -242q-168 63 -395 72v-604q203 0 367 27.5t323 87.5l4 -5l-118 -274h-885q36 111 51 220.5t15 260.5zM893 1747h-96q-129 95 -215 227q-86 -132 -215 -227h-97q122 166 166 375h293
q48 -216 164 -375z" />
    <glyph glyph-name="Edieresis" unicode="&#xcb;" horiz-adv-x="1132" 
d="M193 481v715q0 151 -15 260.5t-51 220.5h907l-121 -264q-195 98 -477 98v-573h539l-144 -242q-168 63 -395 72v-604q203 0 367 27.5t323 87.5l4 -5l-118 -274h-885q36 111 51 220.5t15 260.5zM457 1786h-191q72 159 78 293h219q-18 -151 -106 -293zM872 1786h-190
q72 159 78 293h219q-18 -148 -107 -293z" />
    <glyph glyph-name="Igrave" unicode="&#xcc;" horiz-adv-x="628" 
d="M193 481v715q0 151 -15 260.5t-51 220.5h375q-36 -111 -51 -220.5t-15 -260.5v-715q0 -151 15 -260.5t51 -220.5h-375q36 111 51 220.5t15 260.5zM55 2122h248q21 -196 119 -375h-96q-182 128 -271 375z" />
    <glyph glyph-name="Iacute" unicode="&#xcd;" horiz-adv-x="628" 
d="M193 481v715q0 151 -15 260.5t-51 220.5h375q-36 -111 -51 -220.5t-15 -260.5v-715q0 -151 15 -260.5t51 -220.5h-375q36 111 51 220.5t15 260.5zM285 1747h-97q98 179 119 375h248q-89 -248 -270 -375z" />
    <glyph glyph-name="Icircumflex" unicode="&#xce;" horiz-adv-x="628" 
d="M193 481v715q0 151 -15 260.5t-51 220.5h375q-36 -111 -51 -220.5t-15 -260.5v-715q0 -151 15 -260.5t51 -220.5h-375q36 111 51 220.5t15 260.5zM627 1747h-97q-129 95 -215 227q-86 -132 -215 -227h-96q122 166 166 375h293q48 -216 164 -375z" />
    <glyph glyph-name="Idieresis" unicode="&#xcf;" horiz-adv-x="628" 
d="M193 481v715q0 151 -15 260.5t-51 220.5h375q-36 -111 -51 -220.5t-15 -260.5v-715q0 -151 15 -260.5t51 -220.5h-375q36 111 51 220.5t15 260.5zM231 1786h-190q72 159 78 293h219q-18 -148 -107 -293zM565 1786h-190q72 159 78 293h219q-18 -148 -107 -293z" />
    <glyph glyph-name="Eth" unicode="&#xd0;" horiz-adv-x="1570" 
d="M1473 852q2 -156 -46.5 -291.5t-139.5 -238t-216 -176t-279 -110.5t-325 -36h-340q36 111 51 220.5t15 260.5v273q-122 -3 -213 -17v201q84 -13 213 -16v274q0 144 -19 258q-14 104 -59 221q150 15 274 15q257 0 462.5 -60t341.5 -170t208 -264.5t72 -343.5zM1190 831
q0 303 -200.5 491.5t-540.5 203.5q-13 -130 -13 -301v-303h107q160 0 266 16v-201q-112 17 -266 17h-107v-265q0 -182 17 -325q339 15 538 184t199 483z" />
    <glyph glyph-name="Ntilde" unicode="&#xd1;" horiz-adv-x="1837" 
d="M1645 1130v-583q0 -342 45 -547h-310q-32 95 -137 223l-766 971v-647q0 -183 15 -303q16 -125 51 -244h-375q35 117 51 246q14 112 14 301v903q-97 121 -208 219v8h413q28 -68 66 -125q39 -59 123 -163l774 -981v722q0 182 -15 302q-16 127 -51 245h375
q-36 -119 -51 -243q-14 -112 -14 -304zM1087 1782q-47 0 -88.5 15t-101.5 50q-62 32 -89.5 43t-57.5 11q-43 0 -70 -26t-27 -65q0 -8 4 -28h-151q0 134 64 217.5t182 83.5q32 0 63.5 -9t55 -20t73.5 -37q59 -31 88 -42t60 -11q42 0 69 25.5t27 64.5q0 9 -4 29h151
q0 -134 -65 -217.5t-183 -83.5z" />
    <glyph glyph-name="Ograve" unicode="&#xd2;" horiz-adv-x="1943" 
d="M1845 850q4 -183 -65.5 -346.5t-189 -279t-284 -181.5t-345.5 -63q-150 -3 -287 43t-241.5 128.5t-182 191t-117 236.5t-37.5 259q-3 170 66.5 330.5t187 277.5t280.5 186.5t339 65.5q176 2 338 -61t281.5 -173.5t189.5 -271t67 -342.5zM367 893q-2 -143 46 -278
t132 -237t206 -162.5t259 -57.5q163 0 293.5 84.5t202 228t71.5 317.5q2 143 -50.5 279t-141 236.5t-211.5 160.5t-254 56q-112 0 -213 -46t-176.5 -126.5t-119.5 -199t-44 -255.5zM711 2122h247q21 -196 119 -375h-96q-181 127 -270 375z" />
    <glyph glyph-name="Oacute" unicode="&#xd3;" horiz-adv-x="1943" 
d="M1845 850q4 -183 -65.5 -346.5t-189 -279t-284 -181.5t-345.5 -63q-150 -3 -287 43t-241.5 128.5t-182 191t-117 236.5t-37.5 259q-3 170 66.5 330.5t187 277.5t280.5 186.5t339 65.5q176 2 338 -61t281.5 -173.5t189.5 -271t67 -342.5zM367 893q-2 -143 46 -278
t132 -237t206 -162.5t259 -57.5q163 0 293.5 84.5t202 228t71.5 317.5q2 143 -50.5 279t-141 236.5t-211.5 160.5t-254 56q-112 0 -213 -46t-176.5 -126.5t-119.5 -199t-44 -255.5zM940 1747h-96q98 179 119 375h247q-89 -248 -270 -375z" />
    <glyph glyph-name="Ocircumflex" unicode="&#xd4;" horiz-adv-x="1943" 
d="M1845 850q4 -183 -65.5 -346.5t-189 -279t-284 -181.5t-345.5 -63q-150 -3 -287 43t-241.5 128.5t-182 191t-117 236.5t-37.5 259q-3 170 66.5 330.5t187 277.5t280.5 186.5t339 65.5q176 2 338 -61t281.5 -173.5t189.5 -271t67 -342.5zM367 893q-2 -143 46 -278
t132 -237t206 -162.5t259 -57.5q163 0 293.5 84.5t202 228t71.5 317.5q2 143 -50.5 279t-141 236.5t-211.5 160.5t-254 56q-112 0 -213 -46t-176.5 -126.5t-119.5 -199t-44 -255.5zM1282 1747h-96q-129 95 -215 227q-86 -132 -215 -227h-97q122 166 166 375h293
q48 -216 164 -375z" />
    <glyph glyph-name="Otilde" unicode="&#xd5;" horiz-adv-x="1943" 
d="M1845 850q4 -183 -65.5 -346.5t-189 -279t-284 -181.5t-345.5 -63q-150 -3 -287 43t-241.5 128.5t-182 191t-117 236.5t-37.5 259q-3 170 66.5 330.5t187 277.5t280.5 186.5t339 65.5q176 2 338 -61t281.5 -173.5t189.5 -271t67 -342.5zM367 893q-2 -143 46 -278
t132 -237t206 -162.5t259 -57.5q163 0 293.5 84.5t202 228t71.5 317.5q2 143 -50.5 279t-141 236.5t-211.5 160.5t-254 56q-112 0 -213 -46t-176.5 -126.5t-119.5 -199t-44 -255.5zM1139 1782q-47 0 -89 15t-102 50q-62 32 -89.5 43t-57.5 11q-43 0 -69.5 -26t-26.5 -65
q0 -8 4 -28h-152q0 134 64 217.5t182 83.5q32 0 63.5 -9t55 -20t73.5 -37q59 -31 88 -42t60 -11q42 0 69 25.5t27 64.5q0 9 -4 29h151q0 -134 -64.5 -217.5t-182.5 -83.5z" />
    <glyph glyph-name="Odieresis" unicode="&#xd6;" horiz-adv-x="1943" 
d="M1845 850q4 -183 -65.5 -346.5t-189 -279t-284 -181.5t-345.5 -63q-150 -3 -287 43t-241.5 128.5t-182 191t-117 236.5t-37.5 259q-3 170 66.5 330.5t187 277.5t280.5 186.5t339 65.5q176 2 338 -61t281.5 -173.5t189.5 -271t67 -342.5zM367 893q-2 -143 46 -278
t132 -237t206 -162.5t259 -57.5q163 0 293.5 84.5t202 228t71.5 317.5q2 143 -50.5 279t-141 236.5t-211.5 160.5t-254 56q-112 0 -213 -46t-176.5 -126.5t-119.5 -199t-44 -255.5zM846 1786h-191q72 159 78 293h219q-18 -151 -106 -293zM1262 1786h-191q72 159 78 293h219
q-18 -151 -106 -293z" />
    <glyph glyph-name="multiply" unicode="&#xd7;" horiz-adv-x="1208" 
d="M748 678l94 -94q123 -123 217 -187l-172 -174q-72 100 -189 217l-94 95l-94 -95q-119 -119 -188 -217l-175 174q97 66 218 187l94 94l-94 94q-120 120 -218 189l175 174q69 -98 188 -217l94 -95l94 95q117 117 189 217l172 -174q-95 -67 -217 -189z" />
    <glyph glyph-name="Oslash" unicode="&#xd8;" horiz-adv-x="1943" 
d="M1845 850q4 -183 -65.5 -346.5t-189 -279t-284 -181.5t-345.5 -63q-209 0 -381 81q-48 -82 -82 -174l-265 76l33 41q113 140 135 170q-145 121 -225 296t-80 368q-3 170 66.5 330.5t187 277.5t280.5 186.5t339 65.5q211 0 391 -82q41 71 82 176l266 -76
q-116 -138 -168 -211q144 -114 224.5 -284t80.5 -371zM549 375l94 139l557 844q24 30 43 65q-151 97 -323 97q-112 0 -213 -46t-176.5 -126.5t-119.5 -199t-44 -255.5q0 -148 47.5 -283.5t134.5 -234.5zM1577 788q0 297 -188 510q-42 -59 -91 -133l-559 -843
q-6 -10 -22 -34.5t-25 -39.5q143 -90 318 -90q163 0 293.5 84.5t202 228t71.5 317.5z" />
    <glyph glyph-name="Ugrave" unicode="&#xd9;" horiz-adv-x="1595" 
d="M176 627v569q0 152 -15 261t-50 220h374q-35 -111 -50 -220t-15 -261v-571q0 -212 93.5 -322t262.5 -110q156 0 269.5 111t113.5 280v612q0 152 -15 261t-50 220h374q-35 -111 -50 -220t-15 -261v-715q0 -152 15 -261t50 -220h-315q14 49 14 168q-259 -182 -487 -182
q-245 0 -374.5 163.5t-129.5 477.5zM518 2122h248q21 -196 119 -375h-97q-181 127 -270 375z" />
    <glyph glyph-name="Uacute" unicode="&#xda;" horiz-adv-x="1595" 
d="M176 627v569q0 152 -15 261t-50 220h374q-35 -111 -50 -220t-15 -261v-571q0 -212 93.5 -322t262.5 -110q156 0 269.5 111t113.5 280v612q0 152 -15 261t-50 220h374q-35 -111 -50 -220t-15 -261v-715q0 -152 15 -261t50 -220h-315q14 49 14 168q-259 -182 -487 -182
q-245 0 -374.5 163.5t-129.5 477.5zM748 1747h-97q98 179 119 375h248q-89 -248 -270 -375z" />
    <glyph glyph-name="Ucircumflex" unicode="&#xdb;" horiz-adv-x="1595" 
d="M176 627v569q0 152 -15 261t-50 220h374q-35 -111 -50 -220t-15 -261v-571q0 -212 93.5 -322t262.5 -110q156 0 269.5 111t113.5 280v612q0 152 -15 261t-50 220h374q-35 -111 -50 -220t-15 -261v-715q0 -152 15 -261t50 -220h-315q14 49 14 168q-259 -182 -487 -182
q-245 0 -374.5 163.5t-129.5 477.5zM1090 1747h-97q-129 95 -215 227q-86 -132 -215 -227h-96q122 166 166 375h293q48 -216 164 -375z" />
    <glyph glyph-name="Udieresis" unicode="&#xdc;" horiz-adv-x="1595" 
d="M176 627v569q0 152 -15 261t-50 220h374q-35 -111 -50 -220t-15 -261v-571q0 -212 93.5 -322t262.5 -110q156 0 269.5 111t113.5 280v612q0 152 -15 261t-50 220h374q-35 -111 -50 -220t-15 -261v-715q0 -152 15 -261t50 -220h-315q14 49 14 168q-259 -182 -487 -182
q-245 0 -374.5 163.5t-129.5 477.5zM653 1786h-190q72 159 78 293h219q-18 -148 -107 -293zM1069 1786h-190q71 157 77 293h220q-18 -148 -107 -293z" />
    <glyph glyph-name="Yacute" unicode="&#xdd;" horiz-adv-x="1247" 
d="M950 1677h353v-6q-75 -81 -166 -244l-377 -663v-283q0 -152 15 -261t50 -220h-374q35 111 50 220t15 261v267l-379 659q-58 102 -102 162t-90 102v6h387q-4 -28 -4 -45q0 -86 67 -205l248 -436l248 443q63 114 63 208q0 15 -4 35zM594 1747h-96q97 177 118 375h248
q-89 -248 -270 -375z" />
    <glyph glyph-name="Thorn" unicode="&#xde;" horiz-adv-x="1187" 
d="M1128 848q0 -230 -165 -367t-441 -137q-32 0 -82 4q9 -182 62 -348h-375q36 111 51 220.5t15 260.5v715q0 151 -15 260.5t-51 220.5h375q-50 -155 -62 -325h43q154 0 277.5 -39t203 -107t122 -159.5t42.5 -198.5zM872 844q0 156 -117.5 257t-318.5 107v-12v-715v-41
q200 20 318 131t118 273z" />
    <glyph glyph-name="germandbls" unicode="&#xdf;" horiz-adv-x="1243" 
d="M1171 545q0 -121 -40.5 -225.5t-109 -175t-160 -110.5t-193.5 -40q-41 0 -72 8l-68 184l4 4q69 -16 123 -16q122 0 189 73.5t67 209.5q0 179 -101 281t-280 102q-38 0 -65 -6l-4 4l84 176q276 48 276 280q0 96 -59.5 159t-159.5 63q-201 0 -201 -254v-945
q0 -95 13 -166.5t45 -150.5h-346q55 142 55 317v895q0 237 119 359.5t356 122.5q192 0 318 -103.5t126 -259.5q0 -100 -65 -184.5t-184 -140.5q139 -20 236 -141t97 -320z" />
    <glyph glyph-name="agrave" unicode="&#xe0;" horiz-adv-x="1015" 
d="M860 819v-502q0 -99 14 -168.5t50 -148.5h-297v131q-100 -59 -195 -135q-10 -2 -45 -2q-163 0 -253.5 78t-90.5 213q0 96 60.5 168.5t209.5 142.5q69 34 314 137v47q0 102 -58.5 159.5t-158.5 57.5q-131 0 -256 -79l-4 4l81 225q112 37 242 37q190 0 288.5 -93t98.5 -272
zM627 520h-295q-39 -68 -39 -151q0 -183 256 -183q37 0 78 9v325zM270 1671h248q21 -196 119 -375h-96q-182 128 -271 375z" />
    <glyph glyph-name="aacute" unicode="&#xe1;" horiz-adv-x="1015" 
d="M860 819v-502q0 -99 14 -168.5t50 -148.5h-297v131q-100 -59 -195 -135q-10 -2 -45 -2q-163 0 -253.5 78t-90.5 213q0 96 60.5 168.5t209.5 142.5q69 34 314 137v47q0 102 -58.5 159.5t-158.5 57.5q-131 0 -256 -79l-4 4l81 225q112 37 242 37q190 0 288.5 -93t98.5 -272
zM627 520h-295q-39 -68 -39 -151q0 -183 256 -183q37 0 78 9v325zM479 1296h-96q98 179 119 375h248q-89 -247 -271 -375z" />
    <glyph glyph-name="acircumflex" unicode="&#xe2;" horiz-adv-x="1015" 
d="M860 819v-502q0 -99 14 -168.5t50 -148.5h-297v131q-100 -59 -195 -135q-10 -2 -45 -2q-163 0 -253.5 78t-90.5 213q0 96 60.5 168.5t209.5 142.5q69 34 314 137v47q0 102 -58.5 159.5t-158.5 57.5q-131 0 -256 -79l-4 4l81 225q112 37 242 37q190 0 288.5 -93t98.5 -272
zM627 520h-295q-39 -68 -39 -151q0 -183 256 -183q37 0 78 9v325zM821 1296h-96q-128 94 -215 228q-87 -134 -215 -228h-96q122 166 166 375h292q48 -216 164 -375z" />
    <glyph glyph-name="atilde" unicode="&#xe3;" horiz-adv-x="1015" 
d="M860 819v-502q0 -99 14 -168.5t50 -148.5h-297v131q-100 -59 -195 -135q-10 -2 -45 -2q-163 0 -253.5 78t-90.5 213q0 96 60.5 168.5t209.5 142.5q69 34 314 137v47q0 102 -58.5 159.5t-158.5 57.5q-131 0 -256 -79l-4 4l81 225q112 37 242 37q190 0 288.5 -93t98.5 -272
zM627 520h-295q-39 -68 -39 -151q0 -183 256 -183q37 0 78 9v325zM678 1331q-47 0 -89 15.5t-102 50.5q-60 32 -88 42.5t-59 10.5q-43 0 -69.5 -25.5t-26.5 -64.5q0 -9 4 -29h-152q0 134 64 217.5t182 83.5q46 0 84.5 -14t108.5 -51q62 -32 89.5 -43t57.5 -11q42 0 69 26
t27 65q0 8 -4 28h152q0 -134 -65 -217.5t-183 -83.5z" />
    <glyph glyph-name="adieresis" unicode="&#xe4;" horiz-adv-x="1015" 
d="M860 819v-502q0 -99 14 -168.5t50 -148.5h-297v131q-100 -59 -195 -135q-10 -2 -45 -2q-163 0 -253.5 78t-90.5 213q0 96 60.5 168.5t209.5 142.5q69 34 314 137v47q0 102 -58.5 159.5t-158.5 57.5q-131 0 -256 -79l-4 4l81 225q112 37 242 37q190 0 288.5 -93t98.5 -272
zM627 520h-295q-39 -68 -39 -151q0 -183 256 -183q37 0 78 9v325zM385 1335h-190q71 157 77 293h220q-18 -148 -107 -293zM801 1335h-191q72 159 78 293h219q-18 -151 -106 -293z" />
    <glyph glyph-name="aring" unicode="&#xe5;" horiz-adv-x="1015" 
d="M860 819v-502q0 -99 14 -168.5t50 -148.5h-297v131q-100 -59 -195 -135q-10 -2 -45 -2q-163 0 -253.5 78t-90.5 213q0 96 60.5 168.5t209.5 142.5q69 34 314 137v47q0 102 -58.5 159.5t-158.5 57.5q-131 0 -256 -79l-4 4l81 225q112 37 242 37q190 0 288.5 -93t98.5 -272
zM627 520h-295q-39 -68 -39 -151q0 -183 256 -183q37 0 78 9v325zM713 1485q0 -86 -59 -145.5t-144 -59.5q-86 0 -145.5 59.5t-59.5 145.5q0 85 59.5 145t145.5 60q85 0 144 -60t59 -145zM397 1485q0 -47 33 -80t80 -33t80 33t33 80t-33 79.5t-80 32.5t-80 -32.5t-33 -79.5z
" />
    <glyph glyph-name="ae" unicode="&#xe6;" horiz-adv-x="1595" 
d="M1518 592l-656 -19q10 -202 101.5 -292.5t263.5 -90.5q136 0 264 84l4 -4l-68 -227q-123 -57 -270 -57q-297 0 -434 211q-130 -84 -270 -201q-14 -2 -66 -2q-163 0 -253.5 78t-90.5 213q0 95 60 165t210 140q69 34 314 137v53q0 102 -58.5 159.5t-158.5 57.5
q-131 0 -256 -79l-4 4l81 225q112 37 242 37q223 0 313 -140q134 140 336 140q194 0 298 -122t104 -341q0 -79 -6 -129zM866 721h461q0 149 -58.5 227t-170.5 78q-205 0 -232 -305zM627 195v325h-295q-39 -68 -39 -151q0 -183 256 -183q37 0 78 9z" />
    <glyph glyph-name="ccedilla" unicode="&#xe7;" horiz-adv-x="974" 
d="M643 -14h-18l-17 -56q96 -6 149.5 -57.5t53.5 -128.5q0 -82 -70 -136t-182 -54q-89 0 -180 24l39 109q57 -11 94 -11q133 0 133 78q0 35 -30.5 55.5t-84.5 20.5q-13 0 -67 -4l53 172q-192 34 -319 176q-125 143 -125 389q0 177 73.5 317.5t213 222t323.5 81.5
q116 0 248 -29l-21 -281l-6 -2q-77 74 -140 105t-132 31q-138 0 -222.5 -100t-84.5 -285q0 -210 110 -331.5t289 -121.5q113 0 217 43l4 -4l-113 -199q-79 -24 -188 -24z" />
    <glyph glyph-name="egrave" unicode="&#xe8;" horiz-adv-x="1054" 
d="M977 592l-653 -19q7 -195 98 -289t244 -94q136 0 297 113l4 -4l-80 -256q-120 -57 -271 -57q-260 0 -402 149t-142 434q0 143 39.5 260.5t108.5 194.5t162 118.5t200 41.5q194 0 297.5 -122t103.5 -341q0 -79 -6 -129zM326 721h460q0 149 -58.5 227t-170.5 78
q-204 0 -231 -305zM293 1671h248q21 -198 118 -375h-96q-181 127 -270 375z" />
    <glyph glyph-name="eacute" unicode="&#xe9;" horiz-adv-x="1054" 
d="M977 592l-653 -19q7 -195 98 -289t244 -94q136 0 297 113l4 -4l-80 -256q-120 -57 -271 -57q-260 0 -402 149t-142 434q0 143 39.5 260.5t108.5 194.5t162 118.5t200 41.5q194 0 297.5 -122t103.5 -341q0 -79 -6 -129zM326 721h460q0 149 -58.5 227t-170.5 78
q-204 0 -231 -305zM502 1296h-96q97 177 118 375h248q-89 -248 -270 -375z" />
    <glyph glyph-name="ecircumflex" unicode="&#xea;" horiz-adv-x="1054" 
d="M977 592l-653 -19q7 -195 98 -289t244 -94q136 0 297 113l4 -4l-80 -256q-120 -57 -271 -57q-260 0 -402 149t-142 434q0 143 39.5 260.5t108.5 194.5t162 118.5t200 41.5q194 0 297.5 -122t103.5 -341q0 -79 -6 -129zM326 721h460q0 149 -58.5 227t-170.5 78
q-204 0 -231 -305zM844 1296h-96q-130 95 -216 228q-87 -134 -215 -228h-96q122 166 166 375h293q48 -216 164 -375z" />
    <glyph glyph-name="edieresis" unicode="&#xeb;" horiz-adv-x="1054" 
d="M977 592l-653 -19q7 -195 98 -289t244 -94q136 0 297 113l4 -4l-80 -256q-120 -57 -271 -57q-260 0 -402 149t-142 434q0 143 39.5 260.5t108.5 194.5t162 118.5t200 41.5q194 0 297.5 -122t103.5 -341q0 -79 -6 -129zM326 721h460q0 149 -58.5 227t-170.5 78
q-204 0 -231 -305zM408 1335h-191q72 159 78 293h219q-18 -151 -106 -293zM823 1335h-190q72 159 78 293h219q-18 -148 -107 -293z" />
    <glyph glyph-name="igrave" unicode="&#xec;" horiz-adv-x="569" 
d="M410 848v-531q0 -95 12.5 -167t44.5 -150h-346q55 142 55 317v531q0 175 -55 317h346q-32 -78 -44.5 -150t-12.5 -167zM55 1671h248q21 -196 119 -375h-96q-182 128 -271 375z" />
    <glyph glyph-name="iacute" unicode="&#xed;" horiz-adv-x="569" 
d="M410 848v-531q0 -95 12.5 -167t44.5 -150h-346q55 142 55 317v531q0 175 -55 317h346q-32 -78 -44.5 -150t-12.5 -167zM264 1296h-96q98 179 119 375h248q-89 -247 -271 -375z" />
    <glyph glyph-name="icircumflex" unicode="&#xee;" horiz-adv-x="569" 
d="M410 848v-531q0 -95 12.5 -167t44.5 -150h-346q55 142 55 317v531q0 175 -55 317h346q-32 -78 -44.5 -150t-12.5 -167zM606 1296h-96q-128 94 -215 228q-87 -134 -215 -228h-96q122 166 166 375h292q48 -216 164 -375z" />
    <glyph glyph-name="idieresis" unicode="&#xef;" horiz-adv-x="569" 
d="M410 848v-531q0 -95 12.5 -167t44.5 -150h-346q55 142 55 317v531q0 175 -55 317h346q-32 -78 -44.5 -150t-12.5 -167zM201 1335h-191q72 159 78 293h219q-18 -151 -106 -293zM555 1335h-190q71 157 77 293h220q-18 -148 -107 -293z" />
    <glyph glyph-name="eth" unicode="&#xf0;" horiz-adv-x="1214" 
d="M1143 604q3 -165 -76.5 -310t-212.5 -228.5t-281 -79.5q-227 0 -364 149t-137 400q0 132 38 242.5t103 185.5t149 121.5t179 60.5l184 -68q-73 131 -178 256l-162 -49q-118 -34 -188 -80l-58 191q75 3 201 39l92 28q-102 108 -172 166v8l260 62q92 -85 158 -160l158 47
q118 34 188 80l57 -190q-74 -3 -200 -39l-93 -29q167 -206 261 -412.5t94 -390.5zM889 547q0 226 -139 489q-420 -64 -420 -481q0 -193 86 -295t243 -102q78 0 125 20q49 67 77 165.5t28 203.5z" />
    <glyph glyph-name="ntilde" unicode="&#xf1;" horiz-adv-x="1241" 
d="M176 317v533q0 173 -47 315h293q-12 -71 -12 -151v-62l184 195q73 37 178 37q138 0 224.5 -90.5t86.5 -251.5v-525q0 -172 56 -317h-346q32 78 44.5 150t12.5 167v467q0 81 -60.5 132t-154.5 51q-100 0 -225 -78v-572q0 -95 12.5 -167t44.5 -150h-346q55 142 55 317z
M791 1331q-47 0 -89 15.5t-102 50.5q-60 32 -88 42.5t-59 10.5q-44 0 -70.5 -25.5t-26.5 -64.5q0 -9 4 -29h-151q0 134 64 217.5t182 83.5q46 0 83.5 -14t108.5 -51q61 -32 89.5 -43t58.5 -11q42 0 69 26t27 65q0 8 -4 28h151q0 -134 -64.5 -217.5t-182.5 -83.5z" />
    <glyph glyph-name="ograve" unicode="&#xf2;" horiz-adv-x="1251" 
d="M1180 594q2 -100 -28.5 -195t-86.5 -169t-128 -130.5t-156.5 -86t-168.5 -27.5q-109 0 -205 35.5t-171.5 104t-119.5 179.5t-44 252q-3 134 46 254t129 201t182 127.5t204 44.5q118 0 218.5 -40.5t173.5 -115t114 -186.5t41 -248zM336 606q0 -190 91.5 -317t227.5 -142
q115 18 187.5 133.5t72.5 292.5q0 190 -90.5 317.5t-218.5 127.5q-117 0 -193.5 -111t-76.5 -301zM387 1671h248q21 -196 119 -375h-97q-181 127 -270 375z" />
    <glyph glyph-name="oacute" unicode="&#xf3;" horiz-adv-x="1251" 
d="M1180 594q2 -100 -28.5 -195t-86.5 -169t-128 -130.5t-156.5 -86t-168.5 -27.5q-109 0 -205 35.5t-171.5 104t-119.5 179.5t-44 252q-3 134 46 254t129 201t182 127.5t204 44.5q118 0 218.5 -40.5t173.5 -115t114 -186.5t41 -248zM336 606q0 -190 91.5 -317t227.5 -142
q115 18 187.5 133.5t72.5 292.5q0 190 -90.5 317.5t-218.5 127.5q-117 0 -193.5 -111t-76.5 -301zM596 1296h-96q97 177 118 375h248q-89 -248 -270 -375z" />
    <glyph glyph-name="ocircumflex" unicode="&#xf4;" horiz-adv-x="1251" 
d="M1180 594q2 -100 -28.5 -195t-86.5 -169t-128 -130.5t-156.5 -86t-168.5 -27.5q-109 0 -205 35.5t-171.5 104t-119.5 179.5t-44 252q-3 134 46 254t129 201t182 127.5t204 44.5q118 0 218.5 -40.5t173.5 -115t114 -186.5t41 -248zM336 606q0 -190 91.5 -317t227.5 -142
q115 18 187.5 133.5t72.5 292.5q0 190 -90.5 317.5t-218.5 127.5q-117 0 -193.5 -111t-76.5 -301zM938 1296h-96q-128 94 -215 228q-87 -134 -215 -228h-97q122 166 166 375h293q48 -216 164 -375z" />
    <glyph glyph-name="otilde" unicode="&#xf5;" horiz-adv-x="1251" 
d="M1180 594q2 -100 -28.5 -195t-86.5 -169t-128 -130.5t-156.5 -86t-168.5 -27.5q-109 0 -205 35.5t-171.5 104t-119.5 179.5t-44 252q-3 134 46 254t129 201t182 127.5t204 44.5q118 0 218.5 -40.5t173.5 -115t114 -186.5t41 -248zM336 606q0 -190 91.5 -317t227.5 -142
q115 18 187.5 133.5t72.5 292.5q0 190 -90.5 317.5t-218.5 127.5q-117 0 -193.5 -111t-76.5 -301zM795 1331q-47 0 -89 15.5t-102 50.5q-60 32 -88 42.5t-59 10.5q-44 0 -70.5 -25.5t-26.5 -64.5q0 -4 5 -29h-152q0 134 64 217.5t182 83.5q46 0 83.5 -14t108.5 -51
q61 -32 89.5 -43t58.5 -11q42 0 69 26t27 65q0 8 -4 28h151q0 -134 -64.5 -217.5t-182.5 -83.5z" />
    <glyph glyph-name="odieresis" unicode="&#xf6;" horiz-adv-x="1251" 
d="M1180 594q2 -100 -28.5 -195t-86.5 -169t-128 -130.5t-156.5 -86t-168.5 -27.5q-109 0 -205 35.5t-171.5 104t-119.5 179.5t-44 252q-3 134 46 254t129 201t182 127.5t204 44.5q118 0 218.5 -40.5t173.5 -115t114 -186.5t41 -248zM336 606q0 -190 91.5 -317t227.5 -142
q115 18 187.5 133.5t72.5 292.5q0 190 -90.5 317.5t-218.5 127.5q-117 0 -193.5 -111t-76.5 -301zM502 1335h-191q72 159 78 293h219q-18 -151 -106 -293zM918 1335h-191q72 159 78 293h219q-18 -151 -106 -293z" />
    <glyph glyph-name="divide" unicode="&#xf7;" horiz-adv-x="1208" 
d="M451 1067q0 68 43 111t112 43q67 0 109.5 -43t42.5 -111q0 -69 -42 -111.5t-110 -42.5q-69 0 -112 42.5t-43 111.5zM82 555v246q114 -21 287 -21h471q172 0 286 21v-246q-109 20 -286 20h-471q-178 0 -287 -20zM451 289q0 68 43 110.5t112 42.5q67 0 109.5 -42.5
t42.5 -110.5q0 -69 -42 -111.5t-110 -42.5q-69 0 -112 42.5t-43 111.5z" />
    <glyph glyph-name="oslash" unicode="&#xf8;" horiz-adv-x="1251" 
d="M1180 594q2 -100 -28.5 -195t-86.5 -169t-128 -130.5t-156.5 -86t-168.5 -27.5q-108 0 -209 37q-23 -56 -38 -109l-220 47q28 37 109 150q-182 155 -182 446q-3 134 46 254t129 201t182 127.5t204 44.5q126 0 217 -39q22 55 39 106l219 -47q-75 -97 -109 -151
q87 -76 134 -193.5t47 -265.5zM336 606q0 -155 61 -268q1 3 17 31l340 592l2 4q-71 53 -150 53q-117 0 -193.5 -111t-76.5 -301zM915 573q0 145 -55 258l-4 -6l-350 -610l-2 -4q70 -55 151 -64q115 18 187.5 133.5t72.5 292.5z" />
    <glyph glyph-name="ugrave" unicode="&#xf9;" horiz-adv-x="1220" 
d="M158 182v666q0 172 -56 317h347q-32 -79 -45 -150.5t-13 -166.5v-434q0 -110 47 -161.5t146 -51.5q110 0 227 65v582q0 175 -55 317h344q-56 -145 -56 -317v-531q0 -172 56 -317h-303q14 66 14 205l-152 -180q-93 -41 -210 -41q-213 0 -291 198zM356 1671h248
q21 -196 119 -375h-96q-182 128 -271 375z" />
    <glyph glyph-name="uacute" unicode="&#xfa;" horiz-adv-x="1220" 
d="M158 182v666q0 172 -56 317h347q-32 -79 -45 -150.5t-13 -166.5v-434q0 -110 47 -161.5t146 -51.5q110 0 227 65v582q0 175 -55 317h344q-56 -145 -56 -317v-531q0 -172 56 -317h-303q14 66 14 205l-152 -180q-93 -41 -210 -41q-213 0 -291 198zM565 1296h-96
q98 179 119 375h248q-89 -247 -271 -375z" />
    <glyph glyph-name="ucircumflex" unicode="&#xfb;" horiz-adv-x="1220" 
d="M158 182v666q0 172 -56 317h347q-32 -79 -45 -150.5t-13 -166.5v-434q0 -110 47 -161.5t146 -51.5q110 0 227 65v582q0 175 -55 317h344q-56 -145 -56 -317v-531q0 -172 56 -317h-303q14 66 14 205l-152 -180q-93 -41 -210 -41q-213 0 -291 198zM907 1296h-96
q-128 94 -215 228q-87 -134 -215 -228h-96q122 166 166 375h292q48 -216 164 -375z" />
    <glyph glyph-name="udieresis" unicode="&#xfc;" horiz-adv-x="1220" 
d="M158 182v666q0 172 -56 317h347q-32 -79 -45 -150.5t-13 -166.5v-434q0 -110 47 -161.5t146 -51.5q110 0 227 65v582q0 175 -55 317h344q-56 -145 -56 -317v-531q0 -172 56 -317h-303q14 66 14 205l-152 -180q-93 -41 -210 -41q-213 0 -291 198zM471 1335h-190
q71 157 77 293h220q-18 -148 -107 -293zM887 1335h-191q72 159 78 293h219q-18 -151 -106 -293z" />
    <glyph glyph-name="yacute" unicode="&#xfd;" horiz-adv-x="1060" 
d="M750 1165h337v-6q-82 -114 -169 -340l-334 -864q-63 -159 -113.5 -244.5t-103.5 -116.5h-267v9q92 82 175.5 203t142.5 268l-289 762q-73 197 -158 323v6h367q-16 -50 -16 -102q0 -84 32 -166l191 -502l184 475q37 104 37 199q0 50 -16 96zM502 1296h-96q97 177 118 375
h248q-89 -248 -270 -375z" />
    <glyph glyph-name="thorn" unicode="&#xfe;" horiz-adv-x="1253" 
d="M172 -88v1331q0 134 -12.5 218t-42.5 157l338 65q-49 -191 -49 -546v-207q86 129 171.5 190.5t182.5 61.5q77 2 150.5 -40t129.5 -115t89 -178.5t32 -221.5q2 -171 -61 -317t-185.5 -235.5t-279.5 -86.5q-124 0 -229 55v-131q0 -96 12.5 -168t44.5 -150h-346
q55 142 55 318zM905 553q0 200 -74.5 310t-203.5 110t-221 -117v-696q79 -29 145 -29q156 0 255 114t99 308z" />
    <glyph glyph-name="ydieresis" unicode="&#xff;" horiz-adv-x="1060" 
d="M750 1165h337v-6q-82 -114 -169 -340l-334 -864q-63 -159 -113.5 -244.5t-103.5 -116.5h-267v9q92 82 175.5 203t142.5 268l-289 762q-73 197 -158 323v6h367q-16 -50 -16 -102q0 -84 32 -166l191 -502l184 475q37 104 37 199q0 50 -16 96zM408 1335h-191q72 159 78 293
h219q-18 -151 -106 -293zM823 1335h-190q72 159 78 293h219q-18 -148 -107 -293z" />
    <glyph glyph-name="Amacron" unicode="&#x100;" horiz-adv-x="1656" 
d="M1712 6v-6h-407q6 21 6 55q0 110 -84 293l-80 184h-629l-90 -190q-86 -180 -86 -287q0 -19 4 -55h-401v6q111 135 239 387l668 1325h6l623 -1331q54 -120 105 -203.5t126 -177.5zM844 1221l-234 -496h451zM1184 2021v-211q-114 15 -287 15h-84q-173 0 -287 -15v211
q106 -14 287 -14h84q181 0 287 14z" />
    <glyph glyph-name="amacron" unicode="&#x101;" horiz-adv-x="1015" 
d="M860 819v-502q0 -99 14 -168.5t50 -148.5h-297v131q-100 -59 -195 -135q-10 -2 -45 -2q-163 0 -253.5 78t-90.5 213q0 96 60.5 168.5t209.5 142.5q69 34 314 137v47q0 102 -58.5 159.5t-158.5 57.5q-131 0 -256 -79l-4 4l81 225q112 37 242 37q190 0 288.5 -93t98.5 -272
zM627 520h-295q-39 -68 -39 -151q0 -183 256 -183q37 0 78 9v325zM838 1591v-211q-114 15 -287 15h-84q-173 0 -287 -15v211q106 -14 287 -14h84q181 0 287 14z" />
    <glyph glyph-name="Abreve" unicode="&#x102;" horiz-adv-x="1656" 
d="M1712 6v-6h-407q6 21 6 55q0 110 -84 293l-80 184h-629l-90 -190q-86 -180 -86 -287q0 -19 4 -55h-401v6q111 135 239 387l668 1325h6l623 -1331q54 -120 105 -203.5t126 -177.5zM844 1221l-234 -496h451zM854 1747q-145 0 -220 91.5t-75 258.5h111q0 -66 50 -106.5
t134 -40.5t135 40.5t51 106.5h111q0 -167 -75.5 -258.5t-221.5 -91.5z" />
    <glyph glyph-name="abreve" unicode="&#x103;" horiz-adv-x="1015" 
d="M860 819v-502q0 -99 14 -168.5t50 -148.5h-297v131q-100 -59 -195 -135q-10 -2 -45 -2q-163 0 -253.5 78t-90.5 213q0 96 60.5 168.5t209.5 142.5q69 34 314 137v47q0 102 -58.5 159.5t-158.5 57.5q-131 0 -256 -79l-4 4l81 225q112 37 242 37q190 0 288.5 -93t98.5 -272
zM627 520h-295q-39 -68 -39 -151q0 -183 256 -183q37 0 78 9v325zM508 1296q-145 0 -220 92t-75 259h111q0 -67 50 -107.5t134 -40.5t135 41t51 107h111q0 -167 -75.5 -259t-221.5 -92z" />
    <glyph glyph-name="Aogonek" unicode="&#x104;" horiz-adv-x="1656" 
d="M1712 0h-151q-64 -90 -84.5 -131.5t-20.5 -77.5q0 -67 62 -67q48 0 98 24l-43 -170q-59 -16 -117 -16q-104 0 -163.5 47.5t-59.5 124.5q0 62 48 124.5t157 141.5h-133q6 21 6 55q0 110 -84 293l-80 184h-629l-90 -190q-86 -180 -86 -287q0 -19 4 -55h-401v6
q111 135 239 387l668 1325h6l623 -1331q54 -120 105 -203.5t126 -177.5v-6zM844 1221l-234 -496h451z" />
    <glyph glyph-name="aogonek" unicode="&#x105;" horiz-adv-x="1015" 
d="M795 -276q49 0 98 24l-43 -170q-59 -16 -117 -16q-104 0 -163.5 47.5t-59.5 124.5q0 62 48 124.5t157 141.5h-88v131q-100 -59 -195 -135q-10 -2 -45 -2q-163 0 -253.5 78t-90.5 213q0 96 60.5 168.5t209.5 142.5q69 34 314 137v47q0 102 -58.5 159.5t-158.5 57.5
q-131 0 -256 -79l-4 4l81 225q112 37 242 37q190 0 288.5 -93t98.5 -272v-502q0 -99 14 -168.5t50 -148.5h-86q-64 -90 -84.5 -131.5t-20.5 -77.5q0 -67 62 -67zM627 195v325h-295q-39 -68 -39 -151q0 -183 256 -183q37 0 78 9z" />
    <glyph glyph-name="Cacute" unicode="&#x106;" horiz-adv-x="1546" 
d="M96 811q-3 195 72.5 363t205 283t304.5 179t369 62q205 0 393 -58v-258l-6 -2q-91 56 -208 87.5t-233 31.5q-129 2 -246 -48.5t-201 -138.5t-132.5 -212t-46.5 -262q-2 -135 43.5 -258t125 -211t191.5 -139t236 -48q151 0 286.5 49t225.5 131l6 -2l-15 -254
q-225 -126 -534 -126q-181 -2 -338.5 62t-267.5 175.5t-171.5 266t-58.5 327.5zM866 1747h-96q98 179 119 375h248q-89 -247 -271 -375z" />
    <glyph glyph-name="cacute" unicode="&#x107;" horiz-adv-x="974" 
d="M930 1155l-21 -281l-6 -2q-77 74 -140 105t-132 31q-138 0 -222.5 -100t-84.5 -285q0 -210 110 -331.5t289 -121.5q113 0 217 43l4 -4l-113 -199q-79 -24 -188 -24q-92 0 -175.5 21.5t-156 68t-125.5 113.5t-83.5 163t-30.5 211q0 177 73.5 317.5t213 222t323.5 81.5
q116 0 248 -29zM559 1296h-96q98 179 119 375h247q-89 -248 -270 -375z" />
    <glyph glyph-name="Ccircumflex" unicode="&#x108;" horiz-adv-x="1546" 
d="M96 811q-3 195 72.5 363t205 283t304.5 179t369 62q205 0 393 -58v-258l-6 -2q-91 56 -208 87.5t-233 31.5q-129 2 -246 -48.5t-201 -138.5t-132.5 -212t-46.5 -262q-2 -135 43.5 -258t125 -211t191.5 -139t236 -48q151 0 286.5 49t225.5 131l6 -2l-15 -254
q-225 -126 -534 -126q-181 -2 -338.5 62t-267.5 175.5t-171.5 266t-58.5 327.5zM1208 1747h-96q-129 95 -215 227q-86 -132 -215 -227h-96q122 166 166 375h292q48 -216 164 -375z" />
    <glyph glyph-name="ccircumflex" unicode="&#x109;" horiz-adv-x="974" 
d="M930 1155l-21 -281l-6 -2q-77 74 -140 105t-132 31q-138 0 -222.5 -100t-84.5 -285q0 -210 110 -331.5t289 -121.5q113 0 217 43l4 -4l-113 -199q-79 -24 -188 -24q-92 0 -175.5 21.5t-156 68t-125.5 113.5t-83.5 163t-30.5 211q0 177 73.5 317.5t213 222t323.5 81.5
q116 0 248 -29zM901 1296h-96q-128 94 -215 228q-87 -134 -215 -228h-96q121 164 165 375h293q48 -216 164 -375z" />
    <glyph glyph-name="Cdotaccent" unicode="&#x10a;" horiz-adv-x="1546" 
d="M96 811q-3 195 72.5 363t205 283t304.5 179t369 62q205 0 393 -58v-258l-6 -2q-91 56 -208 87.5t-233 31.5q-129 2 -246 -48.5t-201 -138.5t-132.5 -212t-46.5 -262q-2 -135 43.5 -258t125 -211t191.5 -139t236 -48q151 0 286.5 49t225.5 131l6 -2l-15 -254
q-225 -126 -534 -126q-181 -2 -338.5 62t-267.5 175.5t-171.5 266t-58.5 327.5zM1061 1935q0 -68 -47.5 -115.5t-114.5 -47.5q-69 0 -117.5 47.5t-48.5 115.5t48.5 116t117.5 48q67 0 114.5 -48t47.5 -116z" />
    <glyph glyph-name="cdotaccent" unicode="&#x10b;" horiz-adv-x="974" 
d="M930 1155l-21 -281l-6 -2q-77 74 -140 105t-132 31q-138 0 -222.5 -100t-84.5 -285q0 -210 110 -331.5t289 -121.5q113 0 217 43l4 -4l-113 -199q-79 -24 -188 -24q-92 0 -175.5 21.5t-156 68t-125.5 113.5t-83.5 163t-30.5 211q0 177 73.5 317.5t213 222t323.5 81.5
q116 0 248 -29zM754 1485q0 -68 -47.5 -116t-114.5 -48q-69 0 -117.5 48t-48.5 116t48.5 116t117.5 48q67 0 114.5 -48t47.5 -116z" />
    <glyph glyph-name="Ccaron" unicode="&#x10c;" horiz-adv-x="1546" 
d="M96 811q-3 195 72.5 363t205 283t304.5 179t369 62q205 0 393 -58v-258l-6 -2q-91 56 -208 87.5t-233 31.5q-129 2 -246 -48.5t-201 -138.5t-132.5 -212t-46.5 -262q-2 -135 43.5 -258t125 -211t191.5 -139t236 -48q151 0 286.5 49t225.5 131l6 -2l-15 -254
q-225 -126 -534 -126q-181 -2 -338.5 62t-267.5 175.5t-171.5 266t-58.5 327.5zM1112 2122h96q-122 -166 -166 -375h-292q-48 216 -164 375h96q128 -94 215 -228q87 134 215 228z" />
    <glyph glyph-name="ccaron" unicode="&#x10d;" horiz-adv-x="974" 
d="M930 1155l-21 -281l-6 -2q-77 74 -140 105t-132 31q-138 0 -222.5 -100t-84.5 -285q0 -210 110 -331.5t289 -121.5q113 0 217 43l4 -4l-113 -199q-79 -24 -188 -24q-92 0 -175.5 21.5t-156 68t-125.5 113.5t-83.5 163t-30.5 211q0 177 73.5 317.5t213 222t323.5 81.5
q116 0 248 -29zM805 1671h96q-122 -166 -166 -375h-293q-48 218 -163 375h96q129 -95 215 -227q86 132 215 227z" />
    <glyph glyph-name="Dcaron" unicode="&#x10e;" horiz-adv-x="1570" 
d="M193 481v715q0 144 -19 258q-14 104 -59 221q150 15 274 15q257 0 462.5 -60t341.5 -170t208 -264.5t72 -343.5q2 -156 -46.5 -291.5t-139.5 -238t-216 -176t-279 -110.5t-325 -36h-340q36 111 51 220.5t15 260.5zM1190 831q0 303 -200.5 491.5t-540.5 203.5
q-13 -130 -13 -301v-736q0 -182 17 -325q339 15 538 184t199 483zM961 2122h96q-122 -166 -166 -375h-293q-48 216 -164 375h96q128 -94 215 -228q86 133 216 228z" />
    <glyph glyph-name="dcaron" unicode="&#x10f;" horiz-adv-x="1298" 
d="M72 502q-3 121 46.5 245.5t132 220.5t195.5 156t228 56q80 0 145 -27v90q0 134 -12.5 218t-42.5 157l334 65q-45 -205 -45 -546v-820q0 -175 55 -317h-289v164q-88 -100 -155 -139t-162 -39q-119 -3 -219.5 67.5t-156.5 190t-54 258.5zM1231 1255h-96q54 185 69 416h228
q-68 -271 -201 -416zM819 227v680q-102 99 -250 99q-98 0 -163 -56q-80 -151 -80 -354q0 -193 97 -303.5t259 -110.5q75 0 137 45z" />
    <glyph glyph-name="Dcroat" unicode="&#x110;" horiz-adv-x="1570" 
d="M1473 852q2 -156 -46.5 -291.5t-139.5 -238t-216 -176t-279 -110.5t-325 -36h-340q36 111 51 220.5t15 260.5v273q-122 -3 -213 -17v201q84 -13 213 -16v274q0 144 -19 258q-14 104 -59 221q150 15 274 15q257 0 462.5 -60t341.5 -170t208 -264.5t72 -343.5zM1190 831
q0 303 -200.5 491.5t-540.5 203.5q-13 -130 -13 -301v-303h107q160 0 266 16v-201q-112 17 -266 17h-107v-265q0 -182 17 -325q339 15 538 184t199 483z" />
    <glyph glyph-name="dslash" unicode="&#x111;" horiz-adv-x="1224" 
d="M1053 1137v-820q0 -175 55 -317h-289v164q-88 -100 -155 -139t-162 -39q-121 0 -220.5 67t-154.5 180t-55 248q-3 117 46.5 238t132 214.5t195.5 151.5t228 54q80 0 145 -27v131q0 68 -2 86h-104q-161 0 -267 -16v178q106 -16 267 -16h92q-14 77 -41 143l334 65
q-20 -87 -31 -208q125 3 209 16v-178q-91 13 -219 16q-4 -164 -4 -192zM819 227v639q-102 99 -250 99q-98 0 -163 -56q-80 -139 -80 -334q0 -183 97 -288t259 -105q75 0 137 45z" />
    <glyph glyph-name="Emacron" unicode="&#x112;" horiz-adv-x="1132" 
d="M193 481v715q0 151 -15 260.5t-51 220.5h907l-121 -264q-195 98 -477 98v-573h539l-144 -242q-168 63 -395 72v-604q203 0 367 27.5t323 87.5l4 -5l-118 -274h-885q36 111 51 220.5t15 260.5zM909 2021v-211q-114 15 -286 15h-84q-173 0 -287 -15v211q106 -14 287 -14h84
q180 0 286 14z" />
    <glyph glyph-name="emacron" unicode="&#x113;" horiz-adv-x="1054" 
d="M977 592l-653 -19q7 -195 98 -289t244 -94q136 0 297 113l4 -4l-80 -256q-120 -57 -271 -57q-260 0 -402 149t-142 434q0 143 39.5 260.5t108.5 194.5t162 118.5t200 41.5q194 0 297.5 -122t103.5 -341q0 -79 -6 -129zM326 721h460q0 149 -58.5 227t-170.5 78
q-204 0 -231 -305zM860 1591v-211q-114 15 -287 15h-84q-172 0 -286 -15v211q106 -14 286 -14h84q181 0 287 14z" />
    <glyph glyph-name="Ebreve" unicode="&#x114;" horiz-adv-x="1132" 
d="M193 481v715q0 151 -15 260.5t-51 220.5h907l-121 -264q-195 98 -477 98v-573h539l-144 -242q-168 63 -395 72v-604q203 0 367 27.5t323 87.5l4 -5l-118 -274h-885q36 111 51 220.5t15 260.5zM580 1747q-145 0 -220 91.5t-75 258.5h110q0 -66 50.5 -106.5t134.5 -40.5
t135 40.5t51 106.5h111q0 -167 -75.5 -258.5t-221.5 -91.5z" />
    <glyph glyph-name="ebreve" unicode="&#x115;" horiz-adv-x="1054" 
d="M977 592l-653 -19q7 -195 98 -289t244 -94q136 0 297 113l4 -4l-80 -256q-120 -57 -271 -57q-260 0 -402 149t-142 434q0 143 39.5 260.5t108.5 194.5t162 118.5t200 41.5q194 0 297.5 -122t103.5 -341q0 -79 -6 -129zM326 721h460q0 149 -58.5 227t-170.5 78
q-204 0 -231 -305zM530 1296q-145 0 -219.5 92t-74.5 259h110q0 -67 50 -107.5t134 -40.5t135.5 41t51.5 107h110q0 -167 -75.5 -259t-221.5 -92z" />
    <glyph glyph-name="Edotaccent" unicode="&#x116;" horiz-adv-x="1132" 
d="M193 481v715q0 151 -15 260.5t-51 220.5h907l-121 -264q-195 98 -477 98v-573h539l-144 -242q-168 63 -395 72v-604q203 0 367 27.5t323 87.5l4 -5l-118 -274h-885q36 111 51 220.5t15 260.5zM745 1935q0 -68 -47 -115.5t-114 -47.5q-69 0 -117.5 47.5t-48.5 115.5
t48.5 116t117.5 48q67 0 114 -48t47 -116z" />
    <glyph glyph-name="edotaccent" unicode="&#x117;" horiz-adv-x="1054" 
d="M977 592l-653 -19q7 -195 98 -289t244 -94q136 0 297 113l4 -4l-80 -256q-120 -57 -271 -57q-260 0 -402 149t-142 434q0 143 39.5 260.5t108.5 194.5t162 118.5t200 41.5q194 0 297.5 -122t103.5 -341q0 -79 -6 -129zM326 721h460q0 149 -58.5 227t-170.5 78
q-204 0 -231 -305zM696 1485q0 -68 -47 -116t-114 -48q-69 0 -117.5 48t-48.5 116t48.5 116t117.5 48q67 0 114 -48t47 -116z" />
    <glyph glyph-name="Eogonek" unicode="&#x118;" horiz-adv-x="1132" 
d="M969 -276q49 0 98 24l-43 -170q-59 -16 -117 -16q-104 0 -163.5 47.5t-59.5 124.5q0 62 48 124.5t157 141.5h-762q36 111 51 220.5t15 260.5v715q0 151 -15 260.5t-51 220.5h907l-121 -264q-195 98 -477 98v-573h539l-144 -242q-168 63 -395 72v-604q203 0 367 27.5
t323 87.5l4 -5l-118 -274q-64 -90 -84.5 -131.5t-20.5 -77.5q0 -67 62 -67z" />
    <glyph glyph-name="eogonek" unicode="&#x119;" horiz-adv-x="1054" 
d="M977 592l-653 -19q7 -195 98 -289t244 -94q136 0 297 113l4 -4l-80 -256q-107 -129 -127 -160q-29 -53 -29 -92q0 -67 62 -67q49 0 98 24l-43 -170q-59 -16 -117 -16q-104 0 -163.5 47.5t-59.5 124.5q0 62 44 121t148 137q-44 -6 -84 -6q-260 0 -402 149t-142 434
q0 143 39.5 260.5t108.5 194.5t162 118.5t200 41.5q194 0 297.5 -122t103.5 -341q0 -79 -6 -129zM326 721h460q0 149 -58.5 227t-170.5 78q-204 0 -231 -305z" />
    <glyph glyph-name="Ecaron" unicode="&#x11a;" horiz-adv-x="1132" 
d="M193 481v715q0 151 -15 260.5t-51 220.5h907l-121 -264q-195 98 -477 98v-573h539l-144 -242q-168 63 -395 72v-604q203 0 367 27.5t323 87.5l4 -5l-118 -274h-885q36 111 51 220.5t15 260.5zM797 2122h96q-122 -166 -166 -375h-293q-48 216 -164 375h97
q128 -94 215 -228q87 134 215 228z" />
    <glyph glyph-name="ecaron" unicode="&#x11b;" horiz-adv-x="1054" 
d="M977 592l-653 -19q7 -195 98 -289t244 -94q136 0 297 113l4 -4l-80 -256q-120 -57 -271 -57q-260 0 -402 149t-142 434q0 143 39.5 260.5t108.5 194.5t162 118.5t200 41.5q194 0 297.5 -122t103.5 -341q0 -79 -6 -129zM326 721h460q0 149 -58.5 227t-170.5 78
q-204 0 -231 -305zM748 1671h96q-122 -166 -166 -375h-293q-48 216 -164 375h96q129 -95 215 -227q85 131 216 227z" />
    <glyph glyph-name="Gcircumflex" unicode="&#x11c;" horiz-adv-x="1730" 
d="M1493 1647v-267l-6 -2q-236 133 -481 133q-136 0 -254 -48t-203 -133.5t-133.5 -209.5t-48.5 -270q-2 -146 48.5 -272.5t139 -215.5t213 -139t266.5 -49q174 0 307 59v156q0 268 -110 457h401q-47 -118 -47 -299v-189q0 -172 31 -270q-276 -108 -590 -108
q-187 -1 -342 42t-263 118.5t-182 180t-109 225t-34 253.5q-2 193 67 361.5t192 287.5t298 186t377 64q249 0 463 -51zM1260 1747h-97q-129 95 -215 227q-86 -132 -215 -227h-96q122 166 166 375h293q48 -216 164 -375z" />
    <glyph glyph-name="gcircumflex" unicode="&#x11d;" horiz-adv-x="1134" 
d="M1087 1186v-234q-109 15 -206 49q86 -106 86 -223q0 -166 -125 -271.5t-324 -105.5q-52 0 -117 7q-55 -55 -55 -103q0 -67 111 -67l200 2q41 2 177 2q85 -15 157 -90q72 -72 72 -162q0 -71 -36.5 -132.5t-111.5 -125.5q-186 -154 -440 -154q-187 0 -291 67.5t-104 184.5
q0 36 12 66q142 86 221 165q-98 6 -151 40t-53 89q0 39 16.5 65.5t58.5 55.5l166 113q-132 64 -197 145.5t-65 188.5q0 181 126.5 303.5t322.5 122.5q137 0 239 -60q174 12 311 62zM735 741q0 132 -66 220t-169 88q-81 0 -131 -67t-50 -173q0 -129 65.5 -207t174.5 -78
q82 0 129 57.5t47 159.5zM647 63l-149 -2q-31 -2 -119 -2q-35 -41 -48.5 -71.5t-13.5 -67.5q0 -77 58 -119.5t176 -42.5q129 0 233 37q45 59 45 139q0 129 -182 129zM889 1296h-96q-128 94 -215 228q-86 -133 -216 -228h-96q122 166 166 375h293q48 -216 164 -375z" />
    <glyph glyph-name="Gbreve" unicode="&#x11e;" horiz-adv-x="1730" 
d="M1493 1647v-267l-6 -2q-236 133 -481 133q-136 0 -254 -48t-203 -133.5t-133.5 -209.5t-48.5 -270q-2 -146 48.5 -272.5t139 -215.5t213 -139t266.5 -49q174 0 307 59v156q0 268 -110 457h401q-47 -118 -47 -299v-189q0 -172 31 -270q-276 -108 -590 -108
q-187 -1 -342 42t-263 118.5t-182 180t-109 225t-34 253.5q-2 193 67 361.5t192 287.5t298 186t377 64q249 0 463 -51zM946 1747q-145 0 -220 91.5t-75 258.5h111q0 -66 50 -106.5t134 -40.5q85 0 136 40.5t51 106.5h110q0 -167 -75.5 -258.5t-221.5 -91.5z" />
    <glyph glyph-name="gbreve" unicode="&#x11f;" horiz-adv-x="1134" 
d="M1087 1186v-234q-109 15 -206 49q86 -106 86 -223q0 -166 -125 -271.5t-324 -105.5q-52 0 -117 7q-55 -55 -55 -103q0 -67 111 -67l200 2q41 2 177 2q85 -15 157 -90q72 -72 72 -162q0 -71 -36.5 -132.5t-111.5 -125.5q-186 -154 -440 -154q-187 0 -291 67.5t-104 184.5
q0 36 12 66q142 86 221 165q-98 6 -151 40t-53 89q0 39 16.5 65.5t58.5 55.5l166 113q-132 64 -197 145.5t-65 188.5q0 181 126.5 303.5t322.5 122.5q137 0 239 -60q174 12 311 62zM735 741q0 132 -66 220t-169 88q-81 0 -131 -67t-50 -173q0 -129 65.5 -207t174.5 -78
q82 0 129 57.5t47 159.5zM647 63l-149 -2q-31 -2 -119 -2q-35 -41 -48.5 -71.5t-13.5 -67.5q0 -77 58 -119.5t176 -42.5q129 0 233 37q45 59 45 139q0 129 -182 129zM575 1296q-145 0 -219.5 92t-74.5 259h110q0 -67 50 -107.5t134 -40.5t135.5 41t51.5 107h110
q0 -167 -75.5 -259t-221.5 -92z" />
    <glyph glyph-name="Gdotaccent" unicode="&#x120;" horiz-adv-x="1730" 
d="M1493 1647v-267l-6 -2q-236 133 -481 133q-136 0 -254 -48t-203 -133.5t-133.5 -209.5t-48.5 -270q-2 -146 48.5 -272.5t139 -215.5t213 -139t266.5 -49q174 0 307 59v156q0 268 -110 457h401q-47 -118 -47 -299v-189q0 -172 31 -270q-276 -108 -590 -108
q-187 -1 -342 42t-263 118.5t-182 180t-109 225t-34 253.5q-2 193 67 361.5t192 287.5t298 186t377 64q249 0 463 -51zM1112 1935q0 -68 -47.5 -115.5t-114.5 -47.5q-69 0 -117.5 47.5t-48.5 115.5t48.5 116t117.5 48q67 0 114.5 -48t47.5 -116z" />
    <glyph glyph-name="gdotaccent" unicode="&#x121;" horiz-adv-x="1134" 
d="M1087 1186v-234q-109 15 -206 49q86 -106 86 -223q0 -166 -125 -271.5t-324 -105.5q-52 0 -117 7q-55 -55 -55 -103q0 -67 111 -67l200 2q41 2 177 2q85 -15 157 -90q72 -72 72 -162q0 -71 -36.5 -132.5t-111.5 -125.5q-186 -154 -440 -154q-187 0 -291 67.5t-104 184.5
q0 36 12 66q142 86 221 165q-98 6 -151 40t-53 89q0 39 16.5 65.5t58.5 55.5l166 113q-132 64 -197 145.5t-65 188.5q0 181 126.5 303.5t322.5 122.5q137 0 239 -60q174 12 311 62zM735 741q0 132 -66 220t-169 88q-81 0 -131 -67t-50 -173q0 -129 65.5 -207t174.5 -78
q82 0 129 57.5t47 159.5zM647 63l-149 -2q-31 -2 -119 -2q-35 -41 -48.5 -71.5t-13.5 -67.5q0 -77 58 -119.5t176 -42.5q129 0 233 37q45 59 45 139q0 129 -182 129zM741 1485q0 -68 -47 -116t-114 -48q-69 0 -117.5 48t-48.5 116t48.5 116t117.5 48q67 0 114 -48t47 -116z
" />
    <glyph glyph-name="Gcommaaccent" unicode="&#x122;" horiz-adv-x="1730" 
d="M1493 1647v-267l-6 -2q-236 133 -481 133q-136 0 -254 -48t-203 -133.5t-133.5 -209.5t-48.5 -270q-2 -146 48.5 -272.5t139 -215.5t213 -139t266.5 -49q174 0 307 59v156q0 268 -110 457h401q-47 -118 -47 -299v-189q0 -172 31 -270q-276 -108 -590 -108
q-187 -1 -342 42t-263 118.5t-182 180t-109 225t-34 253.5q-2 193 67 361.5t192 287.5t298 186t377 64q249 0 463 -51zM895 -438h-178q96 131 96 233q0 65 -29 121h285q-18 -97 -58.5 -177.5t-115.5 -176.5z" />
    <glyph glyph-name="gcommaaccent" unicode="&#x123;" horiz-adv-x="1134" 
d="M1087 1186v-234q-109 15 -206 49q86 -106 86 -223q0 -166 -125 -271.5t-324 -105.5q-52 0 -117 7q-55 -55 -55 -103q0 -67 111 -67l200 2q41 2 177 2q85 -15 157 -90q72 -72 72 -162q0 -71 -36.5 -132.5t-111.5 -125.5q-186 -154 -440 -154q-187 0 -291 67.5t-104 184.5
q0 36 12 66q142 86 221 165q-98 6 -151 40t-53 89q0 39 16.5 65.5t58.5 55.5l166 113q-132 64 -197 145.5t-65 188.5q0 181 126.5 303.5t322.5 122.5q137 0 239 -60q174 12 311 62zM735 741q0 132 -66 220t-169 88q-81 0 -131 -67t-50 -173q0 -129 65.5 -207t174.5 -78
q82 0 129 57.5t47 159.5zM647 63l-149 -2q-31 -2 -119 -2q-35 -41 -48.5 -71.5t-13.5 -67.5q0 -77 58 -119.5t176 -42.5q129 0 233 37q45 59 45 139q0 129 -182 129zM526 1636h179q-97 -132 -97 -233q0 -65 29 -121h-285q18 97 58.5 177.5t115.5 176.5z" />
    <glyph glyph-name="Hcircumflex" unicode="&#x124;" horiz-adv-x="1611" 
d="M1419 1196v-715q0 -151 15 -260.5t51 -220.5h-375q36 111 51 220.5t15 260.5v260h-740v-260q0 -151 15 -260.5t51 -220.5h-375q36 111 51 220.5t15 260.5v715q0 151 -15 260.5t-51 220.5h375q-36 -111 -51 -220.5t-15 -260.5v-256h740v256q0 151 -15 260.5t-51 220.5h375
q-36 -111 -51 -220.5t-15 -260.5zM1118 1747h-96q-129 95 -215 227q-86 -132 -215 -227h-96q122 166 166 375h292q48 -216 164 -375z" />
    <glyph glyph-name="hcircumflex" unicode="&#x125;" horiz-adv-x="1236" 
d="M172 317v926q0 134 -12.5 218t-42.5 157l338 65q-49 -191 -49 -546v-185q111 139 184 183q76 49 178 49q138 0 224.5 -90.5t86.5 -251.5v-525q0 -172 56 -317h-347q32 79 45 150.5t13 166.5v406q0 120 -57 182t-158 62q-100 0 -225 -78v-572q0 -95 12.5 -167t44.5 -150
h-346q55 142 55 317zM840 1747h-97q-129 95 -215 227q-86 -132 -215 -227h-96q122 166 166 375h293q48 -216 164 -375z" />
    <glyph glyph-name="Hbar" unicode="&#x126;" horiz-adv-x="1611" 
d="M1419 1196v-715q0 -151 15 -260.5t51 -220.5h-375q36 111 51 220.5t15 260.5v260h-740v-260q0 -151 15 -260.5t51 -220.5h-375q36 111 51 220.5t15 260.5v715q0 151 -15 260.5t-51 220.5h375q-37 -110 -53 -241h714q-16 131 -53 241h375q-36 -111 -51 -220.5t-15 -260.5z
M436 1196v-256h740v256v72h-740v-72z" />
    <glyph glyph-name="hbar" unicode="&#x127;" horiz-adv-x="1236" 
d="M846 317v365q0 120 -57 182t-158 62q-100 0 -225 -78v-531q0 -95 12.5 -167t44.5 -150h-346q55 142 55 317v926q0 68 -2 86q-128 -3 -219 -16v178q84 -13 207 -16q-14 77 -41 143l338 65q-18 -74 -33 -208h92q160 0 266 16v-178q-106 16 -266 16h-104q-4 -164 -4 -192
v-226q111 139 184 183q76 49 178 49q138 0 224.5 -90.5t86.5 -251.5v-484q0 -172 56 -317h-347q32 79 45 150.5t13 166.5z" />
    <glyph glyph-name="Itilde" unicode="&#x128;" horiz-adv-x="628" 
d="M193 481v715q0 151 -15 260.5t-51 220.5h375q-36 -111 -51 -220.5t-15 -260.5v-715q0 -151 15 -260.5t51 -220.5h-375q36 111 51 220.5t15 260.5zM483 1782q-47 0 -88.5 15t-101.5 50q-61 32 -89.5 43t-58.5 11q-43 0 -69.5 -26t-26.5 -65q0 -8 4 -28h-151
q0 134 63.5 217.5t181.5 83.5q45 0 83 -14t110 -52q60 -32 88 -42.5t59 -10.5q42 0 69.5 25.5t27.5 64.5q0 9 -4 29h151q0 -134 -65 -217.5t-183 -83.5z" />
    <glyph glyph-name="itilde" unicode="&#x129;" horiz-adv-x="569" 
d="M410 848v-531q0 -95 12.5 -167t44.5 -150h-346q55 142 55 317v531q0 175 -55 317h346q-32 -78 -44.5 -150t-12.5 -167zM414 1331q-42 0 -75 16t-79 54q-32 27 -51.5 38t-42.5 11q-32 0 -51 -25.5t-19 -64.5q0 -9 4 -29h-135q0 134 56 217.5t157 83.5q42 0 75 -15.5
t79 -53.5q33 -28 52 -39t42 -11q32 0 51 26t19 65q0 8 -4 28h135q0 -134 -56 -217.5t-157 -83.5z" />
    <glyph glyph-name="Imacron" unicode="&#x12a;" horiz-adv-x="628" 
d="M193 481v715q0 151 -15 260.5t-51 220.5h375q-36 -111 -51 -220.5t-15 -260.5v-715q0 -151 15 -260.5t51 -220.5h-375q36 111 51 220.5t15 260.5zM643 2021v-211q-114 15 -287 15h-84q-172 0 -286 -15v211q106 -14 286 -14h84q181 0 287 14z" />
    <glyph glyph-name="imacron" unicode="&#x12b;" horiz-adv-x="569" 
d="M410 848v-531q0 -95 12.5 -167t44.5 -150h-346q55 142 55 317v531q0 175 -55 317h346q-32 -78 -44.5 -150t-12.5 -167zM582 1591v-211q-102 15 -267 15h-43q-164 0 -266 -15v211q95 -14 266 -14h43q172 0 267 14z" />
    <glyph glyph-name="Ibreve" unicode="&#x12c;" horiz-adv-x="628" 
d="M193 481v715q0 151 -15 260.5t-51 220.5h375q-36 -111 -51 -220.5t-15 -260.5v-715q0 -151 15 -260.5t51 -220.5h-375q36 111 51 220.5t15 260.5zM313 1747q-145 0 -220 91.5t-75 258.5h111q0 -66 50 -106.5t134 -40.5q85 0 136 40.5t51 106.5h110q0 -167 -75.5 -258.5
t-221.5 -91.5z" />
    <glyph glyph-name="ibreve" unicode="&#x12d;" horiz-adv-x="569" 
d="M410 848v-531q0 -95 12.5 -167t44.5 -150h-346q55 142 55 317v531q0 175 -55 317h346q-32 -78 -44.5 -150t-12.5 -167zM293 1296q-145 0 -220 92t-75 259h111q0 -67 50 -107.5t134 -40.5t135 41t51 107h111q0 -167 -75.5 -259t-221.5 -92z" />
    <glyph glyph-name="Iogonek" unicode="&#x12e;" horiz-adv-x="628" 
d="M502 0h-60q-64 -89 -84 -130.5t-20 -78.5q0 -67 61 -67q49 0 99 24l-43 -170q-59 -16 -117 -16q-104 0 -163.5 47.5t-59.5 124.5q0 62 47.5 124.5t156.5 141.5h-192q36 111 51 220.5t15 260.5v715q0 151 -15 260.5t-51 220.5h375q-36 -111 -51 -220.5t-15 -260.5v-715
q0 -151 15 -260.5t51 -220.5z" />
    <glyph glyph-name="iogonek" unicode="&#x12f;" horiz-adv-x="587" 
d="M129 1485q0 68 48.5 116t117.5 48q67 0 114.5 -48t47.5 -116t-47.5 -116t-114.5 -48q-69 0 -117.5 48t-48.5 116zM467 0h-64q-64 -89 -84 -130.5t-20 -78.5q0 -67 61 -67q50 0 99 24l-43 -170q-59 -16 -117 -16q-104 0 -163.5 47.5t-59.5 124.5q0 62 48 124.5t157 141.5
h-160q55 142 55 317v531q0 175 -55 317h346q-32 -78 -44.5 -150t-12.5 -167v-531q0 -95 12.5 -167t44.5 -150z" />
    <glyph glyph-name="Idot" unicode="&#x130;" horiz-adv-x="628" 
d="M193 481v715q0 151 -15 260.5t-51 220.5h375q-36 -111 -51 -220.5t-15 -260.5v-715q0 -151 15 -260.5t51 -220.5h-375q36 111 51 220.5t15 260.5zM479 1935q0 -68 -47.5 -115.5t-114.5 -47.5q-69 0 -117 47.5t-48 115.5t48 116t117 48q67 0 114.5 -48t47.5 -116z" />
    <glyph glyph-name="dotlessi" unicode="&#x131;" horiz-adv-x="569" 
d="M410 848v-531q0 -95 12.5 -167t44.5 -150h-346q55 142 55 317v531q0 175 -55 317h346q-32 -78 -44.5 -150t-12.5 -167z" />
    <glyph glyph-name="IJ" unicode="&#x132;" horiz-adv-x="1384" 
d="M193 481v715q0 151 -15 260.5t-51 220.5h375q-36 -111 -51 -220.5t-15 -260.5v-715q0 -151 15 -260.5t51 -220.5h-375q36 111 51 220.5t15 260.5zM1210 1120v-727q0 -389 -123.5 -573.5t-377.5 -184.5q-59 0 -121 19v8q96 45 161 97t116 134.5t76 204t26 291.5v1096
q-54 4 -88 4q-147 0 -267 -27l66 215h579q-24 -105 -36 -225q-11 -147 -11 -332z" />
    <glyph glyph-name="ij" unicode="&#x133;" horiz-adv-x="1171" 
d="M457 1485q0 -68 -47.5 -116t-114.5 -48q-69 0 -117.5 48t-48.5 116t48.5 116t117.5 48q67 0 114.5 -48t47.5 -116zM410 848v-531q0 -95 12.5 -167t44.5 -150h-346q55 142 55 317v531q0 175 -55 317h346q-32 -78 -44.5 -150t-12.5 -167zM715 1485q0 68 48.5 116t117.5 48
q67 0 114 -48t47 -116t-47 -116t-114 -48q-69 0 -117.5 48t-48.5 116zM762 135v713q0 175 -55 317h344q-56 -145 -56 -317v-713q0 -353 -182 -541h-215q90 116 127 234q37 115 37 307z" />
    <glyph glyph-name="Jcircumflex" unicode="&#x134;" horiz-adv-x="755" 
d="M582 1120v-727q0 -389 -124 -573.5t-378 -184.5q-59 0 -121 19v8q96 45 161 97t116 134.5t76 204t26 291.5v1096q-54 4 -88 4q-146 0 -266 -27l65 215h580q-26 -113 -37 -225q-10 -133 -10 -332zM690 1747h-96q-129 95 -215 227q-86 -132 -215 -227h-96q121 164 165 375
h293q48 -216 164 -375z" />
    <glyph glyph-name="jcircumflex" unicode="&#x135;" horiz-adv-x="583" 
d="M174 135v713q0 175 -55 317h344q-55 -142 -55 -317v-713q0 -352 -183 -541h-215q90 116 127 234q37 115 37 307zM604 1296h-96q-128 94 -215 228q-87 -134 -215 -228h-96q121 164 165 375h293q48 -216 164 -375z" />
    <glyph glyph-name="Kcommaaccent" unicode="&#x136;" horiz-adv-x="1468" 
d="M1530 8v-8h-436q-12 59 -63 148.5t-126 183.5l-469 577v-428q0 -151 15 -260.5t51 -220.5h-375q36 111 51 220.5t15 260.5v715q0 151 -15 260.5t-51 220.5h375q-36 -111 -51 -220.5t-15 -260.5v-262l422 506q55 65 78 117t29 120h462v-8q-225 -173 -399 -379l-301 -360
l504 -621q173 -204 299 -301zM702 -438h-178q97 132 97 233q0 65 -29 121h285q-18 -96 -59 -177t-116 -177z" />
    <glyph glyph-name="kcommaaccent" unicode="&#x137;" horiz-adv-x="1126" 
d="M406 1137v-820q0 -95 12.5 -167t44.5 -150h-346q55 142 55 317v926q0 134 -12.5 218t-42.5 157l338 65q-49 -191 -49 -546zM1120 6v-6h-377q0 95 -90 240l-245 391l292 375q33 44 48.5 78.5t19.5 80.5h342v-8q-74 -56 -135 -118t-139 -160l-172 -220l202 -317
q95 -151 254 -336zM528 -438h-178q96 131 96 233q0 67 -28 121h284q-18 -97 -58.5 -177.5t-115.5 -176.5z" />
    <glyph glyph-name="kgreenlandic" unicode="&#x138;" horiz-adv-x="1130" 
d="M410 848v-531q0 -95 12.5 -167t44.5 -150h-346q55 142 55 317v531q0 175 -55 317h346q-32 -78 -44.5 -150t-12.5 -167zM1124 6v-6h-376q0 94 -91 240l-245 391l293 375q33 44 48 78.5t19 80.5h342v-8q-74 -56 -135 -118t-139 -160l-172 -220l202 -317q95 -151 254 -336z
" />
    <glyph glyph-name="Lacute" unicode="&#x139;" horiz-adv-x="1062" 
d="M193 481v715q0 151 -15 260.5t-51 220.5h375q-36 -111 -51 -220.5t-15 -260.5v-1020q144 8 342 51q186 43 295 90l4 -4l-129 -313h-821q36 111 51 220.5t15 260.5zM352 1747h-96q98 179 119 375h248q-89 -247 -271 -375z" />
    <glyph glyph-name="lacute" unicode="&#x13a;" horiz-adv-x="579" 
d="M172 317v926q0 134 -12.5 218t-42.5 157l338 65q-49 -191 -49 -546v-820q0 -95 12.5 -167t44.5 -150h-346q55 142 55 317zM258 1733h-96q98 179 119 374h247q-89 -246 -270 -374z" />
    <glyph glyph-name="Lcommaaccent" unicode="&#x13b;" horiz-adv-x="1062" 
d="M193 481v715q0 151 -15 260.5t-51 220.5h375q-36 -111 -51 -220.5t-15 -260.5v-1020q144 8 342 51q186 43 295 90l4 -4l-129 -313h-821q36 111 51 220.5t15 260.5zM528 -438h-178q96 131 96 233q0 67 -28 121h284q-18 -97 -58.5 -177.5t-115.5 -176.5z" />
    <glyph glyph-name="lcommaaccent" unicode="&#x13c;" horiz-adv-x="579" 
d="M172 317v926q0 134 -12.5 218t-42.5 157l338 65q-49 -191 -49 -546v-820q0 -95 12.5 -167t44.5 -150h-346q55 142 55 317zM256 -438h-178q96 131 96 233q0 65 -29 121h285q-18 -97 -58.5 -177.5t-115.5 -176.5z" />
    <glyph glyph-name="Lcaron" unicode="&#x13d;" horiz-adv-x="1062" 
d="M193 481v715q0 151 -15 260.5t-51 220.5h375q-36 -111 -51 -220.5t-15 -260.5v-1020q144 8 342 51q186 43 295 90l4 -4l-129 -313h-821q36 111 51 220.5t15 260.5zM696 1180h-116q72 217 90 497h248q-73 -319 -222 -497z" />
    <glyph glyph-name="lcaron" unicode="&#x13e;" horiz-adv-x="651" 
d="M172 317v926q0 134 -12.5 218t-42.5 157l338 65q-49 -191 -49 -546v-820q0 -95 12.5 -167t44.5 -150h-346q55 142 55 317zM584 1255h-97q56 189 70 416h227q-68 -272 -200 -416z" />
    <glyph glyph-name="Ldot" unicode="&#x13f;" horiz-adv-x="1142" 
d="M193 481v715q0 151 -15 260.5t-51 220.5h375q-36 -111 -51 -220.5t-15 -260.5v-1020q144 8 342 51q186 43 295 90l4 -4l-129 -313h-821q36 111 51 220.5t15 260.5zM1069 928q0 -82 -50.5 -133.5t-131.5 -51.5q-82 0 -133.5 51.5t-51.5 133.5q0 81 51.5 131.5t133.5 50.5
t132 -50t50 -132z" />
    <glyph glyph-name="ldot" unicode="&#x140;" horiz-adv-x="849" 
d="M172 317v926q0 134 -12.5 218t-42.5 157l338 65q-49 -191 -49 -546v-820q0 -95 12.5 -167t44.5 -150h-346q55 142 55 317zM897 834q0 -82 -50.5 -133.5t-131.5 -51.5q-82 0 -133.5 51.5t-51.5 133.5q0 81 51.5 131.5t133.5 50.5t132 -50t50 -132z" />
    <glyph glyph-name="Lslash" unicode="&#x141;" horiz-adv-x="1062" 
d="M1073 317l4 -4l-129 -313h-821q36 111 51 220.5t15 260.5v203q-92 -45 -213 -117v244q67 13 213 70v315q0 151 -15 260.5t-51 220.5h375q-36 -111 -51 -220.5t-15 -260.5v-209q159 72 326 168v-244q-121 -29 -326 -114v-621q144 8 342 51q186 43 295 90z" />
    <glyph glyph-name="lslash" unicode="&#x142;" horiz-adv-x="733" 
d="M483 768v-451q0 -95 13 -166.5t45 -150.5h-346q55 142 55 317v338q-129 -66 -189 -102v244q87 17 189 57v389q0 134 -12.5 218t-42.5 157l337 65q-49 -191 -49 -546v-176q113 52 271 143v-244q-120 -24 -271 -92z" />
    <glyph glyph-name="Nacute" unicode="&#x143;" horiz-adv-x="1837" 
d="M1645 1130v-583q0 -342 45 -547h-310q-32 95 -137 223l-766 971v-647q0 -183 15 -303q16 -125 51 -244h-375q35 117 51 246q14 112 14 301v903q-97 121 -208 219v8h413q28 -68 66 -125q39 -59 123 -163l774 -981v722q0 182 -15 302q-16 127 -51 245h375
q-36 -119 -51 -243q-14 -112 -14 -304zM889 1747h-96q97 177 118 375h248q-89 -248 -270 -375z" />
    <glyph glyph-name="nacute" unicode="&#x144;" horiz-adv-x="1241" 
d="M176 317v533q0 173 -47 315h293q-12 -71 -12 -151v-62l184 195q73 37 178 37q138 0 224.5 -90.5t86.5 -251.5v-525q0 -172 56 -317h-346q32 78 44.5 150t12.5 167v467q0 81 -60.5 132t-154.5 51q-100 0 -225 -78v-572q0 -95 12.5 -167t44.5 -150h-346q55 142 55 317z
M592 1296h-96q97 177 118 375h248q-89 -248 -270 -375z" />
    <glyph glyph-name="Ncommaaccent" unicode="&#x145;" horiz-adv-x="1837" 
d="M1645 1130v-583q0 -342 45 -547h-310q-32 95 -137 223l-766 971v-647q0 -183 15 -303q16 -125 51 -244h-375q35 117 51 246q14 112 14 301v903q-97 121 -208 219v8h413q28 -68 66 -125q39 -59 123 -163l774 -981v722q0 182 -15 302q-16 127 -51 245h375
q-36 -119 -51 -243q-14 -112 -14 -304zM887 -438h-178q96 131 96 233q0 65 -29 121h285q-18 -97 -58.5 -177.5t-115.5 -176.5z" />
    <glyph glyph-name="ncommaaccent" unicode="&#x146;" horiz-adv-x="1241" 
d="M176 317v533q0 173 -47 315h293q-12 -71 -12 -151v-62l184 195q73 37 178 37q138 0 224.5 -90.5t86.5 -251.5v-525q0 -172 56 -317h-346q32 78 44.5 150t12.5 167v467q0 81 -60.5 132t-154.5 51q-100 0 -225 -78v-572q0 -95 12.5 -167t44.5 -150h-346q55 142 55 317z
M590 -438h-178q96 131 96 233q0 65 -29 121h285q-18 -97 -58.5 -177.5t-115.5 -176.5z" />
    <glyph glyph-name="Ncaron" unicode="&#x147;" horiz-adv-x="1837" 
d="M1645 1130v-583q0 -342 45 -547h-310q-32 95 -137 223l-766 971v-647q0 -183 15 -303q16 -125 51 -244h-375q35 117 51 246q14 112 14 301v903q-97 121 -208 219v8h413q28 -68 66 -125q39 -59 123 -163l774 -981v722q0 182 -15 302q-16 127 -51 245h375
q-36 -119 -51 -243q-14 -112 -14 -304zM1135 2122h96q-122 -166 -166 -375h-293q-48 216 -164 375h97q128 -94 215 -228q87 134 215 228z" />
    <glyph glyph-name="ncaron" unicode="&#x148;" horiz-adv-x="1241" 
d="M176 317v533q0 173 -47 315h293q-12 -71 -12 -151v-62l184 195q73 37 178 37q138 0 224.5 -90.5t86.5 -251.5v-525q0 -172 56 -317h-346q32 78 44.5 150t12.5 167v467q0 81 -60.5 132t-154.5 51q-100 0 -225 -78v-572q0 -95 12.5 -167t44.5 -150h-346q55 142 55 317z
M838 1671h96q-122 -166 -166 -375h-293q-48 216 -164 375h97q129 -95 215 -227q86 132 215 227z" />
    <glyph glyph-name="napostrophe" unicode="&#x149;" horiz-adv-x="1548" 
d="M268 1155h-223q148 201 148 365q0 92 -35 157h356q-24 -143 -81.5 -262.5t-164.5 -259.5zM483 317v533q0 173 -47 315h293q-12 -70 -12 -151v-62l184 195q73 37 178 37q138 0 225 -90.5t87 -251.5v-525q0 -175 55 -317h-346q32 78 44.5 150t12.5 167v467q0 81 -60.5 132
t-154.5 51q-100 0 -225 -78v-572q0 -95 12.5 -167t44.5 -150h-346q55 142 55 317z" />
    <glyph glyph-name="Eng" unicode="&#x14a;" horiz-adv-x="1837" 
d="M1335 1677h375q-36 -119 -51 -243q-14 -112 -14 -304v-942q0 -316 -124 -465t-378 -149q-63 0 -121 18v9q166 60 255 158.5t114 275.5l-914 1159v-647q0 -183 15 -303q16 -125 51 -244h-375q35 117 51 246q14 112 14 301v903q-97 121 -208 219v8h413q28 -68 66 -125
q39 -59 123 -163l774 -981v722q0 182 -15 302q-16 127 -51 245z" />
    <glyph glyph-name="eng" unicode="&#x14b;" horiz-adv-x="1241" 
d="M850 135v649q0 81 -60.5 132t-154.5 51q-100 0 -225 -78v-572q0 -95 12.5 -167t44.5 -150h-346q55 142 55 317v533q0 173 -47 315h293q-12 -71 -12 -151v-62l184 195q73 37 178 37q138 0 224.5 -90.5t86.5 -251.5v-707q0 -353 -182 -541h-215q90 116 127 234
q37 115 37 307z" />
    <glyph glyph-name="Omacron" unicode="&#x14c;" horiz-adv-x="1943" 
d="M1845 850q4 -183 -65.5 -346.5t-189 -279t-284 -181.5t-345.5 -63q-150 -3 -287 43t-241.5 128.5t-182 191t-117 236.5t-37.5 259q-3 170 66.5 330.5t187 277.5t280.5 186.5t339 65.5q176 2 338 -61t281.5 -173.5t189.5 -271t67 -342.5zM367 893q-2 -143 46 -278
t132 -237t206 -162.5t259 -57.5q163 0 293.5 84.5t202 228t71.5 317.5q2 143 -50.5 279t-141 236.5t-211.5 160.5t-254 56q-112 0 -213 -46t-176.5 -126.5t-119.5 -199t-44 -255.5zM1298 2021v-211q-114 15 -286 15h-84q-173 0 -287 -15v211q106 -14 287 -14h84
q180 0 286 14z" />
    <glyph glyph-name="omacron" unicode="&#x14d;" horiz-adv-x="1251" 
d="M1180 594q2 -100 -28.5 -195t-86.5 -169t-128 -130.5t-156.5 -86t-168.5 -27.5q-109 0 -205 35.5t-171.5 104t-119.5 179.5t-44 252q-3 134 46 254t129 201t182 127.5t204 44.5q118 0 218.5 -40.5t173.5 -115t114 -186.5t41 -248zM336 606q0 -190 91.5 -317t227.5 -142
q115 18 187.5 133.5t72.5 292.5q0 190 -90.5 317.5t-218.5 127.5q-117 0 -193.5 -111t-76.5 -301zM954 1591v-211q-114 15 -286 15h-84q-173 0 -287 -15v211q106 -14 287 -14h84q180 0 286 14z" />
    <glyph glyph-name="Obreve" unicode="&#x14e;" horiz-adv-x="1943" 
d="M1845 850q4 -183 -65.5 -346.5t-189 -279t-284 -181.5t-345.5 -63q-150 -3 -287 43t-241.5 128.5t-182 191t-117 236.5t-37.5 259q-3 170 66.5 330.5t187 277.5t280.5 186.5t339 65.5q176 2 338 -61t281.5 -173.5t189.5 -271t67 -342.5zM367 893q-2 -143 46 -278
t132 -237t206 -162.5t259 -57.5q163 0 293.5 84.5t202 228t71.5 317.5q2 143 -50.5 279t-141 236.5t-211.5 160.5t-254 56q-112 0 -213 -46t-176.5 -126.5t-119.5 -199t-44 -255.5zM969 1747q-145 0 -220 91.5t-75 258.5h110q0 -66 50.5 -106.5t134.5 -40.5t135 40.5
t51 106.5h111q0 -167 -75.5 -258.5t-221.5 -91.5z" />
    <glyph glyph-name="obreve" unicode="&#x14f;" horiz-adv-x="1251" 
d="M1180 594q2 -100 -28.5 -195t-86.5 -169t-128 -130.5t-156.5 -86t-168.5 -27.5q-109 0 -205 35.5t-171.5 104t-119.5 179.5t-44 252q-3 134 46 254t129 201t182 127.5t204 44.5q118 0 218.5 -40.5t173.5 -115t114 -186.5t41 -248zM336 606q0 -190 91.5 -317t227.5 -142
q115 18 187.5 133.5t72.5 292.5q0 190 -90.5 317.5t-218.5 127.5q-117 0 -193.5 -111t-76.5 -301zM625 1296q-145 0 -220 92t-75 259h110q0 -66 50.5 -107t134.5 -41t135 41t51 107h111q0 -167 -75.5 -259t-221.5 -92z" />
    <glyph glyph-name="Ohungarumlaut" unicode="&#x150;" horiz-adv-x="1943" 
d="M1845 850q4 -183 -65.5 -346.5t-189 -279t-284 -181.5t-345.5 -63q-150 -3 -287 43t-241.5 128.5t-182 191t-117 236.5t-37.5 259q-3 170 66.5 330.5t187 277.5t280.5 186.5t339 65.5q176 2 338 -61t281.5 -173.5t189.5 -271t67 -342.5zM367 893q-2 -143 46 -278
t132 -237t206 -162.5t259 -57.5q163 0 293.5 84.5t202 228t71.5 317.5q2 143 -50.5 279t-141 236.5t-211.5 160.5t-254 56q-112 0 -213 -46t-176.5 -126.5t-119.5 -199t-44 -255.5zM774 1747h-96q105 175 129 375h227q-89 -251 -260 -375zM1165 1747h-96q105 175 129 375
h227q-89 -251 -260 -375z" />
    <glyph glyph-name="ohungarumlaut" unicode="&#x151;" horiz-adv-x="1251" 
d="M1180 594q2 -100 -28.5 -195t-86.5 -169t-128 -130.5t-156.5 -86t-168.5 -27.5q-109 0 -205 35.5t-171.5 104t-119.5 179.5t-44 252q-3 134 46 254t129 201t182 127.5t204 44.5q118 0 218.5 -40.5t173.5 -115t114 -186.5t41 -248zM336 606q0 -190 91.5 -317t227.5 -142
q115 18 187.5 133.5t72.5 292.5q0 190 -90.5 317.5t-218.5 127.5q-117 0 -193.5 -111t-76.5 -301zM430 1296h-96q105 176 129 375h227q-89 -251 -260 -375zM821 1296h-96q105 176 129 375h227q-89 -251 -260 -375z" />
    <glyph glyph-name="OE" unicode="&#x152;" horiz-adv-x="2193" 
d="M96 838q-3 169 66.5 327.5t187 275t280.5 185t339 64.5q73 0 176 -7q123 -6 184 -6h764l-121 -264q-195 98 -477 98v-573h539l-142 -242q-154 63 -397 72v-604q203 0 367.5 27.5t324.5 87.5l4 -5l-120 -274h-670q-86 0 -219 -8q-165 -6 -221 -6q-186 -4 -351 67.5
t-277.5 190.5t-176 275t-60.5 319zM1253 209v1259q-165 43 -333 43q-111 2 -212.5 -43t-177.5 -125t-120.5 -197.5t-42.5 -252.5q-2 -141 46 -274.5t132 -235t206 -162t259 -57.5q133 0 243 45z" />
    <glyph glyph-name="oe" unicode="&#x153;" horiz-adv-x="1902" 
d="M1825 592l-656 -19q10 -202 101.5 -292.5t263.5 -90.5q136 0 264 84l4 -4l-67 -227q-123 -57 -271 -57q-300 0 -432 209q-78 -99 -186 -154t-225 -55q-111 0 -208.5 35.5t-174 104t-121.5 180t-45 251.5q-3 133 47 253.5t131.5 201.5t184.5 127.5t206 44.5
q128 0 234.5 -50t175.5 -143q66 94 164 143.5t215 49.5q194 0 297.5 -122t103.5 -341q0 -79 -6 -129zM1174 721h460q0 149 -58.5 227t-170.5 78q-204 0 -231 -305zM934 573q0 189 -93.5 317t-224.5 128q-134 0 -207 -108t-73 -304q0 -190 94.5 -317t233.5 -142
q119 18 194.5 133.5t75.5 292.5z" />
    <glyph glyph-name="Racute" unicode="&#x154;" horiz-adv-x="1292" 
d="M1323 8v-8h-199q-92 35 -239 201q-200 226 -449 569v-289q0 -151 15 -260.5t51 -220.5h-375q36 111 51 220.5t15 260.5v715q0 151 -15 260.5t-51 220.5h348q153 0 276.5 -37.5t202.5 -102.5t121.5 -151t42.5 -186q0 -300 -342 -457q101 -170 232 -344q110 -147 315 -391z
M436 1534v-737q207 42 316.5 139t109.5 233q0 162 -121.5 263.5t-304.5 101.5zM616 1747h-96q98 179 119 375h248q-89 -247 -271 -375z" />
    <glyph glyph-name="racute" unicode="&#x155;" horiz-adv-x="851" 
d="M176 317v533q0 173 -47 315h293q-12 -71 -12 -151v-121q90 159 167 223t175 64q52 0 86 -15l-31 -284q-92 57 -164 57q-127 0 -233 -121v-500q0 -95 12.5 -167t44.5 -150h-346q55 142 55 317zM395 1296h-96q98 179 119 375h248q-89 -247 -271 -375z" />
    <glyph glyph-name="Rcommaaccent" unicode="&#x156;" horiz-adv-x="1292" 
d="M1323 8v-8h-199q-92 35 -239 201q-200 226 -449 569v-289q0 -151 15 -260.5t51 -220.5h-375q36 111 51 220.5t15 260.5v715q0 151 -15 260.5t-51 220.5h348q153 0 276.5 -37.5t202.5 -102.5t121.5 -151t42.5 -186q0 -300 -342 -457q101 -170 232 -344q110 -147 315 -391z
M436 1534v-737q207 42 316.5 139t109.5 233q0 162 -121.5 263.5t-304.5 101.5zM676 -438h-178q96 131 96 233q0 65 -29 121h285q-18 -97 -58.5 -177.5t-115.5 -176.5z" />
    <glyph glyph-name="rcommaaccent" unicode="&#x157;" horiz-adv-x="851" 
d="M176 317v533q0 173 -47 315h293q-12 -71 -12 -151v-121q90 159 167 223t175 64q52 0 86 -15l-31 -284q-92 57 -164 57q-127 0 -233 -121v-500q0 -95 12.5 -167t44.5 -150h-346q55 142 55 317zM260 -438h-178q96 131 96 233q0 67 -28 121h284q-18 -97 -58.5 -177.5
t-115.5 -176.5z" />
    <glyph glyph-name="Rcaron" unicode="&#x158;" horiz-adv-x="1292" 
d="M1323 8v-8h-199q-92 35 -239 201q-200 226 -449 569v-289q0 -151 15 -260.5t51 -220.5h-375q36 111 51 220.5t15 260.5v715q0 151 -15 260.5t-51 220.5h348q153 0 276.5 -37.5t202.5 -102.5t121.5 -151t42.5 -186q0 -300 -342 -457q101 -170 232 -344q110 -147 315 -391z
M436 1534v-737q207 42 316.5 139t109.5 233q0 162 -121.5 263.5t-304.5 101.5zM862 2122h96q-121 -164 -165 -375h-293q-48 216 -164 375h96q128 -94 215 -228q87 134 215 228z" />
    <glyph glyph-name="rcaron" unicode="&#x159;" horiz-adv-x="851" 
d="M176 317v533q0 173 -47 315h293q-12 -71 -12 -151v-121q90 159 167 223t175 64q52 0 86 -15l-31 -284q-92 57 -164 57q-127 0 -233 -121v-500q0 -95 12.5 -167t44.5 -150h-346q55 142 55 317zM641 1671h96q-122 -166 -166 -375h-292q-48 216 -164 375h96
q129 -95 215 -227q86 132 215 227z" />
    <glyph glyph-name="Sacute" unicode="&#x15a;" horiz-adv-x="1122" 
d="M113 45v340h8q110 -126 186 -170q80 -47 185 -47q111 0 186.5 71.5t75.5 176.5q0 91 -65 159t-255 175q-184 103 -258 208q-74 109 -74 263q-1 89 37.5 176.5t105 154.5t163.5 107.5t204 38.5q172 0 320 -74v-254l-6 -2q-83 72 -155 101.5t-159 29.5q-117 0 -189.5 -69.5
t-72.5 -165.5q0 -95 67.5 -172t235.5 -170q142 -80 215.5 -141t111 -137.5t40.5 -186.5q0 -145 -74.5 -255t-199 -166t-279.5 -56q-197 0 -354 65zM530 1747h-96q98 179 119 375h248q-89 -247 -271 -375z" />
    <glyph glyph-name="sacute" unicode="&#x15b;" horiz-adv-x="829" 
d="M76 29l14 323h6q69 -117 128 -163t141 -46q75 0 115 37.5t40 106.5q0 63 -39 108q-43 54 -149 119q-121 78 -170 155.5t-49 182.5q0 144 107 238t276 94q117 0 227 -35v-221h-6q-65 55 -116 77.5t-107 22.5q-69 0 -107.5 -33.5t-38.5 -93.5q0 -62 39.5 -110.5
t140.5 -110.5q125 -75 178.5 -154t53.5 -188q0 -164 -107 -258t-278 -94q-142 0 -299 43zM381 1296h-96q97 177 118 375h248q-89 -248 -270 -375z" />
    <glyph glyph-name="Scircumflex" unicode="&#x15c;" horiz-adv-x="1122" 
d="M113 45v340h8q110 -126 186 -170q80 -47 185 -47q111 0 186.5 71.5t75.5 176.5q0 91 -65 159t-255 175q-184 103 -258 208q-74 109 -74 263q-1 89 37.5 176.5t105 154.5t163.5 107.5t204 38.5q172 0 320 -74v-254l-6 -2q-83 72 -155 101.5t-159 29.5q-117 0 -189.5 -69.5
t-72.5 -165.5q0 -95 67.5 -172t235.5 -170q142 -80 215.5 -141t111 -137.5t40.5 -186.5q0 -145 -74.5 -255t-199 -166t-279.5 -56q-197 0 -354 65zM872 1747h-96q-129 95 -215 227q-86 -132 -215 -227h-96q122 166 166 375h293q48 -218 163 -375z" />
    <glyph glyph-name="scircumflex" unicode="&#x15d;" horiz-adv-x="829" 
d="M76 29l14 323h6q69 -117 128 -163t141 -46q75 0 115 37.5t40 106.5q0 63 -39 108q-43 54 -149 119q-121 78 -170 155.5t-49 182.5q0 144 107 238t276 94q117 0 227 -35v-221h-6q-65 55 -116 77.5t-107 22.5q-69 0 -107.5 -33.5t-38.5 -93.5q0 -62 39.5 -110.5
t140.5 -110.5q125 -75 178.5 -154t53.5 -188q0 -164 -107 -258t-278 -94q-142 0 -299 43zM723 1296h-96q-128 94 -215 228q-87 -134 -215 -228h-97q122 166 166 375h293q48 -216 164 -375z" />
    <glyph glyph-name="Scedilla" unicode="&#x15e;" horiz-adv-x="1122" 
d="M541 -16l-17 -54q96 -6 149.5 -57.5t53.5 -128.5q0 -82 -70 -136t-182 -54q-89 0 -180 24l39 109q57 -11 94 -11q133 0 133 78q0 35 -30.5 55.5t-84.5 20.5q-13 0 -67 -4l47 154q-168 6 -313 65v340h8q110 -126 186 -170q80 -47 185 -47q111 0 186.5 71.5t75.5 176.5
q0 91 -65 159t-255 175q-184 103 -258 208q-74 109 -74 263q-1 89 37.5 176.5t105 154.5t163.5 107.5t204 38.5q172 0 320 -74v-254l-6 -2q-83 72 -155 101.5t-159 29.5q-117 0 -189.5 -69.5t-72.5 -165.5q0 -95 67.5 -172t235.5 -170q142 -80 215.5 -141t111 -137.5
t40.5 -186.5q0 -200 -135 -327t-344 -146z" />
    <glyph glyph-name="scedilla" unicode="&#x15f;" horiz-adv-x="829" 
d="M434 -10l-18 -60q96 -6 149 -57.5t53 -128.5q0 -83 -70 -136.5t-181 -53.5q-89 0 -181 24l39 109q57 -11 94 -11q134 0 134 78q0 35 -30.5 55.5t-84.5 20.5q-14 0 -68 -4l49 162q-100 3 -243 41l14 323h6q69 -117 128 -163t141 -46q75 0 115 37.5t40 106.5q0 63 -39 108
q-43 54 -149 119q-121 78 -170 155.5t-49 182.5q0 144 107 238t276 94q117 0 227 -35v-221h-6q-65 55 -116 77.5t-107 22.5q-69 0 -107.5 -33.5t-38.5 -93.5q0 -62 39.5 -110.5t140.5 -110.5q125 -75 178.5 -154t53.5 -188q0 -150 -88.5 -242t-237.5 -106z" />
    <glyph glyph-name="Scaron" unicode="&#x160;" horiz-adv-x="1122" 
d="M113 45v340h8q110 -126 186 -170q80 -47 185 -47q111 0 186.5 71.5t75.5 176.5q0 91 -65 159t-255 175q-184 103 -258 208q-74 109 -74 263q-1 89 37.5 176.5t105 154.5t163.5 107.5t204 38.5q172 0 320 -74v-254l-6 -2q-83 72 -155 101.5t-159 29.5q-117 0 -189.5 -69.5
t-72.5 -165.5q0 -95 67.5 -172t235.5 -170q142 -80 215.5 -141t111 -137.5t40.5 -186.5q0 -145 -74.5 -255t-199 -166t-279.5 -56q-197 0 -354 65zM776 2122h96q-121 -164 -165 -375h-293q-48 216 -164 375h96q128 -94 215 -228q87 134 215 228z" />
    <glyph glyph-name="scaron" unicode="&#x161;" horiz-adv-x="829" 
d="M76 29l14 323h6q69 -117 128 -163t141 -46q75 0 115 37.5t40 106.5q0 63 -39 108q-43 54 -149 119q-121 78 -170 155.5t-49 182.5q0 144 107 238t276 94q117 0 227 -35v-221h-6q-65 55 -116 77.5t-107 22.5q-69 0 -107.5 -33.5t-38.5 -93.5q0 -62 39.5 -110.5
t140.5 -110.5q125 -75 178.5 -154t53.5 -188q0 -164 -107 -258t-278 -94q-142 0 -299 43zM627 1671h96q-122 -166 -166 -375h-293q-48 216 -164 375h97q129 -95 215 -227q86 132 215 227z" />
    <glyph glyph-name="uni0162" unicode="&#x162;" horiz-adv-x="1282" 
d="M508 481v1020q-305 0 -531 -112l-4 4l84 284h1254l-115 -266q-99 48 -202 69t-242 21v-1020q0 -152 15 -261t50 -220h-375q37 108 51.5 216.5t14.5 264.5zM598 -438h-178q96 131 96 233q0 65 -29 121h285q-18 -97 -58.5 -177.5t-115.5 -176.5z" />
    <glyph glyph-name="uni0163" unicode="&#x163;" horiz-adv-x="792" 
d="M420 1417v-252h321v-153h-321v-695q0 -77 35.5 -111t111.5 -34q88 0 201 35l4 -4l-141 -197q-95 -18 -164 -18q-149 0 -215 63.5t-66 208.5v752h-149v8l375 397h8zM406 -438h-179q97 132 97 233q0 65 -29 121h285q-18 -97 -58.5 -177.5t-115.5 -176.5z" />
    <glyph glyph-name="Tcaron" unicode="&#x164;" horiz-adv-x="1282" 
d="M508 481v1020q-305 0 -531 -112l-4 4l84 284h1254l-115 -266q-99 48 -202 69t-242 21v-1020q0 -152 15 -261t50 -220h-375q37 108 51.5 216.5t14.5 264.5zM856 2122h96q-122 -166 -166 -375h-292q-48 216 -164 375h96q128 -94 215 -228q87 134 215 228z" />
    <glyph glyph-name="tcaron" unicode="&#x165;" horiz-adv-x="792" 
d="M420 1417v-252h321v-153h-321v-695q0 -77 35.5 -111t111.5 -34q88 0 201 35l4 -4l-141 -197q-95 -18 -164 -18q-149 0 -215 63.5t-66 208.5v752h-149v8l375 397h8zM610 1255h-96q56 189 70 416h227q-68 -271 -201 -416z" />
    <glyph glyph-name="Tbar" unicode="&#x166;" horiz-adv-x="1282" 
d="M752 1501v-579h26q160 0 266 16v-201q-112 17 -266 17h-26v-273q0 -152 15 -261t50 -220h-375q37 108 51.5 216.5t14.5 264.5v273h-27q-154 0 -266 -17v201q106 -16 266 -16h27v579q-305 0 -531 -112l-4 4l84 284h1254l-115 -266q-99 48 -202 69t-242 21z" />
    <glyph glyph-name="tbar" unicode="&#x167;" horiz-adv-x="792" 
d="M768 207l4 -4l-141 -197q-95 -18 -164 -18q-149 0 -215 63.5t-66 208.5v309q-67 -3 -125 -12v178q58 -9 125 -12v289h-149v8l375 397h8v-252h321v-153h-321v-293h16q160 0 266 16v-178q-106 16 -266 16h-16v-256q0 -77 35.5 -111t111.5 -34q88 0 201 35z" />
    <glyph glyph-name="Utilde" unicode="&#x168;" horiz-adv-x="1595" 
d="M176 627v569q0 152 -15 261t-50 220h374q-35 -111 -50 -220t-15 -261v-571q0 -212 93.5 -322t262.5 -110q156 0 269.5 111t113.5 280v612q0 152 -15 261t-50 220h374q-35 -111 -50 -220t-15 -261v-715q0 -152 15 -261t50 -220h-315q14 49 14 168q-259 -182 -487 -182
q-245 0 -374.5 163.5t-129.5 477.5zM946 1782q-47 0 -88.5 15t-101.5 50q-61 32 -89.5 43t-58.5 11q-43 0 -69.5 -26t-26.5 -65q0 -8 4 -28h-151q0 134 63.5 217.5t181.5 83.5q45 0 83 -14t110 -52q60 -32 88 -42.5t59 -10.5q42 0 69.5 25.5t27.5 64.5q0 4 -5 29h152
q0 -134 -65 -217.5t-183 -83.5z" />
    <glyph glyph-name="utilde" unicode="&#x169;" horiz-adv-x="1220" 
d="M158 182v666q0 172 -56 317h347q-32 -79 -45 -150.5t-13 -166.5v-434q0 -110 47 -161.5t146 -51.5q110 0 227 65v582q0 175 -55 317h344q-56 -145 -56 -317v-531q0 -172 56 -317h-303q14 66 14 205l-152 -180q-93 -41 -210 -41q-213 0 -291 198zM764 1331q-47 0 -89 15.5
t-102 50.5q-60 32 -88 42.5t-59 10.5q-43 0 -69.5 -25.5t-26.5 -64.5q0 -9 4 -29h-152q0 134 64 217.5t182 83.5q46 0 84.5 -14t108.5 -51q62 -32 89.5 -43t57.5 -11q42 0 69 26t27 65q0 8 -4 28h152q0 -134 -65 -217.5t-183 -83.5z" />
    <glyph glyph-name="Umacron" unicode="&#x16a;" horiz-adv-x="1595" 
d="M176 627v569q0 152 -15 261t-50 220h374q-35 -111 -50 -220t-15 -261v-571q0 -212 93.5 -322t262.5 -110q156 0 269.5 111t113.5 280v612q0 152 -15 261t-50 220h374q-35 -111 -50 -220t-15 -261v-715q0 -152 15 -261t50 -220h-315q14 49 14 168q-259 -182 -487 -182
q-245 0 -374.5 163.5t-129.5 477.5zM1106 2021v-211q-114 15 -287 15h-84q-172 0 -286 -15v211q106 -14 286 -14h84q181 0 287 14z" />
    <glyph glyph-name="umacron" unicode="&#x16b;" horiz-adv-x="1220" 
d="M158 182v666q0 172 -56 317h347q-32 -79 -45 -150.5t-13 -166.5v-434q0 -110 47 -161.5t146 -51.5q110 0 227 65v582q0 175 -55 317h344q-56 -145 -56 -317v-531q0 -172 56 -317h-303q14 66 14 205l-152 -180q-93 -41 -210 -41q-213 0 -291 198zM924 1591v-211
q-114 15 -287 15h-84q-173 0 -287 -15v211q106 -14 287 -14h84q181 0 287 14z" />
    <glyph glyph-name="Ubreve" unicode="&#x16c;" horiz-adv-x="1595" 
d="M176 627v569q0 152 -15 261t-50 220h374q-35 -111 -50 -220t-15 -261v-571q0 -212 93.5 -322t262.5 -110q156 0 269.5 111t113.5 280v612q0 152 -15 261t-50 220h374q-35 -111 -50 -220t-15 -261v-715q0 -152 15 -261t50 -220h-315q14 49 14 168q-259 -182 -487 -182
q-245 0 -374.5 163.5t-129.5 477.5zM776 1747q-145 0 -220 91.5t-75 258.5h111q0 -66 50 -106.5t134 -40.5q85 0 136 40.5t51 106.5h110q0 -167 -75.5 -258.5t-221.5 -91.5z" />
    <glyph glyph-name="ubreve" unicode="&#x16d;" horiz-adv-x="1220" 
d="M158 182v666q0 172 -56 317h347q-32 -79 -45 -150.5t-13 -166.5v-434q0 -110 47 -161.5t146 -51.5q110 0 227 65v582q0 175 -55 317h344q-56 -145 -56 -317v-531q0 -172 56 -317h-303q14 66 14 205l-152 -180q-93 -41 -210 -41q-213 0 -291 198zM594 1296q-145 0 -220 92
t-75 259h111q0 -67 50 -107.5t134 -40.5t135 41t51 107h111q0 -167 -75.5 -259t-221.5 -92z" />
    <glyph glyph-name="Uring" unicode="&#x16e;" horiz-adv-x="1595" 
d="M176 627v569q0 152 -15 261t-50 220h374q-35 -111 -50 -220t-15 -261v-571q0 -212 93.5 -322t262.5 -110q156 0 269.5 111t113.5 280v612q0 152 -15 261t-50 220h374q-35 -111 -50 -220t-15 -261v-715q0 -152 15 -261t50 -220h-315q14 49 14 168q-259 -182 -487 -182
q-245 0 -374.5 163.5t-129.5 477.5zM981 1935q0 -86 -59 -145t-144 -59q-86 0 -145.5 59t-59.5 145q0 85 59.5 145t145.5 60q85 0 144 -60t59 -145zM666 1935q0 -47 32.5 -79.5t79.5 -32.5t80 32.5t33 79.5t-33 80t-80 33t-79.5 -33t-32.5 -80z" />
    <glyph glyph-name="uring" unicode="&#x16f;" horiz-adv-x="1220" 
d="M158 182v666q0 172 -56 317h347q-32 -79 -45 -150.5t-13 -166.5v-434q0 -110 47 -161.5t146 -51.5q110 0 227 65v582q0 175 -55 317h344q-56 -145 -56 -317v-531q0 -172 56 -317h-303q14 66 14 205l-152 -180q-93 -41 -210 -41q-213 0 -291 198zM799 1485
q0 -86 -59 -145.5t-144 -59.5q-86 0 -145.5 59.5t-59.5 145.5q0 85 59.5 145t145.5 60q85 0 144 -60t59 -145zM483 1485q0 -47 33 -80t80 -33t80 33t33 80t-33 79.5t-80 32.5t-80 -32.5t-33 -79.5z" />
    <glyph glyph-name="Uhungarumlaut" unicode="&#x170;" horiz-adv-x="1595" 
d="M176 627v569q0 152 -15 261t-50 220h374q-35 -111 -50 -220t-15 -261v-571q0 -212 93.5 -322t262.5 -110q156 0 269.5 111t113.5 280v612q0 152 -15 261t-50 220h374q-35 -111 -50 -220t-15 -261v-715q0 -152 15 -261t50 -220h-315q14 49 14 168q-259 -182 -487 -182
q-245 0 -374.5 163.5t-129.5 477.5zM582 1747h-97q105 175 129 375h228q-89 -251 -260 -375zM973 1747h-96q105 175 129 375h227q-89 -251 -260 -375z" />
    <glyph glyph-name="uhungarumlaut" unicode="&#x171;" horiz-adv-x="1220" 
d="M158 182v666q0 172 -56 317h347q-32 -79 -45 -150.5t-13 -166.5v-434q0 -110 47 -161.5t146 -51.5q110 0 227 65v582q0 175 -55 317h344q-56 -145 -56 -317v-531q0 -172 56 -317h-303q14 66 14 205l-152 -180q-93 -41 -210 -41q-213 0 -291 198zM399 1296h-96
q105 176 129 375h227q-89 -251 -260 -375zM791 1296h-97q105 176 129 375h228q-89 -251 -260 -375z" />
    <glyph glyph-name="Uogonek" unicode="&#x172;" horiz-adv-x="1595" 
d="M1468 0h-94q-64 -89 -84 -130.5t-20 -78.5q0 -67 61 -67q49 0 99 24l-44 -170q-59 -16 -116 -16q-104 0 -163.5 47.5t-59.5 124.5q0 62 47.5 124.5t156.5 141.5h-98q14 49 14 168q-259 -182 -487 -182q-245 0 -374.5 163.5t-129.5 477.5v569q0 152 -15 261t-50 220h374
q-35 -111 -50 -220t-15 -261v-571q0 -212 93.5 -322t262.5 -110q156 0 269.5 111t113.5 280v612q0 152 -15 261t-50 220h374q-35 -111 -50 -220t-15 -261v-715q0 -152 15 -261t50 -220z" />
    <glyph glyph-name="uogonek" unicode="&#x173;" horiz-adv-x="1220" 
d="M1100 0h-76q-64 -89 -84 -130.5t-20 -78.5q0 -67 61 -67q49 0 98 24l-43 -170q-59 -16 -116 -16q-104 0 -164 47.5t-60 124.5q0 62 48 124.5t157 141.5h-104q14 66 14 205l-152 -180q-93 -41 -210 -41q-213 0 -291 198v666q0 172 -56 317h347q-32 -79 -45 -150.5
t-13 -166.5v-434q0 -110 47 -161.5t146 -51.5q110 0 227 65v582q0 175 -55 317h344q-56 -145 -56 -317v-531q0 -172 56 -317z" />
    <glyph glyph-name="Wcircumflex" unicode="&#x174;" horiz-adv-x="2076" 
d="M1745 1677h358q-71 -153 -155 -452l-334 -1225h-238l-334 993l-335 -993h-242l-336 1225q-82 309 -158 452h363q-10 -68 -10 -116q0 -141 53 -336l223 -815l436 1280h11l434 -1274l221 809q53 201 53 334q0 50 -10 118zM1352 1747h-97q-129 95 -215 227
q-86 -132 -215 -227h-96q122 166 166 375h293q48 -216 164 -375z" />
    <glyph glyph-name="wcircumflex" unicode="&#x175;" horiz-adv-x="1667" 
d="M1378 1165h316v-6q-41 -55 -84 -143q-28 -57 -70 -195l-244 -821h-239l-230 784l-227 -784h-242l-208 778q-67 251 -179 381v6h385q-18 -59 -18 -127q0 -74 29 -184l145 -537l246 848h196l254 -862l150 500q37 121 37 241q0 62 -17 121zM1143 1296h-96q-130 95 -216 228
q-87 -134 -215 -228h-96q122 166 166 375h293q48 -216 164 -375z" />
    <glyph glyph-name="Ycircumflex" unicode="&#x176;" horiz-adv-x="1247" 
d="M950 1677h353v-6q-75 -81 -166 -244l-377 -663v-283q0 -152 15 -261t50 -220h-374q35 111 50 220t15 261v267l-379 659q-58 102 -102 162t-90 102v6h387q-4 -28 -4 -45q0 -86 67 -205l248 -436l248 443q63 114 63 208q0 15 -4 35zM936 1747h-96q-129 95 -215 227
q-86 -132 -215 -227h-97q122 166 166 375h293q48 -216 164 -375z" />
    <glyph glyph-name="ycircumflex" unicode="&#x177;" horiz-adv-x="1060" 
d="M750 1165h337v-6q-82 -114 -169 -340l-334 -864q-63 -159 -113.5 -244.5t-103.5 -116.5h-267v9q92 82 175.5 203t142.5 268l-289 762q-73 197 -158 323v6h367q-16 -50 -16 -102q0 -84 32 -166l191 -502l184 475q37 104 37 199q0 50 -16 96zM844 1296h-96
q-130 95 -216 228q-87 -134 -215 -228h-96q122 166 166 375h293q48 -216 164 -375z" />
    <glyph glyph-name="Ydieresis" unicode="&#x178;" horiz-adv-x="1247" 
d="M950 1677h353v-6q-75 -81 -166 -244l-377 -663v-283q0 -152 15 -261t50 -220h-374q35 111 50 220t15 261v267l-379 659q-58 102 -102 162t-90 102v6h387q-4 -28 -4 -45q0 -86 67 -205l248 -436l248 443q63 114 63 208q0 15 -4 35zM500 1786h-191q72 159 78 293h219
q-18 -151 -106 -293zM915 1786h-190q72 159 78 293h219q-18 -148 -107 -293z" />
    <glyph glyph-name="Zacute" unicode="&#x179;" horiz-adv-x="1236" 
d="M1253 322l4 -5l-122 -317h-1115q119 191 383 707q267 525 388 792q-67 6 -138 6q-172 0 -344 -41q-166 -40 -266 -114l-4 4l115 323h1005q-126 -235 -360 -710q-210 -428 -373 -785q64 -6 125 -6q495 0 702 146zM594 1747h-96q97 177 118 375h248q-89 -248 -270 -375z
" />
    <glyph glyph-name="zacute" unicode="&#x17a;" horiz-adv-x="880" 
d="M850 258l4 -4l-74 -254h-753q162 272 292 575l179 418h-197q-170 0 -256 -80l-4 5l53 247h740q-155 -306 -273 -583l-178 -410h113q117 0 200 19.5t154 66.5zM410 1296h-97q98 179 119 375h248q-89 -248 -270 -375z" />
    <glyph glyph-name="Zdotaccent" unicode="&#x17b;" horiz-adv-x="1236" 
d="M1253 322l4 -5l-122 -317h-1115q119 191 383 707q267 525 388 792q-67 6 -138 6q-172 0 -344 -41q-166 -40 -266 -114l-4 4l115 323h1005q-126 -235 -360 -710q-210 -428 -373 -785q64 -6 125 -6q495 0 702 146zM788 1935q0 -68 -47 -115.5t-114 -47.5q-69 0 -117.5 47.5
t-48.5 115.5t48.5 116t117.5 48q67 0 114 -48t47 -116z" />
    <glyph glyph-name="zdotaccent" unicode="&#x17c;" horiz-adv-x="880" 
d="M850 258l4 -4l-74 -254h-753q162 272 292 575l179 418h-197q-170 0 -256 -80l-4 5l53 247h740q-155 -306 -273 -583l-178 -410h113q117 0 200 19.5t154 66.5zM604 1485q0 -68 -47.5 -116t-114.5 -48q-69 0 -117.5 48t-48.5 116t48.5 116t117.5 48q67 0 114.5 -48
t47.5 -116z" />
    <glyph glyph-name="Zcaron" unicode="&#x17d;" horiz-adv-x="1236" 
d="M1253 322l4 -5l-122 -317h-1115q119 191 383 707q267 525 388 792q-67 6 -138 6q-172 0 -344 -41q-166 -40 -266 -114l-4 4l115 323h1005q-126 -235 -360 -710q-210 -428 -373 -785q64 -6 125 -6q495 0 702 146zM840 2122h96q-122 -166 -166 -375h-293q-48 216 -164 375
h97q128 -94 215 -228q87 134 215 228z" />
    <glyph glyph-name="zcaron" unicode="&#x17e;" horiz-adv-x="880" 
d="M850 258l4 -4l-74 -254h-753q162 272 292 575l179 418h-197q-170 0 -256 -80l-4 5l53 247h740q-155 -306 -273 -583l-178 -410h113q117 0 200 19.5t154 66.5zM655 1671h97q-122 -166 -166 -375h-293q-48 216 -164 375h96q129 -95 215 -227q86 132 215 227z" />
    <glyph glyph-name="longs" unicode="&#x17f;" horiz-adv-x="692" 
d="M186 317v695h-149v8l149 156v120q0 182 106.5 287t282.5 105q116 0 234 -31l-31 -240l-6 -2q-116 113 -213 113q-139 0 -139 -189v-1022q0 -175 55 -317h-344q55 142 55 317z" />
    <glyph glyph-name="Schwa" unicode="&#x18f;" horiz-adv-x="1708" 
d="M1610 866q3 -195 -63 -363t-179.5 -282.5t-266.5 -178.5t-323 -62q-327 0 -504.5 199t-177.5 571q0 94 13 190h1224q-28 246 -192.5 403.5t-397.5 157.5q-144 0 -273 -48t-218 -130l-6 2l35 262q205 111 493 111q240 3 433.5 -107.5t300 -302t102.5 -422.5zM1333 741
h-968v-12q0 -268 113 -407.5t327 -139.5q206 0 353 156.5t175 402.5z" />
    <glyph glyph-name="florin" unicode="&#x192;" horiz-adv-x="1155" 
d="M-90 -160l82 221h6q37 -94 108 -94q66 0 106.5 50.5t63.5 160.5l170 807h-147v6l180 150l29 139q44 215 156 316.5t297 101.5q106 0 184 -35l-78 -213h-6q-31 52 -59.5 75t-69.5 23q-66 0 -112 -54.5t-66 -158.5l-41 -198h155q56 0 121 10l-37 -172q-58 10 -104 10h-168
l-158 -752q-43 -211 -150.5 -314t-289.5 -103q-77 0 -172 24z" />
    <glyph glyph-name="Aringacute" unicode="&#x1fa;" horiz-adv-x="1656" 
d="M1712 6v-6h-407q6 21 6 55q0 110 -84 293l-80 184h-629l-90 -190q-86 -180 -86 -287q0 -19 4 -55h-401v6q111 135 239 387l625 1241q-70 17 -114 71.5t-44 127.5q0 61 34.5 113t90.5 75q53 115 68 224h248q-63 -144 -142 -232q50 -25 79.5 -74t29.5 -106
q0 -73 -45 -128.5t-115 -72.5l582 -1245q54 -120 105 -203.5t126 -177.5zM856 1720q47 0 80 33t33 80t-33 80t-80 33t-80 -33t-33 -80t33 -80t80 -33zM844 1221l-234 -496h451z" />
    <glyph glyph-name="aringacute" unicode="&#x1fb;" horiz-adv-x="1015" 
d="M305 1485q0 61 34.5 113t90.5 75q53 115 68 223h247q-63 -144 -141 -231q50 -25 79.5 -74t29.5 -106q0 -86 -59 -145.5t-144 -59.5q-86 0 -145.5 59.5t-59.5 145.5zM397 1485q0 -47 33 -80t80 -33t80 33t33 80t-33 79.5t-80 32.5t-80 -32.5t-33 -79.5zM924 0h-297v131
q-100 -59 -195 -135q-10 -2 -45 -2q-163 0 -253.5 78t-90.5 213q0 96 60.5 168.5t209.5 142.5q69 34 314 137v47q0 102 -58.5 159.5t-158.5 57.5q-131 0 -256 -79l-4 4l81 225q112 37 242 37q190 0 288.5 -93t98.5 -272v-502q0 -99 14 -168.5t50 -148.5zM627 195v325h-295
q-39 -68 -39 -151q0 -183 256 -183q37 0 78 9z" />
    <glyph glyph-name="AEacute" unicode="&#x1fc;" horiz-adv-x="1982" 
d="M1976 279l4 -5l-118 -274h-885q36 107 50.5 215.5t14.5 265.5v260h-417l-150 -274q-76 -143 -108.5 -251.5t-34.5 -215.5h-412v6q119 144 211 318l588 1085q83 157 104 268h1061l-121 -264q-195 98 -477 98v-577h539l-142 -264q-166 84 -397 84v-590q203 0 367 27.5
t323 87.5zM1042 1513l-313 -579h313v579zM1135 1747h-97q98 179 119 375h248q-89 -248 -270 -375z" />
    <glyph glyph-name="aeacute" unicode="&#x1fd;" horiz-adv-x="1595" 
d="M1518 592l-656 -19q10 -202 101.5 -292.5t263.5 -90.5q136 0 264 84l4 -4l-68 -227q-123 -57 -270 -57q-297 0 -434 211q-130 -84 -270 -201q-14 -2 -66 -2q-163 0 -253.5 78t-90.5 213q0 95 60 165t210 140q69 34 314 137v53q0 102 -58.5 159.5t-158.5 57.5
q-131 0 -256 -79l-4 4l81 225q112 37 242 37q223 0 313 -140q134 140 336 140q194 0 298 -122t104 -341q0 -79 -6 -129zM866 721h461q0 149 -58.5 227t-170.5 78q-205 0 -232 -305zM627 195v325h-295q-39 -68 -39 -151q0 -183 256 -183q37 0 78 9zM782 1296h-96
q98 179 119 375h248q-89 -247 -271 -375z" />
    <glyph glyph-name="Oslashacute" unicode="&#x1fe;" horiz-adv-x="1943" 
d="M1845 850q4 -183 -65.5 -346.5t-189 -279t-284 -181.5t-345.5 -63q-209 0 -381 81q-48 -82 -82 -174l-265 76l33 41q113 140 135 170q-145 121 -225 296t-80 368q-3 170 66.5 330.5t187 277.5t280.5 186.5t339 65.5q211 0 391 -82q41 71 82 176l266 -76
q-116 -138 -168 -211q144 -114 224.5 -284t80.5 -371zM549 375l94 139l557 844q24 30 43 65q-151 97 -323 97q-112 0 -213 -46t-176.5 -126.5t-119.5 -199t-44 -255.5q0 -148 47.5 -283.5t134.5 -234.5zM1577 788q0 297 -188 510q-42 -59 -91 -133l-559 -843
q-6 -10 -22 -34.5t-25 -39.5q143 -90 318 -90q163 0 293.5 84.5t202 228t71.5 317.5zM940 1747h-96q98 179 119 375h247q-89 -248 -270 -375z" />
    <glyph glyph-name="oslashacute" unicode="&#x1ff;" horiz-adv-x="1251" 
d="M1180 594q2 -100 -28.5 -195t-86.5 -169t-128 -130.5t-156.5 -86t-168.5 -27.5q-108 0 -209 37q-23 -56 -38 -109l-220 47q28 37 109 150q-182 155 -182 446q-3 134 46 254t129 201t182 127.5t204 44.5q126 0 217 -39q22 55 39 106l219 -47q-75 -97 -109 -151
q87 -76 134 -193.5t47 -265.5zM336 606q0 -155 61 -268q1 3 17 31l340 592l2 4q-71 53 -150 53q-117 0 -193.5 -111t-76.5 -301zM915 573q0 145 -55 258l-4 -6l-350 -610l-2 -4q70 -55 151 -64q115 18 187.5 133.5t72.5 292.5zM596 1296h-96q97 177 118 375h248
q-89 -248 -270 -375z" />
    <glyph glyph-name="Scommaaccent" unicode="&#x218;" horiz-adv-x="1122" 
d="M113 45v340h8q110 -126 186 -170q80 -47 185 -47q111 0 186.5 71.5t75.5 176.5q0 91 -65 159t-255 175q-184 103 -258 208q-74 109 -74 263q-1 89 37.5 176.5t105 154.5t163.5 107.5t204 38.5q172 0 320 -74v-254l-6 -2q-83 72 -155 101.5t-159 29.5q-117 0 -189.5 -69.5
t-72.5 -165.5q0 -95 67.5 -172t235.5 -170q142 -80 215.5 -141t111 -137.5t40.5 -186.5q0 -145 -74.5 -255t-199 -166t-279.5 -56q-197 0 -354 65zM467 -438h-178q96 131 96 233q0 65 -29 121h285q-18 -97 -58.5 -177.5t-115.5 -176.5z" />
    <glyph glyph-name="scommaaccent" unicode="&#x219;" horiz-adv-x="829" 
d="M76 29l14 323h6q69 -117 128 -163t141 -46q75 0 115 37.5t40 106.5q0 63 -39 108q-43 54 -149 119q-121 78 -170 155.5t-49 182.5q0 144 107 238t276 94q117 0 227 -35v-221h-6q-65 55 -116 77.5t-107 22.5q-69 0 -107.5 -33.5t-38.5 -93.5q0 -62 39.5 -110.5
t140.5 -110.5q125 -75 178.5 -154t53.5 -188q0 -164 -107 -258t-278 -94q-142 0 -299 43zM358 -438h-178q96 131 96 233q0 67 -28 121h284q-18 -97 -58.5 -177.5t-115.5 -176.5z" />
    <glyph glyph-name="uni021A" unicode="&#x21a;" horiz-adv-x="1282" 
d="M508 481v1020q-305 0 -531 -112l-4 4l84 284h1254l-115 -266q-99 48 -202 69t-242 21v-1020q0 -152 15 -261t50 -220h-375q37 108 51.5 216.5t14.5 264.5zM598 -438h-178q96 131 96 233q0 65 -29 121h285q-18 -97 -58.5 -177.5t-115.5 -176.5z" />
    <glyph glyph-name="uni021B" unicode="&#x21b;" horiz-adv-x="792" 
d="M420 1417v-252h321v-153h-321v-695q0 -77 35.5 -111t111.5 -34q88 0 201 35l4 -4l-141 -197q-95 -18 -164 -18q-149 0 -215 63.5t-66 208.5v752h-149v8l375 397h8zM406 -438h-179q97 132 97 233q0 65 -29 121h285q-18 -97 -58.5 -177.5t-115.5 -176.5z" />
    <glyph glyph-name="dotlessj" unicode="&#x237;" horiz-adv-x="583" 
d="M174 135v713q0 175 -55 317h344q-55 -142 -55 -317v-713q0 -352 -183 -541h-215q90 116 127 234q37 115 37 307z" />
    <glyph glyph-name="schwa" unicode="&#x259;" horiz-adv-x="1042" 
d="M971 596q0 -140 -40 -256.5t-109 -194t-162 -120.5t-199 -43q-195 0 -298.5 121.5t-103.5 340.5q0 134 15 211l641 19q-18 165 -102 240t-232 75q-136 0 -264 -82l-4 4l63 211q125 58 270 58q249 0 387 -149.5t138 -434.5zM721 526h-432q-4 -36 -4 -82q0 -149 52 -227
t152 -78q220 0 232 387z" />
    <glyph glyph-name="uni02BC" unicode="&#x2bc;" horiz-adv-x="573" 
d="M268 1155h-223q148 201 148 365q0 92 -35 157h356q-24 -143 -81.5 -262.5t-164.5 -259.5z" />
    <glyph glyph-name="circumflex" unicode="&#x2c6;" horiz-adv-x="827" 
d="M725 1296h-96q-128 94 -215 228q-87 -134 -215 -228h-97q122 166 166 375h293q48 -216 164 -375z" />
    <glyph glyph-name="caron" unicode="&#x2c7;" horiz-adv-x="827" 
d="M629 1671h96q-122 -166 -166 -375h-293q-48 216 -164 375h97q129 -95 215 -227q86 132 215 227z" />
    <glyph glyph-name="uni02C9" unicode="&#x2c9;" horiz-adv-x="862" 
d="M760 1591v-211q-114 15 -287 15h-84q-173 0 -287 -15v211q106 -14 287 -14h84q181 0 287 14z" />
    <glyph glyph-name="breve" unicode="&#x2d8;" horiz-adv-x="796" 
d="M397 1296q-145 0 -220 92t-75 259h111q0 -67 50 -107.5t134 -40.5t135.5 41t51.5 107h110q0 -167 -75.5 -259t-221.5 -92z" />
    <glyph glyph-name="dotaccent" unicode="&#x2d9;" horiz-adv-x="532" 
d="M430 1485q0 -68 -47.5 -116t-114.5 -48q-69 0 -117.5 48t-48.5 116t48.5 116t117.5 48q67 0 114.5 -48t47.5 -116z" />
    <glyph glyph-name="ring" unicode="&#x2da;" horiz-adv-x="612" 
d="M510 1485q0 -86 -59 -145.5t-144 -59.5q-86 0 -145.5 59.5t-59.5 145.5q0 85 59.5 145t145.5 60q85 0 144 -60t59 -145zM195 1485q0 -47 32.5 -80t79.5 -33t80 33t33 80t-33 79.5t-80 32.5t-79.5 -32.5t-32.5 -79.5z" />
    <glyph glyph-name="ogonek" unicode="&#x2db;" horiz-adv-x="587" 
d="M102 -266q0 67 54.5 132.5t185.5 158.5l88 -25q-64 -89 -84 -130.5t-20 -78.5q0 -67 61 -67q49 0 98 24l-43 -170q-59 -16 -116 -16q-104 0 -164 47.5t-60 124.5z" />
    <glyph glyph-name="tilde" unicode="&#x2dc;" horiz-adv-x="1034" 
d="M684 1331q-46 0 -87.5 15.5t-102.5 50.5q-59 31 -88 42t-60 11q-43 0 -69.5 -25.5t-26.5 -64.5q0 -9 4 -29h-152q0 134 64 217.5t182 83.5q46 0 84.5 -14t108.5 -51q62 -32 89.5 -43t57.5 -11q42 0 69 26t27 65q0 8 -4 28h152q0 -134 -65 -217.5t-183 -83.5z" />
    <glyph glyph-name="hungarumlaut" unicode="&#x2dd;" horiz-adv-x="952" 
d="M199 1296h-97q105 176 129 375h228q-89 -251 -260 -375zM590 1296h-96q105 176 129 375h227q-89 -251 -260 -375z" />
    <glyph glyph-name="gravecomb" unicode="&#x300;" 
d="M-469 1671h248q21 -196 119 -375h-97q-181 127 -270 375z" />
    <glyph glyph-name="acutecomb" unicode="&#x301;" 
d="M-373 1296h-96q98 179 119 375h248q-89 -247 -271 -375z" />
    <glyph glyph-name="circumflexcomb" unicode="&#x302;" 
d="M-102 1296h-97q-128 94 -215 228q-87 -134 -215 -228h-96q122 166 166 375h293q48 -216 164 -375z" />
    <glyph glyph-name="tildecomb" unicode="&#x303;" 
d="M-350 1331q-47 0 -89 15.5t-102 50.5q-60 32 -88 42.5t-59 10.5q-43 0 -69.5 -25.5t-26.5 -64.5q0 -9 4 -29h-152q0 134 64 217.5t182 83.5q46 0 83.5 -14t108.5 -51q61 -32 89.5 -43t58.5 -11q42 0 69 26t27 65q0 8 -4 28h152q0 -134 -65 -217.5t-183 -83.5z" />
    <glyph glyph-name="macroncomb" unicode="&#x304;" 
d="M-102 1591v-211q-114 15 -287 15h-84q-173 0 -287 -15v211q106 -14 287 -14h84q181 0 287 14z" />
    <glyph glyph-name="brevecomb" unicode="&#x306;" 
d="M-399 1296q-145 0 -220 92t-75 259h110q0 -66 50.5 -107t134.5 -41t135 41t51 107h111q0 -167 -75.5 -259t-221.5 -92z" />
    <glyph glyph-name="dotaccentcomb" unicode="&#x307;" 
d="M-102 1485q0 -68 -47.5 -116t-114.5 -48q-69 0 -117.5 48t-48.5 116t48.5 116t117.5 48q67 0 114.5 -48t47.5 -116z" />
    <glyph glyph-name="dieresiscomb" unicode="&#x308;" 
d="M-625 1335h-190q72 159 78 293h219q-18 -148 -107 -293zM-209 1335h-190q71 157 77 293h220q-18 -148 -107 -293z" />
    <glyph glyph-name="ringcomb" unicode="&#x30a;" 
d="M-102 1485q0 -86 -59 -145.5t-144 -59.5q-86 0 -145.5 59.5t-59.5 145.5q0 85 59.5 145t145.5 60q85 0 144 -60t59 -145zM-418 1485q0 -47 33 -80t80 -33t79.5 33t32.5 80t-32.5 79.5t-79.5 32.5t-80 -32.5t-33 -79.5z" />
    <glyph glyph-name="hungarumlautcomb" unicode="&#x30b;" 
d="M-754 1296h-96q105 176 129 375h227q-89 -251 -260 -375zM-362 1296h-97q105 176 129 375h228q-89 -251 -260 -375z" />
    <glyph glyph-name="caroncomb" unicode="&#x30c;" 
d="M-199 1671h97q-122 -166 -166 -375h-293q-48 216 -164 375h96q129 -95 215 -227q86 132 215 227z" />
    <glyph glyph-name="commaturnedabovecomb" unicode="&#x312;" 
d="M-281 1636h179q-97 -132 -97 -233q0 -65 29 -121h-285q18 97 58.5 177.5t115.5 176.5z" />
    <glyph glyph-name="uni0313" unicode="&#x313;" 
d="M-303 1255h-96q54 185 69 416h228q-68 -271 -201 -416z" />
    <glyph glyph-name="commaaccent" unicode="&#x326;" 
d="M-276 -438h-179q97 132 97 233q0 65 -29 121h285q-18 -97 -58.5 -177.5t-115.5 -176.5z" />
    <glyph glyph-name="cedillacomb" unicode="&#x327;" 
d="M-102 -256q0 -82 -70 -136t-182 -54q-90 0 -181 24l39 109q57 -11 95 -11q133 0 133 78q0 35 -30.5 55.5t-84.5 20.5q-14 0 -68 -4l58 184h112l-24 -80q96 -6 149.5 -57.5t53.5 -128.5z" />
    <glyph glyph-name="ogonekcomb" unicode="&#x328;" 
d="M-485 -266q0 67 54 132.5t185 158.5l88 -25q-64 -89 -84 -130.5t-20 -78.5q0 -67 61 -67q49 0 99 24l-43 -170q-59 -16 -117 -16q-104 0 -163.5 47.5t-59.5 124.5z" />
    <glyph glyph-name="uni0337" unicode="&#x337;" 
d="M-795 553v244q117 23 283 98l33 16q223 102 377 193v-244q-117 -23 -283 -98l-33 -17q-230 -105 -377 -192z" />
    <glyph glyph-name="uni0338" unicode="&#x338;" 
d="M-846 -125l-219 47q140 183 260 393l340 592q114 202 143 305l220 -47q-140 -183 -260 -393l-340 -592q-116 -205 -144 -305z" />
    <glyph glyph-name="numeralsigngreek" unicode="&#x374;" horiz-adv-x="489" 
d="M199 1124h-158q98 263 119 553h289q-105 -337 -250 -553z" />
    <glyph glyph-name="numeralsignlowergreek" unicode="&#x375;" horiz-adv-x="489" 
d="M291 244h158q-98 -263 -119 -553h-289q105 337 250 553z" />
    <glyph glyph-name="questiongreek" unicode="&#x37e;" horiz-adv-x="575" 
d="M481 1001q0 -82 -50 -133t-132 -51t-133 51t-51 133t51 132.5t133 50.5t132 -50.5t50 -132.5zM131 -367h-158q170 348 170 568q0 71 -22 151h350q-26 -168 -109 -334q-74 -151 -231 -385z" />
    <glyph glyph-name="tonos" unicode="&#x384;" horiz-adv-x="542" 
d="M313 1294h-211q72 210 78 383h260q-21 -197 -127 -383z" />
    <glyph glyph-name="dieresistonos" unicode="&#x385;" horiz-adv-x="1026" 
d="M530 1294h-157q72 210 78 383h206q-21 -197 -127 -383zM281 1356h-179q64 131 70 252h207q-18 -131 -98 -252zM825 1356h-178q64 131 70 252h207q-18 -129 -99 -252z" />
    <glyph glyph-name="Alphatonos" unicode="&#x386;" horiz-adv-x="1656" 
d="M1712 6v-6h-407q6 21 6 55q0 110 -84 293l-80 184h-629l-90 -190q-86 -180 -86 -287q0 -19 4 -55h-401v6q111 135 239 387l668 1325h6l623 -1331q54 -120 105 -203.5t126 -177.5zM344 1233h-170q72 246 78 444h219q-21 -224 -127 -444zM844 1221l-234 -496h451z" />
    <glyph glyph-name="anoteleia" unicode="&#x387;" horiz-adv-x="528" 
d="M446 1167q0 -82 -50 -133t-132 -51t-133 51t-51 133t51 132.5t133 50.5t132 -50.5t50 -132.5z" />
    <glyph glyph-name="Epsilontonos" unicode="&#x388;" horiz-adv-x="1337" 
d="M139 1233h-170q72 246 78 444h219q-21 -224 -127 -444zM397 481v715q0 152 -15 261t-50 220h907l-121 -264q-195 98 -477 98v-573h539l-144 -242q-168 63 -395 72v-604q203 0 367 27.5t323 87.5l4 -5l-118 -274h-885q35 111 50 220t15 261z" />
    <glyph glyph-name="Etatonos" unicode="&#x389;" horiz-adv-x="1816" 
d="M47 1677h219q-21 -224 -127 -444h-170q72 246 78 444zM1624 1196v-715q0 -151 15 -260.5t51 -220.5h-375q35 111 50 220t15 261v260h-739v-260q0 -151 15 -260.5t51 -220.5h-375q35 111 50 220t15 261v715q0 152 -15 261t-50 220h375q-36 -111 -51 -220.5t-15 -260.5
v-256h739v256q0 152 -15 261t-50 220h375q-36 -111 -51 -220.5t-15 -260.5z" />
    <glyph glyph-name="Iotatonos" unicode="&#x38a;" horiz-adv-x="833" 
d="M139 1233h-170q72 246 78 444h219q-21 -224 -127 -444zM397 481v715q0 152 -15 261t-50 220h375q-36 -111 -51 -220.5t-15 -260.5v-715q0 -151 15 -260.5t51 -220.5h-375q35 111 50 220t15 261z" />
    <glyph glyph-name="Omicrontonos" unicode="&#x38c;" horiz-adv-x="2066" 
d="M1968 850q4 -183 -65.5 -346.5t-189.5 -279t-284.5 -181.5t-345.5 -63q-150 -3 -287 43t-241.5 128.5t-182 191t-116.5 236.5t-37 259q-3 170 66.5 330.5t187 277.5t280.5 186.5t339 65.5q176 2 338 -61t281.5 -173.5t189.5 -271t67 -342.5zM139 1233h-170q72 246 78 444
h219q-21 -224 -127 -444zM489 893q-2 -143 46 -278t132.5 -237t206.5 -162.5t259 -57.5q163 0 293.5 84.5t202 228t71.5 317.5q2 143 -50.5 279t-141.5 236.5t-212 160.5t-254 56q-112 0 -213 -46t-176.5 -126.5t-119.5 -199t-44 -255.5z" />
    <glyph glyph-name="Upsilontonos" unicode="&#x38e;" horiz-adv-x="1595" 
d="M47 1677h219q-21 -224 -127 -444h-170q72 246 78 444zM1298 1677h353v-6q-75 -81 -166 -244l-377 -663v-283q0 -151 15 -260.5t51 -220.5h-375q35 111 50 220t15 261v267l-379 659q-58 102 -102 162t-90 102v6h387q-4 -28 -4 -45q0 -86 67 -205l248 -436l248 443
q64 116 64 208q0 10 -5 35z" />
    <glyph glyph-name="Omegatonos" unicode="&#x38f;" horiz-adv-x="1923" 
d="M1874 344l4 -4l-133 -340h-653l49 246q204 168 299.5 328t95.5 337q3 158 -72.5 300.5t-205.5 227.5t-277 81q-124 0 -226.5 -62.5t-163.5 -178.5t-61 -263q0 -206 106 -403.5t296 -366.5l-49 -246h-623l-63 319l4 5q213 -131 532 -131h23q-496 317 -496 768
q-3 146 58 283t165 237.5t248 160t299 56.5q157 2 300 -52t248.5 -149t167 -232t58.5 -292q0 -480 -485 -778q297 14 555 149zM47 1677h219q-21 -224 -127 -444h-170q72 246 78 444z" />
    <glyph glyph-name="iotadieresistonos" unicode="&#x390;" horiz-adv-x="626" 
d="M158 258v592q0 170 -56 315h344q-55 -142 -55 -315v-539q0 -77 30 -111t97 -34q68 0 154 24l4 -4l-103 -178q-70 -20 -157 -20q-135 0 -196.5 64t-61.5 206zM346 1294h-158q72 210 78 383h207q-21 -197 -127 -383zM96 1356h-178q64 131 70 252h207q-18 -129 -99 -252z
M641 1356h-178q63 129 69 252h207q-18 -131 -98 -252z" />
    <glyph glyph-name="Alpha" unicode="&#x391;" horiz-adv-x="1656" 
d="M1712 6v-6h-407q6 21 6 55q0 110 -84 293l-80 184h-629l-90 -190q-86 -180 -86 -287q0 -19 4 -55h-401v6q111 135 239 387l668 1325h6l623 -1331q54 -120 105 -203.5t126 -177.5zM844 1221l-234 -496h451z" />
    <glyph glyph-name="Beta" unicode="&#x392;" horiz-adv-x="1208" 
d="M1122 463q0 -133 -80.5 -239.5t-216 -165t-297.5 -58.5h-401q36 111 51 220.5t15 260.5v715q0 151 -15 260.5t-51 220.5h397q229 0 372.5 -119t143.5 -303q0 -104 -60 -196t-169 -160q162 -95 236.5 -198t74.5 -238zM436 1536v-633q161 30 256.5 125t95.5 215
q0 126 -99.5 209.5t-252.5 83.5zM864 463q0 144 -120.5 260.5t-307.5 146.5v-729q199 0 313.5 90t114.5 232z" />
    <glyph glyph-name="Gamma" unicode="&#x393;" horiz-adv-x="1026" 
d="M193 481v715q0 151 -15 260.5t-51 220.5h928l-115 -266q-109 48 -227 69t-277 21v-1020q0 -151 15 -260.5t51 -220.5h-375q36 111 51 220.5t15 260.5z" />
    <glyph glyph-name="uni0394" unicode="&#x394;" horiz-adv-x="1654" 
d="M1710 6v-6h-1765v6q98 119 237 387l668 1325h6l623 -1331q111 -240 231 -381zM836 1237l-484 -1012h926z" />
    <glyph glyph-name="Epsilon" unicode="&#x395;" horiz-adv-x="1132" 
d="M193 481v715q0 151 -15 260.5t-51 220.5h907l-121 -264q-195 98 -477 98v-573h539l-144 -242q-168 63 -395 72v-604q203 0 367 27.5t323 87.5l4 -5l-118 -274h-885q36 111 51 220.5t15 260.5z" />
    <glyph glyph-name="Zeta" unicode="&#x396;" horiz-adv-x="1236" 
d="M1253 322l4 -5l-122 -317h-1115q119 191 383 707q267 525 388 792q-67 6 -138 6q-172 0 -344 -41q-166 -40 -266 -114l-4 4l115 323h1005q-126 -235 -360 -710q-210 -428 -373 -785q64 -6 125 -6q495 0 702 146z" />
    <glyph glyph-name="Eta" unicode="&#x397;" horiz-adv-x="1611" 
d="M1419 1196v-715q0 -151 15 -260.5t51 -220.5h-375q36 111 51 220.5t15 260.5v260h-740v-260q0 -151 15 -260.5t51 -220.5h-375q36 111 51 220.5t15 260.5v715q0 151 -15 260.5t-51 220.5h375q-36 -111 -51 -220.5t-15 -260.5v-256h740v256q0 151 -15 260.5t-51 220.5h375
q-36 -111 -51 -220.5t-15 -260.5z" />
    <glyph glyph-name="Theta" unicode="&#x398;" horiz-adv-x="1943" 
d="M1845 850q4 -183 -65.5 -346.5t-189 -279t-284 -181.5t-345.5 -63q-150 -3 -287 43t-241.5 128.5t-182 191t-117 236.5t-37.5 259q-3 170 66.5 330.5t187 277.5t280.5 186.5t339 65.5q176 2 338 -61t281.5 -173.5t189.5 -271t67 -342.5zM367 893q-2 -143 46 -278
t132 -237t206 -162.5t259 -57.5q163 0 293.5 84.5t202 228t71.5 317.5q2 143 -50.5 279t-141 236.5t-211.5 160.5t-254 56q-112 0 -213 -46t-176.5 -126.5t-119.5 -199t-44 -255.5zM1393 952v-225q-66 14 -185 14h-495q-119 0 -185 -14v225q66 -14 185 -14h495q119 0 185 14
z" />
    <glyph glyph-name="Iota" unicode="&#x399;" horiz-adv-x="628" 
d="M193 481v715q0 151 -15 260.5t-51 220.5h375q-36 -111 -51 -220.5t-15 -260.5v-715q0 -151 15 -260.5t51 -220.5h-375q36 111 51 220.5t15 260.5z" />
    <glyph glyph-name="Kappa" unicode="&#x39a;" horiz-adv-x="1468" 
d="M1530 8v-8h-436q-12 59 -63 148.5t-126 183.5l-469 577v-428q0 -151 15 -260.5t51 -220.5h-375q36 111 51 220.5t15 260.5v715q0 151 -15 260.5t-51 220.5h375q-36 -111 -51 -220.5t-15 -260.5v-262l422 506q55 65 78 117t29 120h462v-8q-225 -173 -399 -379l-301 -360
l504 -621q173 -204 299 -301z" />
    <glyph glyph-name="Lambda" unicode="&#x39b;" horiz-adv-x="1654" 
d="M1710 6v-6h-407q6 21 6 55q0 110 -84 293l-381 871l-418 -877q-86 -180 -86 -287q0 -19 4 -55h-399v6q98 119 237 387l668 1325h6l623 -1331q111 -240 231 -381z" />
    <glyph glyph-name="Mu" unicode="&#x39c;" horiz-adv-x="2027" 
d="M1835 1278v-797q0 -151 15 -260.5t51 -220.5h-375q36 107 50.5 215.5t14.5 265.5v750l-579 -717l-576 711v-744q0 -151 15 -260.5t51 -220.5h-375q37 108 51.5 216.5t14.5 264.5v1016q-68 88 -164 174v6h370q48 -116 164 -256l451 -557l502 623q78 96 124 190h322v-6
q-78 -96 -102 -176q-25 -83 -25 -217z" />
    <glyph glyph-name="Nu" unicode="&#x39d;" horiz-adv-x="1837" 
d="M1645 1130v-583q0 -342 45 -547h-310q-32 95 -137 223l-766 971v-647q0 -183 15 -303q16 -125 51 -244h-375q35 117 51 246q14 112 14 301v903q-97 121 -208 219v8h413q28 -68 66 -125q39 -59 123 -163l774 -981v722q0 182 -15 302q-16 127 -51 245h375
q-36 -119 -51 -243q-14 -112 -14 -304z" />
    <glyph glyph-name="Xi" unicode="&#x39e;" horiz-adv-x="1327" 
d="M131 1368l-4 4l88 305h1055l-131 -295q-207 86 -498 86q-289 0 -510 -100zM641 754q-275 0 -418 -33l-4 4l80 258q150 -25 436 -25q264 0 426 33l4 -4l-100 -268q-149 35 -424 35zM20 0l134 307q207 -86 497 -86q200 0 358 24.5t312 78.5l4 -5l-125 -319h-1180z" />
    <glyph glyph-name="Omicron" unicode="&#x39f;" horiz-adv-x="1943" 
d="M1845 850q4 -183 -65.5 -346.5t-189 -279t-284 -181.5t-345.5 -63q-150 -3 -287 43t-241.5 128.5t-182 191t-117 236.5t-37.5 259q-3 170 66.5 330.5t187 277.5t280.5 186.5t339 65.5q176 2 338 -61t281.5 -173.5t189.5 -271t67 -342.5zM367 893q-2 -143 46 -278
t132 -237t206 -162.5t259 -57.5q163 0 293.5 84.5t202 228t71.5 317.5q2 143 -50.5 279t-141 236.5t-211.5 160.5t-254 56q-112 0 -213 -46t-176.5 -126.5t-119.5 -199t-44 -255.5z" />
    <glyph glyph-name="Pi" unicode="&#x3a0;" horiz-adv-x="1570" 
d="M193 481v715q0 151 -15 260.5t-51 220.5h1317q-36 -111 -51 -220.5t-15 -260.5v-715q0 -151 15 -260.5t51 -220.5h-375q36 111 51 220.5t15 260.5v998h-699v-998q0 -151 15 -260.5t51 -220.5h-375q36 111 51 220.5t15 260.5z" />
    <glyph glyph-name="Rho" unicode="&#x3a1;" horiz-adv-x="1187" 
d="M1128 1174q0 -230 -165 -367t-441 -137q-32 0 -86 4v-193q0 -151 15 -260.5t51 -220.5h-375q36 111 51 220.5t15 260.5v715q0 151 -15 260.5t-51 220.5h356q154 0 277.5 -38.5t203 -107t122 -159.5t42.5 -198zM872 1169q0 156 -115 257t-313 108q-8 -79 -8 -231v-537
q200 20 318 131t118 272z" />
    <glyph glyph-name="Sigma" unicode="&#x3a3;" horiz-adv-x="1302" 
d="M1296 291l4 -4l-124 -287h-1156v6q323 448 564 838l-512 827v6h1153l-123 -270q-195 98 -477 98h-172l409 -661q-242 -323 -452 -668h196q203 0 367 27.5t323 87.5z" />
    <glyph glyph-name="Tau" unicode="&#x3a4;" horiz-adv-x="1282" 
d="M508 481v1020q-305 0 -531 -112l-4 4l84 284h1254l-115 -266q-99 48 -202 69t-242 21v-1020q0 -152 15 -261t50 -220h-375q37 108 51.5 216.5t14.5 264.5z" />
    <glyph glyph-name="Upsilon" unicode="&#x3a5;" horiz-adv-x="1247" 
d="M950 1677h353v-6q-75 -81 -166 -244l-377 -663v-283q0 -152 15 -261t50 -220h-374q35 111 50 220t15 261v267l-379 659q-58 102 -102 162t-90 102v6h387q-4 -28 -4 -45q0 -86 67 -205l248 -436l248 443q63 114 63 208q0 15 -4 35z" />
    <glyph glyph-name="Phi" unicode="&#x3a6;" horiz-adv-x="1841" 
d="M1063 133q13 -69 43 -174h-375q30 103 43 172q-216 14 -374 110t-236 244.5t-78 331.5q0 192 87.5 352t244.5 258.5t356 114.5q-14 79 -43 176h375q-30 -105 -43 -174q314 -22 502 -203t188 -471q0 -307 -190 -508t-500 -229zM795 317q2 25 2 123v797q0 102 -2 129
q-197 -6 -318 -137.5t-121 -356.5q0 -226 114.5 -375.5t324.5 -179.5zM1485 809q0 216 -119 365q-116 149 -324 184q-2 -27 -2 -121v-797q0 -104 2 -131q208 9 324 146q119 137 119 354z" />
    <glyph glyph-name="Chi" unicode="&#x3a7;" horiz-adv-x="1484" 
d="M1456 6v-6h-461q6 34 6 66q0 106 -88 251l-184 308l-213 -340q-88 -140 -88 -240q0 -9 4 -45h-412v6q147 153 359 494l217 346l-217 358q-101 164 -176.5 271t-157.5 196v6h416q-4 -36 -4 -43q0 -96 73 -221l213 -354l185 293q102 164 102 284q0 9 -4 41h406v-6
q-70 -84 -150 -201q-106 -151 -168 -253l-237 -377l206 -344q97 -162 198 -294t175 -196z" />
    <glyph glyph-name="Psi" unicode="&#x3a8;" horiz-adv-x="1796" 
d="M1421 1677h363q-86 -239 -137 -499q-44 -245 -210 -400t-419 -186v-111q0 -152 15 -261t50 -220h-374q35 111 50 220t15 261v107q-268 12 -419.5 162t-204.5 428q-50 263 -136 499h361q-23 -84 -23 -190q0 -357 137 -535q55 -69 121.5 -105t163.5 -46v395q0 152 -15 261
t-50 220h374q-35 -111 -50 -220t-15 -261v-393q219 29 320.5 199t101.5 485q0 100 -19 190z" />
    <glyph glyph-name="uni03A9" unicode="&#x3a9;" horiz-adv-x="1779" 
d="M1731 344l4 -4l-133 -340h-654l49 246q204 169 300 328.5t96 336.5q3 158 -72.5 300.5t-205.5 227.5t-277 81q-124 0 -226.5 -62.5t-163.5 -178.5t-61 -263q0 -206 105.5 -403.5t295.5 -366.5l-49 -246h-622l-64 319l4 5q213 -131 533 -131h22q-495 317 -495 768
q-3 146 58 283t165 237.5t248 160t299 56.5q157 2 300 -52t248.5 -149t167 -232t58.5 -292q0 -480 -485 -778q297 14 555 149z" />
    <glyph glyph-name="Iotadieresis" unicode="&#x3aa;" horiz-adv-x="628" 
d="M193 481v715q0 151 -15 260.5t-51 220.5h375q-36 -111 -51 -220.5t-15 -260.5v-715q0 -151 15 -260.5t51 -220.5h-375q36 111 51 220.5t15 260.5zM190 1847h-190q72 159 78 293h219q-18 -148 -107 -293zM606 1847h-190q72 159 78 293h219q-18 -148 -107 -293z" />
    <glyph glyph-name="Upsilondieresis" unicode="&#x3ab;" horiz-adv-x="1247" 
d="M950 1677h353v-6q-75 -81 -166 -244l-377 -663v-283q0 -152 15 -261t50 -220h-374q35 111 50 220t15 261v267l-379 659q-58 102 -102 162t-90 102v6h387q-4 -28 -4 -45q0 -86 67 -205l248 -436l248 443q63 114 63 208q0 15 -4 35zM500 1847h-191q72 159 78 293h219
q-18 -151 -106 -293zM915 1847h-190q72 159 78 293h219q-18 -148 -107 -293z" />
    <glyph glyph-name="alphatonos" unicode="&#x3ac;" horiz-adv-x="1239" 
d="M1227 174l4 -4l-105 -174q-41 -8 -94 -8q-118 0 -171.5 56t-53.5 183v41q-94 -172 -178 -262q-65 -18 -133 -18q-180 0 -302 146.5t-122 389.5q-3 162 63.5 315.5t182 248.5t243.5 90q163 0 246 -209h4l23 196h274q-36 -105 -53 -231q-15 -114 -15 -309v-334
q0 -66 26 -95.5t81 -29.5q44 0 80 8zM807 371v503q-123 111 -297 111q-70 0 -119 -14q-63 -147 -63 -355q0 -197 66.5 -308t174.5 -111q68 0 134 47.5t104 126.5zM651 1294h-211q72 210 78 383h260q-21 -197 -127 -383z" />
    <glyph glyph-name="epsilontonos" unicode="&#x3ad;" horiz-adv-x="974" 
d="M940 213l4 -4l-113 -199q-79 -24 -188 -24q-92 0 -175.5 21.5t-156 68t-125.5 113.5t-83.5 163t-30.5 211q0 177 73.5 317.5t213 222t323.5 81.5q116 0 248 -29l-53 -248l-7 -2q-112 103 -239 103q-123 0 -205 -77.5t-100 -225.5h505l-71 -218q-120 43 -330 43h-102
q25 -169 130.5 -264.5t264.5 -95.5q113 0 217 43zM668 1294h-211q72 210 78 383h260q-21 -197 -127 -383z" />
    <glyph glyph-name="etatonos" unicode="&#x3ae;" horiz-adv-x="1224" 
d="M176 317v533q0 173 -47 315h293q-12 -71 -12 -151v-62q62 67 86.5 93t61.5 60.5t50 42.5t43 19.5t50.5 13t62.5 3.5q133 0 218 -90.5t85 -251.5v-930q0 -176 55 -318h-346q58 143 58 318v811q0 121 -54 182.5t-153 61.5q-98 0 -217 -78v-572q0 -95 12.5 -167t44.5 -150
h-346q55 142 55 317zM700 1294h-211q72 210 78 383h260q-21 -197 -127 -383z" />
    <glyph glyph-name="iotatonos" unicode="&#x3af;" horiz-adv-x="626" 
d="M158 258v592q0 170 -56 315h344q-55 -142 -55 -315v-539q0 -77 30 -111t97 -34q68 0 154 24l4 -4l-103 -178q-70 -20 -157 -20q-135 0 -196.5 64t-61.5 206zM348 1294h-211q72 210 78 383h260q-21 -197 -127 -383z" />
    <glyph glyph-name="upsilondieresistonos" unicode="&#x3b0;" horiz-adv-x="1230" 
d="M158 143v707q0 170 -56 315h344q-55 -142 -55 -315v-543q0 -53 68.5 -102t154.5 -49q112 0 181 116.5t69 317.5q0 256 -127 575h252q131 -283 131 -542q0 -314 -142.5 -476.5t-393.5 -162.5q-121 0 -215 38t-211 121zM670 1294h-158q72 210 78 383h207
q-21 -197 -127 -383zM420 1356h-178q63 129 69 252h207q-18 -131 -98 -252zM965 1356h-179q64 131 70 252h207q-18 -131 -98 -252z" />
    <glyph glyph-name="alpha" unicode="&#x3b1;" horiz-adv-x="1239" 
d="M1227 174l4 -4l-105 -174q-41 -8 -94 -8q-118 0 -171.5 56t-53.5 183v41q-94 -172 -178 -262q-65 -18 -133 -18q-180 0 -302 146.5t-122 389.5q-3 162 63.5 315.5t182 248.5t243.5 90q163 0 246 -209h4l23 196h274q-36 -105 -53 -231q-15 -114 -15 -309v-334
q0 -66 26 -95.5t81 -29.5q44 0 80 8zM807 371v503q-123 111 -297 111q-70 0 -119 -14q-63 -147 -63 -355q0 -197 66.5 -308t174.5 -111q68 0 134 47.5t104 126.5z" />
    <glyph glyph-name="beta" unicode="&#x3b2;" horiz-adv-x="1234" 
d="M1163 502q0 -149 -68.5 -266.5t-182 -179.5t-248.5 -62q-161 0 -261 86v-170q0 -171 56 -316h-344q55 142 55 316v1309q0 233 113 354t335 121q194 0 317.5 -107.5t123.5 -273.5q0 -105 -62.5 -196.5t-175.5 -151.5q138 -21 242 -140q100 -115 100 -323zM903 463
q0 160 -99.5 250t-277.5 90q-38 0 -65 -6l-4 4l82 170q124 26 189 104t65 201q0 107 -57 176.5t-154 69.5q-179 0 -179 -258v-1043q89 -53 195 -53q147 0 226 76.5t79 218.5z" />
    <glyph glyph-name="gamma" unicode="&#x3b3;" horiz-adv-x="1040" 
d="M965 885q-53 -197 -150 -428q-94 -233 -215 -449q27 -150 27 -262q0 -94 -15 -152h-252q25 80 25 187q0 224 -106 571l-138 459q-73 227 -170 348v6h381q-16 -56 -16 -112q0 -74 35 -193l129 -436q31 -101 43 -156q104 210 160.5 395t56.5 306q0 111 -31 196h324
q-43 -119 -88 -280z" />
    <glyph glyph-name="delta" unicode="&#x3b4;" horiz-adv-x="1234" 
d="M1163 590q3 -128 -45 -243t-127.5 -194t-182.5 -124t-208 -43q-106 0 -199.5 34.5t-167.5 100.5t-117.5 174t-43.5 244q0 119 41.5 225t111 182t159.5 126t189 65l-378 325v221h901v-245q-142 55 -316 55h-348l379 -285q196 -147 274 -288t78 -330zM899 559
q0 153 -47 260t-162 215q-167 -12 -260.5 -135t-93.5 -328q0 -181 87 -305.5t208 -124.5q116 0 192 113t76 305z" />
    <glyph glyph-name="epsilon" unicode="&#x3b5;" horiz-adv-x="974" 
d="M940 213l4 -4l-113 -199q-79 -24 -188 -24q-92 0 -175.5 21.5t-156 68t-125.5 113.5t-83.5 163t-30.5 211q0 177 73.5 317.5t213 222t323.5 81.5q116 0 248 -29l-53 -248l-7 -2q-112 103 -239 103q-123 0 -205 -77.5t-100 -225.5h505l-71 -218q-120 43 -330 43h-102
q25 -169 130.5 -264.5t264.5 -95.5q113 0 217 43z" />
    <glyph glyph-name="zeta" unicode="&#x3b6;" horiz-adv-x="976" 
d="M342 551q0 -136 68 -213t213 -123q146 -49 215 -122.5t69 -194.5q0 -147 -92 -304h-197l-2 7q70 143 70 231q0 74 -51 118.5t-162 74.5q-194 52 -292.5 161t-98.5 303q0 202 88 377q83 167 218.5 311t354.5 316h-307q-163 0 -315 -57v247h813v-233q-303 -263 -449 -471
q-143 -204 -143 -428z" />
    <glyph glyph-name="eta" unicode="&#x3b7;" horiz-adv-x="1224" 
d="M176 317v533q0 173 -47 315h293q-12 -71 -12 -151v-62q62 67 86.5 93t61.5 60.5t50 42.5t43 19.5t50.5 13t62.5 3.5q133 0 218 -90.5t85 -251.5v-930q0 -176 55 -318h-346q58 143 58 318v811q0 121 -54 182.5t-153 61.5q-98 0 -217 -78v-572q0 -95 12.5 -167t44.5 -150
h-346q55 142 55 317z" />
    <glyph glyph-name="theta" unicode="&#x3b8;" horiz-adv-x="1306" 
d="M1214 870q2 -193 -44 -361t-124.5 -282.5t-184 -179t-220.5 -61.5q-117 0 -215.5 50t-173.5 148.5t-117.5 256t-42.5 360.5q-2 200 44.5 370t126 282.5t182.5 174.5t214 60q257 0 406 -215.5t149 -602.5zM346 961h610q-24 247 -111 402t-210 185q-124 -31 -200.5 -182
t-88.5 -405zM963 776h-617q15 -274 108.5 -441.5t229.5 -193.5q119 25 197.5 198t81.5 437z" />
    <glyph glyph-name="iota" unicode="&#x3b9;" horiz-adv-x="626" 
d="M158 258v592q0 170 -56 315h344q-55 -142 -55 -315v-539q0 -77 30 -111t97 -34q68 0 154 24l4 -4l-103 -178q-70 -20 -157 -20q-135 0 -196.5 64t-61.5 206z" />
    <glyph glyph-name="kappa" unicode="&#x3ba;" horiz-adv-x="1130" 
d="M410 848v-531q0 -95 12.5 -167t44.5 -150h-346q55 142 55 317v531q0 175 -55 317h346q-32 -78 -44.5 -150t-12.5 -167zM1124 6v-6h-376q0 94 -91 240l-245 391l293 375q33 44 48 78.5t19 80.5h342v-8q-74 -56 -135 -118t-139 -160l-172 -220l202 -317q95 -151 254 -336z
" />
    <glyph glyph-name="lambda" unicode="&#x3bb;" horiz-adv-x="1095" 
d="M1122 6v-6h-350q10 42 10 74q0 77 -47 219l-172 508l-217 -506q-31 -71 -43 -115.5t-12 -97.5q0 -30 10 -82h-330v6q90 131 183 342l315 733q-84 227 -152.5 322.5t-144.5 95.5q-77 0 -162 -43l-4 4l31 178q116 52 211 52q147 0 239 -107.5t181 -372.5l299 -880
q77 -220 155 -324z" />
    <glyph glyph-name="uni03BC" unicode="&#x3bc;" horiz-adv-x="1247" 
d="M1071 850v-535q0 -173 55 -315h-301q13 86 13 221q-57 -128 -118 -182.5t-147 -54.5q-118 0 -167 106v-180q0 -174 55 -316h-344q55 142 55 316v940q0 173 -55 315h344q-55 -142 -55 -315v-420q0 -122 48 -178.5t148 -56.5q62 0 116 19.5t120 68.5v567q0 170 -56 315h344
q-55 -142 -55 -315z" />
    <glyph glyph-name="nu" unicode="&#x3bd;" horiz-adv-x="1067" 
d="M756 1165h323q-43 -119 -88 -280q-58 -215 -149 -432q-96 -231 -219 -453h-238l-244 811q-73 227 -170 348v6h381q-16 -56 -16 -112q0 -74 35 -193l184 -620q111 219 171 411.5t60 317.5q0 113 -30 196z" />
    <glyph glyph-name="xi" unicode="&#x3be;" horiz-adv-x="925" 
d="M926 -113q0 -142 -92 -293h-197l-2 7q70 137 70 229q0 73 -53 116.5t-167 73.5q-395 102 -395 429q0 143 86 264q158 93 260 147q-135 21 -231 111t-96 235q0 141 79 252t209.5 170.5t286.5 59.5q116 0 248 -29l-23 -275l-6 -2q-136 115 -293 115q-116 0 -178.5 -56.5
t-62.5 -164.5q0 -125 83 -196.5t232 -71.5q63 0 90 8l-16 -207q-45 10 -86 10q-152 0 -238 -77t-86 -207q0 -121 70.5 -198t210.5 -126q152 -53 224.5 -128t72.5 -196z" />
    <glyph glyph-name="omicron" unicode="&#x3bf;" horiz-adv-x="1234" 
d="M1163 594q2 -124 -46 -239.5t-126.5 -196t-181 -127.5t-205.5 -45q-108 0 -202.5 35.5t-168.5 104t-117.5 179.5t-43.5 252q-3 134 45 254t127 201t179.5 127.5t201.5 44.5q238 0 388 -158.5t150 -431.5zM336 606q0 -190 89.5 -317t221.5 -142q108 15 180 132
q72 116 72 294q0 190 -88 317.5t-213 127.5q-114 0 -188 -111t-74 -301z" />
    <glyph glyph-name="pi" unicode="&#x3c0;" horiz-adv-x="1396" 
d="M1077 975v-684q0 -66 26 -95.5t81 -29.5q44 0 80 8l4 -4l-105 -176q-41 -6 -73 -6q-129 0 -187.5 64t-58.5 206v717h-340v-660q0 -173 55 -315h-344q55 142 55 315v658q-152 -8 -274 -58l-4 5l63 245h1334l-62 -235q-107 42 -250 45z" />
    <glyph glyph-name="rho" unicode="&#x3c1;" horiz-adv-x="1181" 
d="M1110 606q0 -125 -36 -237t-101 -196.5t-163 -134.5t-216 -50q-74 0 -129 22l-90 82v-182q0 -174 55 -316h-344q55 142 55 316v838q0 197 125.5 315.5t329.5 118.5q231 0 372.5 -159t141.5 -417zM854 575q0 211 -76 328t-207 117q-92 0 -144 -67.5t-52 -194.5v-602
q66 -29 131 -29q153 0 250.5 121t97.5 327z" />
    <glyph glyph-name="sigma1" unicode="&#x3c2;" horiz-adv-x="948" 
d="M565 -406l-2 7q82 143 82 223q0 69 -44.5 114.5t-164.5 118.5q-100 57 -186 125q-178 152 -178 422q0 123 43 229.5t120.5 184t192.5 122t252 44.5q116 0 248 -29l-23 -274l-6 -2q-126 114 -272 114q-138 0 -220.5 -88t-82.5 -254q0 -118 43 -200q40 -76 97.5 -126
t170.5 -122q56 -36 87.5 -58t66 -53t52 -59t30 -67t14.5 -87q0 -135 -105 -285h-215z" />
    <glyph glyph-name="sigma" unicode="&#x3c3;" horiz-adv-x="1296" 
d="M946 975h-86q120 -67 185 -177.5t65 -256.5q3 -120 -45.5 -226.5t-128.5 -177.5t-181 -112t-202 -39q-214 0 -347.5 155.5t-133.5 425.5q0 274 178.5 436t505.5 162h542l-61 -235q-122 45 -291 45zM846 582q0 124 -28 230.5t-77 162.5q-215 -1 -310 -98.5t-95 -288.5
q0 -187 71.5 -315t170.5 -128q120 0 194 116t74 321z" />
    <glyph glyph-name="tau" unicode="&#x3c4;" horiz-adv-x="948" 
d="M338 258v717q-207 0 -342 -60l-4 5l63 245h906l-62 -235q-127 42 -328 45v-684q0 -66 26 -95.5t81 -29.5q48 0 100 10l4 -6l-104 -174q-41 -8 -94 -8q-129 0 -187.5 64t-58.5 206z" />
    <glyph glyph-name="upsilon" unicode="&#x3c5;" horiz-adv-x="1230" 
d="M158 143v707q0 170 -56 315h344q-55 -142 -55 -315v-543q0 -53 68.5 -102t154.5 -49q112 0 181 116.5t69 317.5q0 256 -127 575h252q131 -283 131 -542q0 -314 -142.5 -476.5t-393.5 -162.5q-121 0 -215 38t-211 121z" />
    <glyph glyph-name="phi" unicode="&#x3c6;" horiz-adv-x="1560" 
d="M897 -8v-80q0 -96 12.5 -168t44.5 -150h-346q56 145 56 318v76q-253 18 -424 157q-168 137 -168 414q0 104 31.5 196.5t87 164t130.5 126.5t162 88t181 44q-3 204 -56 338l338 65q-38 -146 -47 -401q269 -18 428 -168q162 -149 162 -418q0 -123 -47.5 -229.5t-129 -182.5
t-188.5 -125.5t-227 -64.5zM664 141v901q-152 -21 -240 -133t-88 -303q0 -179 88.5 -300t239.5 -165zM897 1034v-907q152 33 240 148.5t88 297.5q0 180 -89.5 302.5t-238.5 158.5z" />
    <glyph glyph-name="chi" unicode="&#x3c7;" horiz-adv-x="1056" 
d="M1124 -399v-7h-358q4 28 4 41q0 55 -18 109t-66 141l-168 316l-184 -346q-64 -120 -64 -201q0 -33 6 -60h-315v7q128 169 262 417l197 367l-248 461q-104 198 -195 313v6h363q-10 -38 -10 -65q0 -36 14 -74.5t57 -120.5l160 -297l160 297q61 109 61 203q0 30 -6 57h305
v-6q-47 -62 -92 -131q-34 -51 -104 -180l-226 -422l246 -461q97 -180 219 -364z" />
    <glyph glyph-name="psi" unicode="&#x3c8;" horiz-adv-x="1601" 
d="M920 -16v-72q0 -96 12.5 -168t44.5 -150h-346q55 142 55 318v72q-259 5 -393.5 131.5t-134.5 369.5v365q0 170 -56 315h344q-55 -142 -55 -315v-297q0 -194 72.5 -288.5t222.5 -102.5v979q0 134 -12.5 218t-42.5 157l338 65q-49 -191 -49 -547v-872q158 5 236.5 107.5
t78.5 320.5q0 256 -127 575h252q131 -283 131 -542q0 -305 -150 -466t-421 -173z" />
    <glyph glyph-name="omega" unicode="&#x3c9;" horiz-adv-x="1658" 
d="M1571 541q3 -105 -38 -209t-106.5 -179.5t-148.5 -122t-160 -44.5q-115 0 -202.5 54t-135.5 150q-79 -124 -170 -192q-46 -12 -98 -12q-201 0 -313 145q-111 147 -111 389q0 342 227 645h252v-8q-215 -302 -215 -600q0 -181 51.5 -270.5t147.5 -89.5q78 0 120 57.5
t42 157.5v170q0 170 -56 315h344q-55 -142 -55 -315v-109q0 -110 58.5 -192.5t162.5 -112.5q67 37 103.5 128t36.5 220q0 321 -215 641v8h266q213 -359 213 -624z" />
    <glyph glyph-name="iotadieresis" unicode="&#x3ca;" horiz-adv-x="626" 
d="M158 258v592q0 170 -56 315h344q-55 -142 -55 -315v-539q0 -77 30 -111t97 -34q68 0 154 24l4 -4l-103 -178q-70 -20 -157 -20q-135 0 -196.5 64t-61.5 206zM145 1335h-190q72 159 78 293h219q-18 -148 -107 -293zM561 1335h-190q72 159 78 293h219q-18 -148 -107 -293z
" />
    <glyph glyph-name="upsilondieresis" unicode="&#x3cb;" horiz-adv-x="1230" 
d="M158 143v707q0 170 -56 315h344q-55 -142 -55 -315v-543q0 -53 68.5 -102t154.5 -49q112 0 181 116.5t69 317.5q0 256 -127 575h252q131 -283 131 -542q0 -314 -142.5 -476.5t-393.5 -162.5q-121 0 -215 38t-211 121zM469 1335h-190q71 157 77 293h219
q-18 -151 -106 -293zM885 1335h-191q72 159 78 293h219q-18 -151 -106 -293z" />
    <glyph glyph-name="omicrontonos" unicode="&#x3cc;" horiz-adv-x="1234" 
d="M1163 594q2 -124 -46 -239.5t-126.5 -196t-181 -127.5t-205.5 -45q-108 0 -202.5 35.5t-168.5 104t-117.5 179.5t-43.5 252q-3 134 45 254t127 201t179.5 127.5t201.5 44.5q238 0 388 -158.5t150 -431.5zM336 606q0 -190 89.5 -317t221.5 -142q108 15 180 132
q72 116 72 294q0 190 -88 317.5t-213 127.5q-114 0 -188 -111t-74 -301zM696 1294h-211q72 210 78 383h260q-21 -197 -127 -383z" />
    <glyph glyph-name="upsilontonos" unicode="&#x3cd;" horiz-adv-x="1230" 
d="M158 143v707q0 170 -56 315h344q-55 -142 -55 -315v-543q0 -53 68.5 -102t154.5 -49q112 0 181 116.5t69 317.5q0 256 -127 575h252q131 -283 131 -542q0 -314 -142.5 -476.5t-393.5 -162.5q-121 0 -215 38t-211 121zM672 1294h-211q72 210 78 383h260
q-21 -197 -127 -383z" />
    <glyph glyph-name="omegatonos" unicode="&#x3ce;" horiz-adv-x="1658" 
d="M1571 541q3 -105 -38 -209t-106.5 -179.5t-148.5 -122t-160 -44.5q-115 0 -202.5 54t-135.5 150q-79 -124 -170 -192q-46 -12 -98 -12q-201 0 -313 145q-111 147 -111 389q0 342 227 645h252v-8q-215 -302 -215 -600q0 -181 51.5 -270.5t147.5 -89.5q78 0 120 57.5
t42 157.5v170q0 170 -56 315h344q-55 -142 -55 -315v-109q0 -110 58.5 -192.5t162.5 -112.5q67 37 103.5 128t36.5 220q0 321 -215 641v8h266q213 -359 213 -624zM907 1294h-211q72 210 78 383h260q-21 -197 -127 -383z" />
    <glyph glyph-name="uni0400" unicode="&#x400;" horiz-adv-x="1132" 
d="M193 481v715q0 151 -15 260.5t-51 220.5h907l-121 -264q-195 98 -477 98v-573h539l-144 -242q-168 63 -395 72v-604q203 0 367 27.5t323 87.5l4 -5l-118 -274h-885q36 111 51 220.5t15 260.5zM322 2122h247q21 -196 119 -375h-96q-181 127 -270 375z" />
    <glyph glyph-name="uni0401" unicode="&#x401;" horiz-adv-x="1132" 
d="M193 481v715q0 151 -15 260.5t-51 220.5h907l-121 -264q-195 98 -477 98v-573h539l-144 -242q-168 63 -395 72v-604q203 0 367 27.5t323 87.5l4 -5l-118 -274h-885q36 111 51 220.5t15 260.5zM457 1847h-191q72 159 78 293h219q-18 -151 -106 -293zM872 1847h-190
q72 159 78 293h219q-18 -148 -107 -293z" />
    <glyph glyph-name="uni0402" unicode="&#x402;" horiz-adv-x="1644" 
d="M1559 532q0 -273 -143 -408.5t-417 -135.5q-67 0 -120 18v8q214 67 317.5 186t103.5 310q0 164 -77.5 241.5t-237.5 77.5q-149 0 -280 -61v-287q0 -152 15 -261t50 -220h-375q36 111 51 220.5t15 260.5v1020q-273 0 -484 -92l-4 4l78 264h1213l-115 -266q-99 48 -202 69
t-242 21v-538q183 77 356 77q243 0 370.5 -128.5t127.5 -379.5z" />
    <glyph glyph-name="uni0403" unicode="&#x403;" horiz-adv-x="1026" 
d="M193 481v715q0 151 -15 260.5t-51 220.5h928l-115 -266q-109 48 -227 69t-277 21v-1020q0 -151 15 -260.5t51 -220.5h-375q36 111 51 220.5t15 260.5zM561 1747h-96q98 179 119 375h247q-89 -248 -270 -375z" />
    <glyph glyph-name="uni0404" unicode="&#x404;" horiz-adv-x="1546" 
d="M1475 362l6 -2l-15 -254q-225 -126 -534 -126q-181 -2 -338.5 62t-267.5 175.5t-171.5 266t-58.5 327.5q-3 195 72.5 363t205 283t304.5 179t369 62q205 0 393 -58v-258l-6 -2q-91 56 -208 87.5t-233 31.5q-236 0 -407.5 -150.5t-208.5 -387.5h889l-144 -242
q-69 19 -217 35q-147 16 -260 16h-276q22 -255 188 -421.5t406 -166.5q151 0 286.5 49t225.5 131z" />
    <glyph glyph-name="uni0405" unicode="&#x405;" horiz-adv-x="1122" 
d="M113 45v340h8q110 -126 186 -170q80 -47 185 -47q111 0 186.5 71.5t75.5 176.5q0 91 -65 159t-255 175q-184 103 -258 208q-74 109 -74 263q-1 89 37.5 176.5t105 154.5t163.5 107.5t204 38.5q172 0 320 -74v-254l-6 -2q-83 72 -155 101.5t-159 29.5q-117 0 -189.5 -69.5
t-72.5 -165.5q0 -95 67.5 -172t235.5 -170q142 -80 215.5 -141t111 -137.5t40.5 -186.5q0 -145 -74.5 -255t-199 -166t-279.5 -56q-197 0 -354 65z" />
    <glyph glyph-name="uni0406" unicode="&#x406;" horiz-adv-x="628" 
d="M193 481v715q0 151 -15 260.5t-51 220.5h375q-36 -111 -51 -220.5t-15 -260.5v-715q0 -151 15 -260.5t51 -220.5h-375q36 111 51 220.5t15 260.5z" />
    <glyph glyph-name="uni0407" unicode="&#x407;" horiz-adv-x="628" 
d="M193 481v715q0 151 -15 260.5t-51 220.5h375q-36 -111 -51 -220.5t-15 -260.5v-715q0 -151 15 -260.5t51 -220.5h-375q36 111 51 220.5t15 260.5zM231 1786h-190q72 159 78 293h219q-18 -148 -107 -293zM565 1786h-190q72 159 78 293h219q-18 -148 -107 -293z" />
    <glyph glyph-name="uni0408" unicode="&#x408;" horiz-adv-x="755" 
d="M582 1120v-727q0 -389 -124 -573.5t-378 -184.5q-59 0 -121 19v8q96 45 161 97t116 134.5t76 204t26 291.5v1096q-54 4 -88 4q-146 0 -266 -27l65 215h580q-26 -113 -37 -225q-10 -133 -10 -332z" />
    <glyph glyph-name="uni0409" unicode="&#x409;" horiz-adv-x="2138" 
d="M2079 553q4 -157 -87.5 -285.5t-245 -199t-331.5 -68.5h-387q36 111 51 220.5t15 260.5v998h-412v-140q0 -583 -137 -909q-137 -324 -389 -450l-203 172v6q260 136 383 411t123 738v53q0 212 -51 317h995q-36 -111 -51 -220.5t-15 -260.5v-270l156 125q24 6 53 6
q138 3 262.5 -66t199 -187t71.5 -251zM1812 549q0 142 -119 245t-304 103q-2 0 -52 -4v-733q220 0 347.5 109.5t127.5 279.5z" />
    <glyph glyph-name="uni040A" unicode="&#x40a;" horiz-adv-x="2117" 
d="M2058 553q4 -157 -87 -285.5t-244.5 -199t-331.5 -68.5h-387q35 111 50 220t15 261v260h-637v-260q0 -151 15 -260.5t51 -220.5h-375q36 111 51 220.5t15 260.5v715q0 151 -15 260.5t-51 220.5h375q-36 -111 -51 -220.5t-15 -260.5v-256h637v256q0 152 -15 261t-50 220
h374q-35 -111 -50 -220t-15 -261v-270l156 125q24 6 53 6q138 3 262.5 -66t198.5 -187t71 -251zM1792 549q0 142 -119.5 245t-304.5 103q-1 0 -51 -4v-733q220 0 347.5 109.5t127.5 279.5z" />
    <glyph glyph-name="uni040B" unicode="&#x40b;" horiz-adv-x="1658" 
d="M1280 481v29q0 164 -67 241.5t-207 77.5q-160 0 -301 -69v-279q0 -152 15 -261t50 -220h-375q36 111 51 220.5t15 260.5v1020q-273 0 -484 -92l-4 4l78 264h1213l-115 -266q-99 48 -202 69t-242 21v-549q189 88 376 88q216 0 329.5 -123.5t113.5 -363.5v-72
q0 -152 15 -261t50 -220h-375q36 111 51 220.5t15 260.5z" />
    <glyph glyph-name="uni040C" unicode="&#x40c;" horiz-adv-x="1468" 
d="M1530 8v-8h-436q-12 59 -63 148.5t-126 183.5l-469 577v-428q0 -151 15 -260.5t51 -220.5h-375q36 111 51 220.5t15 260.5v715q0 151 -15 260.5t-51 220.5h375q-36 -111 -51 -220.5t-15 -260.5v-262l422 506q55 65 78 117t29 120h462v-8q-225 -173 -399 -379l-301 -360
l504 -621q173 -204 299 -301zM705 1747h-97q98 179 119 375h248q-89 -248 -270 -375z" />
    <glyph glyph-name="uni040D" unicode="&#x40d;" horiz-adv-x="1632" 
d="M1440 1196v-715q0 -152 15 -261t50 -220h-375q36 111 51 220.5t15 260.5v615l-754 -795q9 -139 60 -301h-375q36 111 51 220.5t15 260.5v715q0 151 -15 260.5t-51 220.5h375q-36 -111 -51 -220.5t-15 -260.5v-614l754 794q-9 139 -60 301h375q-35 -111 -50 -220t-15 -261
zM557 2122h248q21 -196 119 -375h-97q-181 127 -270 375z" />
    <glyph glyph-name="uni040E" unicode="&#x40e;" horiz-adv-x="1513" 
d="M1169 1677h400v-6q-72 -84 -127 -172q-60 -101 -119 -233l-371 -809q-117 -255 -252.5 -366t-318.5 -111q-111 0 -170 20l-29 274l6 2q75 -57 179 -57q105 0 181 47t136 154l-444 815q-62 118 -158 260q-82 121 -137 176v6h442q-10 -42 -10 -80q0 -113 86 -270l348 -639
l283 621q86 187 86 297q0 34 -11 71zM748 1747q-174 0 -263.5 91.5t-89.5 258.5h215q0 -102 37.5 -160.5t100.5 -58.5q62 0 98.5 58.5t36.5 160.5h215q0 -166 -89.5 -258t-260.5 -92z" />
    <glyph glyph-name="uni040F" unicode="&#x40f;" horiz-adv-x="1579" 
d="M1452 0h-530q-27 -170 -27 -406h-211q0 236 -27 406h-530q36 111 51 220.5t15 260.5v715q0 151 -15 260.5t-51 220.5h375q-36 -111 -51 -220.5t-15 -260.5v-997h707v997q0 151 -15 260.5t-51 220.5h375q-36 -111 -51 -220.5t-15 -260.5v-715q0 -151 15 -260.5t51 -220.5z
" />
    <glyph glyph-name="uni0410" unicode="&#x410;" horiz-adv-x="1656" 
d="M1712 6v-6h-407q6 21 6 55q0 110 -84 293l-80 184h-629l-90 -190q-86 -180 -86 -287q0 -19 4 -55h-401v6q111 135 239 387l668 1325h6l623 -1331q54 -120 105 -203.5t126 -177.5zM844 1221l-234 -496h451z" />
    <glyph glyph-name="uni0411" unicode="&#x411;" horiz-adv-x="1239" 
d="M1055 1677l-115 -266q-109 48 -227 69t-277 21v-612l156 131q246 0 403.5 -137t157.5 -357q3 -112 -46.5 -211t-134 -168t-199 -108.5t-238.5 -38.5h-408q36 111 51 220.5t15 260.5v715q0 151 -15 260.5t-51 220.5h928zM887 512q0 163 -124 253.5t-327 90.5v-696
q210 0 330.5 98.5t120.5 253.5z" />
    <glyph glyph-name="uni0412" unicode="&#x412;" horiz-adv-x="1208" 
d="M1122 463q0 -133 -80.5 -239.5t-216 -165t-297.5 -58.5h-401q36 111 51 220.5t15 260.5v715q0 151 -15 260.5t-51 220.5h397q229 0 372.5 -119t143.5 -303q0 -104 -60 -196t-169 -160q162 -95 236.5 -198t74.5 -238zM436 1536v-633q161 30 256.5 125t95.5 215
q0 126 -99.5 209.5t-252.5 83.5zM864 463q0 144 -120.5 260.5t-307.5 146.5v-729q199 0 313.5 90t114.5 232z" />
    <glyph glyph-name="uni0413" unicode="&#x413;" horiz-adv-x="1026" 
d="M193 481v715q0 151 -15 260.5t-51 220.5h928l-115 -266q-109 48 -227 69t-277 21v-1020q0 -151 15 -260.5t51 -220.5h-375q36 111 51 220.5t15 260.5z" />
    <glyph glyph-name="uni0414" unicode="&#x414;" horiz-adv-x="1630" 
d="M1399 199h252q-39 -163 -52 -279q-14 -126 -14 -326h-211v406h-1122v-406h-211q0 182 -16 326q-15 131 -50 279h164q178 256 248 508q72 263 72 610v43q0 212 -51 317h1056q-35 -111 -50 -220t-15 -261v-997zM393 199h762v1280h-473v-140q0 -361 -66 -634
q-64 -264 -223 -506z" />
    <glyph glyph-name="uni0415" unicode="&#x415;" horiz-adv-x="1132" 
d="M193 481v715q0 151 -15 260.5t-51 220.5h907l-121 -264q-195 98 -477 98v-573h539l-144 -242q-168 63 -395 72v-604q203 0 367 27.5t323 87.5l4 -5l-118 -274h-885q36 111 51 220.5t15 260.5z" />
    <glyph glyph-name="uni0416" unicode="&#x416;" horiz-adv-x="1972" 
d="M514 1440l350 -518l-387 -590q-61 -92 -101 -182t-46 -150h-391v8q127 118 249 301l408 625l-238 356q-138 203 -331 379v8h405q5 -71 22 -122t60 -115zM1102 1196v-715q0 -152 15 -261t50 -220h-362q35 111 50 220t15 261v715q0 152 -15 261t-50 220h362
q-35 -111 -50 -220t-15 -261zM2034 8v-8h-392q-6 60 -46 150t-101 182l-387 590l350 518q43 64 60 115t22 122h406v-8q-199 -181 -330 -379l-238 -356l408 -625q116 -179 248 -301z" />
    <glyph glyph-name="uni0417" unicode="&#x417;" horiz-adv-x="1146" 
d="M1061 473q0 -153 -85 -266t-230 -170t-332 -57q-181 0 -348 73v250l6 2q74 -60 174.5 -93.5t199.5 -33.5q154 0 249.5 79t95.5 208q0 133 -99 219q-100 86 -256 86q-78 0 -155 -12l-5 4l29 196q193 23 306.5 109t113.5 205q0 99 -77 160t-206 61q-188 0 -327 -125l-6 2
l12 248q163 80 356 80q226 0 369 -112.5t143 -278.5q0 -126 -86.5 -228t-243.5 -159q184 -54 293 -174t109 -273z" />
    <glyph glyph-name="uni0418" unicode="&#x418;" horiz-adv-x="1632" 
d="M1440 1196v-715q0 -152 15 -261t50 -220h-375q36 111 51 220.5t15 260.5v615l-754 -795q9 -139 60 -301h-375q36 111 51 220.5t15 260.5v715q0 151 -15 260.5t-51 220.5h375q-36 -111 -51 -220.5t-15 -260.5v-614l754 794q-9 139 -60 301h375q-35 -111 -50 -220t-15 -261
z" />
    <glyph glyph-name="uni0419" unicode="&#x419;" horiz-adv-x="1632" 
d="M1440 1196v-715q0 -152 15 -261t50 -220h-375q36 111 51 220.5t15 260.5v615l-754 -795q9 -139 60 -301h-375q36 111 51 220.5t15 260.5v715q0 151 -15 260.5t-51 220.5h375q-36 -111 -51 -220.5t-15 -260.5v-614l754 794q-9 139 -60 301h375q-35 -111 -50 -220t-15 -261
zM817 1808q-174 0 -263 92t-89 259h215q0 -102 37 -161t100 -59q62 0 98.5 59t36.5 161h215q0 -167 -89.5 -259t-260.5 -92z" />
    <glyph glyph-name="uni041A" unicode="&#x41a;" horiz-adv-x="1468" 
d="M1530 8v-8h-436q-12 59 -63 148.5t-126 183.5l-469 577v-428q0 -151 15 -260.5t51 -220.5h-375q36 111 51 220.5t15 260.5v715q0 151 -15 260.5t-51 220.5h375q-36 -111 -51 -220.5t-15 -260.5v-262l422 506q55 65 78 117t29 120h462v-8q-225 -173 -399 -379l-301 -360
l504 -621q173 -204 299 -301z" />
    <glyph glyph-name="uni041B" unicode="&#x41b;" horiz-adv-x="1570" 
d="M1378 1196v-715q0 -151 15 -260.5t51 -220.5h-375q36 111 51 220.5t15 260.5v998h-453v-140q0 -583 -137 -909q-137 -324 -389 -450l-203 172v6q260 136 383 411t123 738v53q0 212 -51 317h1036q-36 -111 -51 -220.5t-15 -260.5z" />
    <glyph glyph-name="uni041C" unicode="&#x41c;" horiz-adv-x="2027" 
d="M1835 1278v-797q0 -151 15 -260.5t51 -220.5h-375q36 107 50.5 215.5t14.5 265.5v750l-579 -717l-576 711v-744q0 -151 15 -260.5t51 -220.5h-375q37 108 51.5 216.5t14.5 264.5v1016q-68 88 -164 174v6h370q48 -116 164 -256l451 -557l502 623q78 96 124 190h322v-6
q-78 -96 -102 -176q-25 -83 -25 -217z" />
    <glyph glyph-name="uni041D" unicode="&#x41d;" horiz-adv-x="1611" 
d="M1419 1196v-715q0 -151 15 -260.5t51 -220.5h-375q36 111 51 220.5t15 260.5v260h-740v-260q0 -151 15 -260.5t51 -220.5h-375q36 111 51 220.5t15 260.5v715q0 151 -15 260.5t-51 220.5h375q-36 -111 -51 -220.5t-15 -260.5v-256h740v256q0 151 -15 260.5t-51 220.5h375
q-36 -111 -51 -220.5t-15 -260.5z" />
    <glyph glyph-name="uni041E" unicode="&#x41e;" horiz-adv-x="1943" 
d="M1845 850q4 -183 -65.5 -346.5t-189 -279t-284 -181.5t-345.5 -63q-150 -3 -287 43t-241.5 128.5t-182 191t-117 236.5t-37.5 259q-3 170 66.5 330.5t187 277.5t280.5 186.5t339 65.5q176 2 338 -61t281.5 -173.5t189.5 -271t67 -342.5zM367 893q-2 -143 46 -278
t132 -237t206 -162.5t259 -57.5q163 0 293.5 84.5t202 228t71.5 317.5q2 143 -50.5 279t-141 236.5t-211.5 160.5t-254 56q-112 0 -213 -46t-176.5 -126.5t-119.5 -199t-44 -255.5z" />
    <glyph glyph-name="uni041F" unicode="&#x41f;" horiz-adv-x="1570" 
d="M193 481v715q0 151 -15 260.5t-51 220.5h1317q-36 -111 -51 -220.5t-15 -260.5v-715q0 -151 15 -260.5t51 -220.5h-375q36 111 51 220.5t15 260.5v998h-699v-998q0 -151 15 -260.5t51 -220.5h-375q36 111 51 220.5t15 260.5z" />
    <glyph glyph-name="uni0420" unicode="&#x420;" horiz-adv-x="1187" 
d="M1128 1174q0 -230 -165 -367t-441 -137q-32 0 -86 4v-193q0 -151 15 -260.5t51 -220.5h-375q36 111 51 220.5t15 260.5v715q0 151 -15 260.5t-51 220.5h356q154 0 277.5 -38.5t203 -107t122 -159.5t42.5 -198zM872 1169q0 156 -115 257t-313 108q-8 -79 -8 -231v-537
q200 20 318 131t118 272z" />
    <glyph glyph-name="uni0421" unicode="&#x421;" horiz-adv-x="1546" 
d="M96 811q-3 195 72.5 363t205 283t304.5 179t369 62q205 0 393 -58v-258l-6 -2q-91 56 -208 87.5t-233 31.5q-129 2 -246 -48.5t-201 -138.5t-132.5 -212t-46.5 -262q-2 -135 43.5 -258t125 -211t191.5 -139t236 -48q151 0 286.5 49t225.5 131l6 -2l-15 -254
q-225 -126 -534 -126q-181 -2 -338.5 62t-267.5 175.5t-171.5 266t-58.5 327.5z" />
    <glyph glyph-name="uni0422" unicode="&#x422;" horiz-adv-x="1282" 
d="M508 481v1020q-305 0 -531 -112l-4 4l84 284h1254l-115 -266q-99 48 -202 69t-242 21v-1020q0 -152 15 -261t50 -220h-375q37 108 51.5 216.5t14.5 264.5z" />
    <glyph glyph-name="uni0423" unicode="&#x423;" horiz-adv-x="1513" 
d="M1169 1677h400v-6q-72 -84 -127 -172q-60 -101 -119 -233l-371 -809q-117 -255 -252.5 -366t-318.5 -111q-111 0 -170 20l-29 274l6 2q75 -57 179 -57q105 0 181 47t136 154l-444 815q-62 118 -158 260q-82 121 -137 176v6h442q-10 -42 -10 -80q0 -113 86 -270l348 -639
l283 621q86 187 86 297q0 34 -11 71z" />
    <glyph glyph-name="uni0424" unicode="&#x424;" horiz-adv-x="1882" 
d="M1077 172q15 -105 49 -213h-374q34 108 49 213q-342 15 -528.5 191t-186.5 454q0 193 90 344t252 239.5t373 102.5q-15 106 -49 215h374q-34 -109 -49 -215q337 -19 527 -181.5t190 -451.5q0 -203 -91 -356.5t-251.5 -239t-374.5 -102.5zM815 356q2 18 2 84v797
q0 70 -2 88q-217 -5 -338 -118t-121 -335q0 -220 117.5 -356t341.5 -160zM1526 809q0 211 -122 346t-341 164q-2 -18 -2 -82v-797q0 -72 2 -90q220 6 341.5 126t121.5 333z" />
    <glyph glyph-name="uni0425" unicode="&#x425;" horiz-adv-x="1484" 
d="M1456 6v-6h-461q6 34 6 66q0 106 -88 251l-184 308l-213 -340q-88 -140 -88 -240q0 -9 4 -45h-412v6q147 153 359 494l217 346l-217 358q-101 164 -176.5 271t-157.5 196v6h416q-4 -36 -4 -43q0 -96 73 -221l213 -354l185 293q102 164 102 284q0 9 -4 41h406v-6
q-70 -84 -150 -201q-106 -151 -168 -253l-237 -377l206 -344q97 -162 198 -294t175 -196z" />
    <glyph glyph-name="uni0426" unicode="&#x426;" horiz-adv-x="1617" 
d="M1362 -406v406h-1235q36 111 51 220.5t15 260.5v715q0 151 -15 260.5t-51 220.5h375q-36 -111 -51 -220.5t-15 -260.5v-997h707v997q0 151 -15 260.5t-51 220.5h375q-36 -111 -51 -220.5t-15 -260.5v-997h252q-37 -156 -51 -279q-14 -126 -14 -326h-211z" />
    <glyph glyph-name="uni0427" unicode="&#x427;" horiz-adv-x="1411" 
d="M1219 1196v-715q0 -152 15 -261t50 -220h-375q36 111 51 220.5t15 260.5v264q-198 -88 -397 -88q-216 0 -329.5 122t-113.5 356v61q0 152 -15 261t-50 220h374q-35 -111 -50 -220t-15 -261v-39q0 -148 67 -218.5t207 -70.5q169 0 322 72v256q0 151 -15 260.5t-51 220.5
h375q-35 -111 -50 -220t-15 -261z" />
    <glyph glyph-name="uni0428" unicode="&#x428;" horiz-adv-x="2091" 
d="M193 481v715q0 151 -15 260.5t-51 220.5h375q-36 -111 -51 -220.5t-15 -260.5v-997h488v997q0 151 -15 260.5t-51 220.5h375q-36 -111 -51 -220.5t-15 -260.5v-997h488v997q0 151 -15 260.5t-51 220.5h375q-36 -111 -51 -220.5t-15 -260.5v-715q0 -151 15 -260.5
t51 -220.5h-1837q36 111 51 220.5t15 260.5z" />
    <glyph glyph-name="uni0429" unicode="&#x429;" horiz-adv-x="2129" 
d="M1874 -406v406h-1747q36 111 51 220.5t15 260.5v715q0 151 -15 260.5t-51 220.5h375q-36 -111 -51 -220.5t-15 -260.5v-997h488v997q0 151 -15 260.5t-51 220.5h375q-36 -111 -51 -220.5t-15 -260.5v-997h488v997q0 151 -15 260.5t-51 220.5h375q-36 -111 -51 -220.5
t-15 -260.5v-997h252q-37 -156 -51 -279q-14 -126 -14 -326h-211z" />
    <glyph glyph-name="uni042A" unicode="&#x42a;" horiz-adv-x="1505" 
d="M461 481v1020q-273 0 -484 -92l-4 4l78 264h719q-35 -111 -50 -220t-15 -261v-270l155 125q24 6 53 6q138 3 262.5 -66t199 -187t71.5 -251q4 -157 -87.5 -285.5t-245 -199t-331.5 -68.5h-387q36 111 51 220.5t15 260.5zM1180 549q0 142 -119.5 245t-304.5 103
q-1 0 -51 -4v-733q220 0 347.5 109.5t127.5 279.5z" />
    <glyph glyph-name="uni042B" unicode="&#x42b;" horiz-adv-x="1742" 
d="M193 481v715q0 151 -15 260.5t-51 220.5h375q-36 -111 -51 -220.5t-15 -260.5v-291l156 125q24 6 53 6q131 0 245 -67t181.5 -181t67.5 -245q3 -153 -85.5 -279.5t-237.5 -196t-322 -67.5h-367q36 111 51 220.5t15 260.5zM1307 481v715q0 151 -15 260.5t-51 220.5h375
q-36 -111 -51 -220.5t-15 -260.5v-715q0 -151 15 -260.5t51 -220.5h-375q36 111 51 220.5t15 260.5zM872 539q0 138 -109 238t-276 100q-5 0 -22 -2t-29 -3v-712q202 0 319 107t117 272z" />
    <glyph glyph-name="uni042C" unicode="&#x42c;" horiz-adv-x="1273" 
d="M193 481v715q0 151 -15 260.5t-51 220.5h375q-36 -111 -51 -220.5t-15 -260.5v-250l156 125q24 6 53 6q111 2 216.5 -39.5t183.5 -111.5t124.5 -166t44.5 -197q3 -160 -90 -291.5t-249.5 -203t-339.5 -68.5h-408q36 111 51 220.5t15 260.5zM948 559q0 146 -130 252.5
t-331 106.5q-5 0 -22 -2t-29 -3v-753q238 0 375 112t137 287z" />
    <glyph glyph-name="uni042D" unicode="&#x42d;" horiz-adv-x="1548" 
d="M1450 866q3 -195 -74 -363t-209.5 -282.5t-311.5 -178.5t-376 -62q-214 0 -413 73v258l6 2q94 -63 216 -99t244 -36q253 0 433.5 160.5t208.5 411.5h-449q-104 0 -260 -17q-148 -16 -217 -35l61 242h865q-31 246 -194 400.5t-396 154.5q-139 0 -261.5 -44t-209.5 -120
l-7 2l15 254q205 111 493 111q181 2 339 -62.5t267.5 -176t171 -266t58.5 -327.5z" />
    <glyph glyph-name="uni042E" unicode="&#x42e;" horiz-adv-x="2367" 
d="M2269 850q3 -183 -60.5 -346.5t-172 -279t-258 -181.5t-312.5 -63q-158 -3 -298 58t-240 166t-163 244t-77 293h-252v-260q0 -151 15 -260.5t51 -220.5h-375q36 111 51 220.5t15 260.5v715q0 151 -15 260.5t-51 220.5h375q-36 -111 -51 -220.5t-15 -260.5v-256h254
q14 155 82.5 295.5t173 243t243 162t286.5 57.5q161 2 307.5 -61t254.5 -173.5t171 -270.5t61 -343zM2001 788q3 141 -43.5 277t-125 236.5t-186.5 161t-221 57.5q-95 2 -182 -43.5t-151 -127t-101.5 -200.5t-36.5 -256q-2 -192 69 -361.5t202.5 -273.5t290.5 -100
q139 0 251 84.5t173 228t61 317.5z" />
    <glyph glyph-name="uni042F" unicode="&#x42f;" horiz-adv-x="1300" 
d="M1108 1196v-715q0 -151 15 -260.5t51 -220.5h-375q35 111 50 220t15 261v248q-242 -335 -413 -528q-146 -166 -240 -201h-197v8q143 169 295 361q111 143 209 305q-377 163 -377 475q0 111 45.5 206.5t130 167.5t215.5 113t293 41h349q-36 -111 -51 -220.5t-15 -260.5z
M864 756v774q-20 4 -41 4q-183 0 -304.5 -98.5t-121.5 -255.5q0 -155 120 -265t347 -159z" />
    <glyph glyph-name="uni0430" unicode="&#x430;" horiz-adv-x="1015" 
d="M860 819v-502q0 -99 14 -168.5t50 -148.5h-297v131q-100 -59 -195 -135q-10 -2 -45 -2q-163 0 -253.5 78t-90.5 213q0 96 60.5 168.5t209.5 142.5q69 34 314 137v47q0 102 -58.5 159.5t-158.5 57.5q-131 0 -256 -79l-4 4l81 225q112 37 242 37q190 0 288.5 -93t98.5 -272
zM627 520h-295q-39 -68 -39 -151q0 -183 256 -183q37 0 78 9v325z" />
    <glyph glyph-name="uni0431" unicode="&#x431;" horiz-adv-x="1222" 
d="M1151 561q3 -118 -44.5 -227t-126 -185t-179.5 -120t-203 -43q-107 0 -200 42.5t-167 126.5t-116.5 224t-42.5 321q0 388 169 620t507 298l346 65l4 -4l-62 -274q-153 -8 -336 -45q-185 -37 -280 -78q-53 -48 -99 -142t-73 -202q162 180 391 180q226 0 369 -150t143 -407
zM887 541q0 175 -86.5 293t-208.5 118q-145 0 -268 -180q-1 -13 -2 -31.5t-2 -31t-1 -21.5q0 -233 89 -376.5t233 -164.5q108 18 177 124.5t69 269.5z" />
    <glyph glyph-name="uni0432" unicode="&#x432;" horiz-adv-x="1101" 
d="M1026 338q0 -97 -73 -175t-196 -120.5t-270 -42.5h-366q55 142 55 317v531q0 175 -55 317h362q209 0 341 -87t132 -220q0 -67 -48 -126.5t-136 -104.5q254 -105 254 -289zM766 342q0 89 -87 158t-239 108v13q260 82 260 223q0 78 -84 135t-206 57v-907q160 0 258 61.5
t98 151.5z" />
    <glyph glyph-name="uni0433" unicode="&#x433;" horiz-adv-x="804" 
d="M176 317v531q0 175 -55 317h717l-62 -235q-147 44 -366 47v-660q0 -95 12.5 -167t44.5 -150h-346q55 142 55 317z" />
    <glyph glyph-name="uni0434" unicode="&#x434;" horiz-adv-x="1218" 
d="M1022 174h192q-34 -136 -49 -268q-14 -123 -14 -312h-203v406h-696v-406h-203q0 171 -16 312q-17 147 -47 268h141q103 168 143 338q43 171 43 403v29q0 147 -39 221h805q-32 -78 -44.5 -150t-12.5 -167v-674zM340 174h448v817h-278v-59q0 -245 -39.5 -423.5
t-130.5 -334.5z" />
    <glyph glyph-name="uni0435" unicode="&#x435;" horiz-adv-x="1054" 
d="M977 592l-653 -19q7 -195 98 -289t244 -94q136 0 297 113l4 -4l-80 -256q-120 -57 -271 -57q-260 0 -402 149t-142 434q0 143 39.5 260.5t108.5 194.5t162 118.5t200 41.5q194 0 297.5 -122t103.5 -341q0 -79 -6 -129zM326 721h460q0 149 -58.5 227t-170.5 78
q-204 0 -231 -305z" />
    <glyph glyph-name="uni0436" unicode="&#x436;" horiz-adv-x="1560" 
d="M401 1006l252 -375l-211 -391q-79 -147 -82 -240h-354v6q140 188 221 336l183 326l-144 211q-121 177 -241 280v6h317q3 -81 59 -159zM893 848v-531q0 -95 12.5 -167t44.5 -150h-338q56 145 56 317v531q0 172 -56 317h338q-32 -78 -44.5 -150t-12.5 -167zM1554 6v-6h-354
q-3 93 -82 240l-211 391l252 375q31 43 45 79t15 80h317v-6q-122 -105 -242 -280l-143 -211l182 -326q81 -148 221 -336z" />
    <glyph glyph-name="uni0437" unicode="&#x437;" horiz-adv-x="851" 
d="M784 344q0 -165 -139 -260q-137 -94 -348 -94q-131 0 -250 51v225l6 2q113 -86 256 -86q94 0 152.5 45.5t58.5 118.5q0 78 -69 126t-179 48q-51 0 -82 -8l-4 4l25 178q120 12 191 61t71 117q0 54 -42 86.5t-114 32.5q-139 0 -235 -86l-4 2l10 213q121 54 264 54
q170 0 275.5 -78t105.5 -191q0 -87 -63.5 -159.5t-175.5 -110.5q132 -36 211 -114t79 -177z" />
    <glyph glyph-name="uni0438" unicode="&#x438;" horiz-adv-x="1290" 
d="M1112 848v-531q0 -95 12.5 -167t44.5 -150h-346q56 145 56 317v398l-463 -520q9 -85 51 -195h-346q55 142 55 317v531q0 175 -55 317h346q-32 -78 -44.5 -150t-12.5 -167v-399l462 520q-12 103 -49 196h346q-32 -78 -44.5 -150t-12.5 -167z" />
    <glyph glyph-name="uni0439" unicode="&#x439;" horiz-adv-x="1290" 
d="M1112 848v-531q0 -95 12.5 -167t44.5 -150h-346q56 145 56 317v398l-463 -520q9 -85 51 -195h-346q55 142 55 317v531q0 175 -55 317h346q-32 -78 -44.5 -150t-12.5 -167v-399l462 520q-12 103 -49 196h346q-32 -78 -44.5 -150t-12.5 -167zM645 1296q-174 0 -263 92
t-89 259h215q0 -102 37 -161t100 -59q62 0 98.5 59t36.5 161h215q0 -167 -89.5 -259t-260.5 -92z" />
    <glyph glyph-name="uni043A" unicode="&#x43a;" horiz-adv-x="1130" 
d="M410 848v-531q0 -95 12.5 -167t44.5 -150h-346q55 142 55 317v531q0 175 -55 317h346q-32 -78 -44.5 -150t-12.5 -167zM1124 6v-6h-376q0 94 -91 240l-245 391l293 375q33 44 48 78.5t19 80.5h342v-8q-74 -56 -135 -118t-139 -160l-172 -220l202 -317q95 -151 254 -336z
" />
    <glyph glyph-name="uni043B" unicode="&#x43b;" horiz-adv-x="1206" 
d="M1028 848v-531q0 -95 12.5 -167t44.5 -150h-346q56 145 56 317v674h-285v-65q0 -762 -348 -946l-199 149v4q182 95 266 276t84 488v47q0 147 -39 221h811q-32 -78 -44.5 -150t-12.5 -167z" />
    <glyph glyph-name="uni043C" unicode="&#x43c;" horiz-adv-x="1478" 
d="M1303 887v-570q0 -95 12.5 -167t44.5 -150h-346q55 142 55 317v459l-328 -403l-331 405v-461q0 -95 12.5 -167t44.5 -150h-346q55 142 55 317v711q-50 64 -123 131v6h344q13 -40 36 -76t75 -98l235 -284l267 327q63 74 82 131h301v-6q-55 -65 -72.5 -119.5t-17.5 -152.5z
" />
    <glyph glyph-name="uni043D" unicode="&#x43d;" horiz-adv-x="1282" 
d="M1104 848v-531q0 -95 12.5 -167t44.5 -150h-346q55 142 55 317v187h-460v-187q0 -95 12.5 -167t44.5 -150h-346q55 142 55 317v531q0 175 -55 317h346q-32 -78 -44.5 -150t-12.5 -167v-170h460v170q0 175 -55 317h346q-32 -78 -44.5 -150t-12.5 -167z" />
    <glyph glyph-name="uni043E" unicode="&#x43e;" horiz-adv-x="1251" 
d="M1180 594q2 -100 -28.5 -195t-86.5 -169t-128 -130.5t-156.5 -86t-168.5 -27.5q-109 0 -205 35.5t-171.5 104t-119.5 179.5t-44 252q-3 134 46 254t129 201t182 127.5t204 44.5q118 0 218.5 -40.5t173.5 -115t114 -186.5t41 -248zM336 606q0 -190 91.5 -317t227.5 -142
q115 18 187.5 133.5t72.5 292.5q0 190 -90.5 317.5t-218.5 127.5q-117 0 -193.5 -111t-76.5 -301z" />
    <glyph glyph-name="uni043F" unicode="&#x43f;" horiz-adv-x="1261" 
d="M176 317v531q0 175 -55 317h1020q-32 -79 -45 -150.5t-13 -166.5v-531q0 -95 13 -166.5t45 -150.5h-346q55 142 55 317v674h-440v-674q0 -95 12.5 -167t44.5 -150h-346q55 142 55 317z" />
    <glyph glyph-name="uni0440" unicode="&#x440;" horiz-adv-x="1253" 
d="M172 -88v938q0 173 -47 315h293q-12 -59 -12 -125v-110q86 129 171.5 190.5t182.5 61.5q77 2 150.5 -40t129.5 -115t89 -178.5t32 -221.5q2 -171 -61 -317t-185.5 -235.5t-279.5 -86.5q-124 0 -229 55v-131q0 -96 12.5 -168t44.5 -150h-346q55 142 55 318zM905 553
q0 200 -74.5 310t-203.5 110t-221 -117v-696q79 -29 145 -29q156 0 255 114t99 308z" />
    <glyph glyph-name="uni0441" unicode="&#x441;" horiz-adv-x="974" 
d="M930 1155l-21 -281l-6 -2q-77 74 -140 105t-132 31q-138 0 -222.5 -100t-84.5 -285q0 -210 110 -331.5t289 -121.5q113 0 217 43l4 -4l-113 -199q-79 -24 -188 -24q-92 0 -175.5 21.5t-156 68t-125.5 113.5t-83.5 163t-30.5 211q0 177 73.5 317.5t213 222t323.5 81.5
q116 0 248 -29z" />
    <glyph glyph-name="uni0442" unicode="&#x442;" horiz-adv-x="901" 
d="M332 317v658q-219 0 -357 -60l-4 5l64 245h899l-62 -235q-119 42 -307 45v-658q0 -95 13 -166.5t45 -150.5h-347q56 145 56 317z" />
    <glyph glyph-name="uni0443" unicode="&#x443;" horiz-adv-x="1060" 
d="M750 1165h337v-6q-82 -114 -169 -340l-334 -864q-63 -159 -113.5 -244.5t-103.5 -116.5h-267v9q92 82 175.5 203t142.5 268l-289 762q-73 197 -158 323v6h367q-16 -50 -16 -102q0 -84 32 -166l191 -502l184 475q37 104 37 199q0 50 -16 96z" />
    <glyph glyph-name="uni0444" unicode="&#x444;" horiz-adv-x="1560" 
d="M897 -8v-80q0 -96 12.5 -168t44.5 -150h-346q56 145 56 318v76q-253 18 -424 157q-168 137 -168 414q0 104 31.5 196.5t87 164t130.5 126.5t162 88t181 44q-3 204 -56 338l338 65q-38 -146 -47 -401q269 -18 428 -168q162 -149 162 -418q0 -123 -47.5 -229.5t-129 -182.5
t-188.5 -125.5t-227 -64.5zM664 141v901q-152 -21 -240 -133t-88 -303q0 -179 88.5 -300t239.5 -165zM897 1034v-907q152 33 240 148.5t88 297.5q0 180 -89.5 302.5t-238.5 158.5z" />
    <glyph glyph-name="uni0445" unicode="&#x445;" horiz-adv-x="1064" 
d="M1077 6v-6h-389q4 28 4 43q0 55 -20.5 111t-73.5 139l-82 131l-104 -164q-43 -66 -59.5 -110.5t-16.5 -88.5q0 -38 10 -61h-344v6q133 133 244 309l170 269l-217 344q-75 120 -181 231v6h390q-11 -42 -11 -65q0 -37 17 -77t67 -118l72 -112l72 112q69 114 69 201
q0 32 -6 59h332v-6q-49 -48 -87.5 -97t-94.5 -134l-187 -295l226 -357q81 -130 200 -270z" />
    <glyph glyph-name="uni0446" unicode="&#x446;" horiz-adv-x="1259" 
d="M989 -406v406h-868q55 142 55 317v531q0 175 -55 317h346q-32 -78 -44.5 -150t-12.5 -167v-674h419v674q0 175 -55 317h346q-32 -78 -44.5 -150t-12.5 -167v-674h192q-34 -136 -49 -268q-14 -123 -14 -312h-203z" />
    <glyph glyph-name="uni0447" unicode="&#x447;" horiz-adv-x="1118" 
d="M940 848v-531q0 -95 12.5 -167t44.5 -150h-338q48 164 48 317v181q-125 -78 -281 -78q-159 0 -242.5 88t-83.5 258v82q0 175 -55 317h346q-32 -78 -44.5 -150t-12.5 -167v-70q0 -160 174 -160q101 0 199 48v182q0 172 -56 317h346q-32 -78 -44.5 -150t-12.5 -167z" />
    <glyph glyph-name="uni0448" unicode="&#x448;" horiz-adv-x="1693" 
d="M1516 848v-531q0 -95 12.5 -167t44.5 -150h-1452q55 142 55 317v531q0 175 -55 317h346q-32 -78 -44.5 -150t-12.5 -167v-674h319v674q0 175 -55 317h346q-32 -78 -44.5 -150t-12.5 -167v-674h319v674q0 175 -55 317h346q-32 -78 -44.5 -150t-12.5 -167z" />
    <glyph glyph-name="uni0449" unicode="&#x449;" horiz-adv-x="1712" 
d="M1442 -406v406h-1321q55 142 55 317v531q0 175 -55 317h346q-32 -78 -44.5 -150t-12.5 -167v-674h319v674q0 175 -55 317h346q-32 -78 -44.5 -150t-12.5 -167v-674h319v674q0 175 -55 317h346q-32 -78 -44.5 -150t-12.5 -167v-674h192q-34 -136 -49 -268
q-14 -123 -14 -312h-203z" />
    <glyph glyph-name="uni044A" unicode="&#x44a;" horiz-adv-x="1128" 
d="M289 317v658q-181 0 -314 -47l-4 4l70 233h537q-56 -145 -56 -317v-189l129 109q24 6 54 6q155 0 265.5 -107t110.5 -264q0 -117 -66.5 -210t-177.5 -143t-245 -50h-359q56 145 56 317zM829 395q0 96 -78 170t-198 74q-25 0 -31 -2v-496q137 0 222 74.5t85 179.5z" />
    <glyph glyph-name="uni044B" unicode="&#x44b;" horiz-adv-x="1458" 
d="M176 317v531q0 175 -55 317h344q-55 -142 -55 -317v-189l131 111q28 4 39 4q152 0 260 -107t108 -264q0 -117 -66.5 -210t-177.5 -143t-245 -50h-338q55 142 55 317zM1280 848v-531q0 -95 12.5 -167t44.5 -150h-346q56 145 56 317v531q0 172 -56 317h346
q-32 -78 -44.5 -150t-12.5 -167zM696 395q0 97 -75.5 170.5t-192.5 73.5q-12 0 -18 -2v-496q127 0 206.5 74.5t79.5 179.5z" />
    <glyph glyph-name="uni044C" unicode="&#x44c;" horiz-adv-x="1056" 
d="M176 317v531q0 175 -55 317h344q-55 -142 -55 -317v-189l129 109q24 6 53 6q172 0 295 -107t123 -264q0 -117 -72 -210t-193 -143t-266 -50h-358q55 142 55 317zM758 395q0 97 -89.5 170.5t-228.5 73.5q-24 0 -30 -2v-496q156 0 252 74.5t96 179.5z" />
    <glyph glyph-name="uni044D" unicode="&#x44d;" horiz-adv-x="974" 
d="M903 602q0 -177 -73.5 -317.5t-213 -221.5t-323.5 -81q-120 0 -248 28l53 248l6 2q110 -94 240 -94q128 0 211.5 86.5t95.5 247.5h-473l29 174h436q-31 155 -130 242.5t-241 87.5q-95 0 -194 -48l-6 2l14 193q116 29 225 29q121 0 226 -36t187.5 -105t130.5 -181.5
t48 -255.5z" />
    <glyph glyph-name="uni044E" unicode="&#x44e;" horiz-adv-x="1736" 
d="M1665 594q2 -100 -28 -194.5t-83.5 -169t-122.5 -131t-150.5 -86t-162.5 -27.5q-99 0 -188 32.5t-160.5 95t-117 163t-52.5 227.5h-190v-187q0 -95 12.5 -167t44.5 -150h-346q55 142 55 317v531q0 175 -55 317h346q-32 -78 -44.5 -150t-12.5 -167v-170h198
q24 149 105.5 266t193.5 178.5t232 61.5q233 0 379.5 -158.5t146.5 -431.5zM1401 573q0 190 -84.5 317.5t-204.5 127.5q-109 0 -179.5 -111t-70.5 -301q0 -191 85.5 -317.5t213.5 -141.5q101 15 170 132q70 116 70 294z" />
    <glyph glyph-name="uni044F" unicode="&#x44f;" horiz-adv-x="1040" 
d="M897 848v-531q0 -95 12.5 -167t44.5 -150h-346q56 145 56 317v191q-148 -210 -283 -369q-103 -119 -172 -139h-205v6q135 158 201 246q95 127 143 207q-246 114 -246 323q0 166 141.5 274.5t391.5 108.5h319q-32 -78 -44.5 -150t-12.5 -167zM664 530v490q-6 2 -31 2
q-125 0 -208 -60t-83 -153q0 -95 83.5 -170t238.5 -109z" />
    <glyph glyph-name="uni0450" unicode="&#x450;" horiz-adv-x="1054" 
d="M977 592l-653 -19q7 -195 98 -289t244 -94q136 0 297 113l4 -4l-80 -256q-120 -57 -271 -57q-260 0 -402 149t-142 434q0 143 39.5 260.5t108.5 194.5t162 118.5t200 41.5q194 0 297.5 -122t103.5 -341q0 -79 -6 -129zM326 721h460q0 149 -58.5 227t-170.5 78
q-204 0 -231 -305zM293 1671h248q21 -198 118 -375h-96q-181 127 -270 375z" />
    <glyph glyph-name="uni0451" unicode="&#x451;" horiz-adv-x="1054" 
d="M977 592l-653 -19q7 -195 98 -289t244 -94q136 0 297 113l4 -4l-80 -256q-120 -57 -271 -57q-260 0 -402 149t-142 434q0 143 39.5 260.5t108.5 194.5t162 118.5t200 41.5q194 0 297.5 -122t103.5 -341q0 -79 -6 -129zM326 721h460q0 149 -58.5 227t-170.5 78
q-204 0 -231 -305zM408 1335h-191q72 159 78 293h219q-18 -151 -106 -293zM823 1335h-190q72 159 78 293h219q-18 -148 -107 -293z" />
    <glyph glyph-name="uni0452" unicode="&#x452;" horiz-adv-x="1236" 
d="M1079 801v-666q0 -353 -182 -541h-215q90 116 127 234q37 115 37 307v547q0 120 -57 182t-158 62q-100 0 -225 -78v-531q0 -95 12.5 -167t44.5 -150h-346q55 142 55 317v926q0 68 -2 86q-128 -3 -219 -16v178q84 -13 207 -16q-14 77 -41 143l338 65q-18 -74 -33 -208h92
q160 0 266 16v-178q-106 16 -266 16h-104q-4 -164 -4 -192v-226q111 139 184 183q76 49 178 49q138 0 224.5 -90.5t86.5 -251.5z" />
    <glyph glyph-name="uni0453" unicode="&#x453;" horiz-adv-x="804" 
d="M176 317v531q0 175 -55 317h717l-62 -235q-147 44 -366 47v-660q0 -95 12.5 -167t44.5 -150h-346q55 142 55 317zM449 1296h-97q98 179 119 375h248q-89 -248 -270 -375z" />
    <glyph glyph-name="uni0454" unicode="&#x454;" horiz-adv-x="974" 
d="M940 213l4 -4l-113 -199q-79 -24 -188 -24q-92 0 -175.5 21.5t-156 68t-125.5 113.5t-83.5 163t-30.5 211q0 177 73.5 317.5t213 222t323.5 81.5q116 0 248 -29l-53 -248l-7 -2q-112 103 -239 103t-210.5 -83.5t-96.5 -240.5h507l-36 -174h-463q26 -159 131 -249.5
t260 -90.5q113 0 217 43z" />
    <glyph glyph-name="uni0455" unicode="&#x455;" horiz-adv-x="829" 
d="M76 29l14 323h6q69 -117 128 -163t141 -46q75 0 115 37.5t40 106.5q0 63 -39 108q-43 54 -149 119q-121 78 -170 155.5t-49 182.5q0 144 107 238t276 94q117 0 227 -35v-221h-6q-65 55 -116 77.5t-107 22.5q-69 0 -107.5 -33.5t-38.5 -93.5q0 -62 39.5 -110.5
t140.5 -110.5q125 -75 178.5 -154t53.5 -188q0 -164 -107 -258t-278 -94q-142 0 -299 43z" />
    <glyph glyph-name="uni0456" unicode="&#x456;" horiz-adv-x="587" 
d="M457 1485q0 -68 -47.5 -116t-114.5 -48q-69 0 -117.5 48t-48.5 116t48.5 116t117.5 48q67 0 114.5 -48t47.5 -116zM410 848v-531q0 -95 12.5 -167t44.5 -150h-346q55 142 55 317v531q0 175 -55 317h346q-32 -78 -44.5 -150t-12.5 -167z" />
    <glyph glyph-name="uni0457" unicode="&#x457;" horiz-adv-x="569" 
d="M410 848v-531q0 -95 12.5 -167t44.5 -150h-346q55 142 55 317v531q0 175 -55 317h346q-32 -78 -44.5 -150t-12.5 -167zM201 1335h-191q72 159 78 293h219q-18 -151 -106 -293zM555 1335h-190q71 157 77 293h220q-18 -148 -107 -293z" />
    <glyph glyph-name="uni0458" unicode="&#x458;" horiz-adv-x="583" 
d="M127 1485q0 68 48.5 116t117.5 48q67 0 114.5 -48t47.5 -116t-47.5 -116t-114.5 -48q-69 0 -117.5 48t-48.5 116zM174 135v713q0 175 -55 317h344q-55 -142 -55 -317v-713q0 -352 -183 -541h-215q90 116 127 234q37 115 37 307z" />
    <glyph glyph-name="uni0459" unicode="&#x459;" horiz-adv-x="1634" 
d="M1587 403q0 -117 -66.5 -210t-177.5 -143t-245 -50h-359q56 145 56 317v674h-285v-65q0 -762 -348 -946l-199 149v4q182 95 266 276t84 488v47q0 147 -39 221h811q-32 -78 -44.5 -150t-12.5 -167v-189l129 109q24 6 53 6q155 0 266 -107t111 -264zM1335 395q0 96 -78 170
t-198 74q-25 0 -31 -2v-496q137 0 222 74.5t85 179.5z" />
    <glyph glyph-name="uni045A" unicode="&#x45a;" horiz-adv-x="1658" 
d="M1612 403q0 -117 -66.5 -210t-178 -143t-245.5 -50h-358q55 142 55 317v187h-409v-187q0 -95 12.5 -167t44.5 -150h-346q55 142 55 317v531q0 175 -55 317h346q-32 -78 -44.5 -150t-12.5 -167v-170h409v170q0 175 -55 317h346q-32 -78 -44.5 -150t-12.5 -167v-189
l129 109q24 6 53 6q155 0 266 -107t111 -264zM1360 395q0 96 -78.5 170t-198.5 74q-24 0 -30 -2v-496q137 0 222 74.5t85 179.5z" />
    <glyph glyph-name="uni045B" unicode="&#x45b;" horiz-adv-x="1236" 
d="M846 317v365q0 120 -57 182t-158 62q-100 0 -225 -78v-531q0 -95 12.5 -167t44.5 -150h-346q55 142 55 317v926q0 68 -2 86q-128 -3 -219 -16v178q84 -13 207 -16q-14 77 -41 143l338 65q-18 -74 -33 -208h92q160 0 266 16v-178q-106 16 -266 16h-104q-4 -164 -4 -192
v-226q111 139 184 183q76 49 178 49q138 0 224.5 -90.5t86.5 -251.5v-484q0 -172 56 -317h-347q32 79 45 150.5t13 166.5z" />
    <glyph glyph-name="uni045C" unicode="&#x45c;" horiz-adv-x="1130" 
d="M410 848v-531q0 -95 12.5 -167t44.5 -150h-346q55 142 55 317v531q0 175 -55 317h346q-32 -78 -44.5 -150t-12.5 -167zM1124 6v-6h-376q0 94 -91 240l-245 391l293 375q33 44 48 78.5t19 80.5h342v-8q-74 -56 -135 -118t-139 -160l-172 -220l202 -317q95 -151 254 -336z
M555 1296h-96q98 179 119 375h247q-89 -248 -270 -375z" />
    <glyph glyph-name="uni045D" unicode="&#x45d;" horiz-adv-x="1290" 
d="M1112 848v-531q0 -95 12.5 -167t44.5 -150h-346q56 145 56 317v398l-463 -520q9 -85 51 -195h-346q55 142 55 317v531q0 175 -55 317h346q-32 -78 -44.5 -150t-12.5 -167v-399l462 520q-12 103 -49 196h346q-32 -78 -44.5 -150t-12.5 -167zM406 1671h247
q21 -196 119 -375h-96q-181 127 -270 375z" />
    <glyph glyph-name="uni045E" unicode="&#x45e;" horiz-adv-x="1060" 
d="M750 1165h337v-6q-82 -114 -169 -340l-334 -864q-63 -159 -113.5 -244.5t-103.5 -116.5h-267v9q92 82 175.5 203t142.5 268l-289 762q-73 197 -158 323v6h367q-16 -50 -16 -102q0 -84 32 -166l191 -502l184 475q37 104 37 199q0 50 -16 96zM532 1296q-174 0 -263 92
t-89 259h215q0 -102 37 -161t100 -59q62 0 99 59t37 161h215q0 -166 -90 -258.5t-261 -92.5z" />
    <glyph glyph-name="uni045F" unicode="&#x45f;" horiz-adv-x="1241" 
d="M1118 0h-366q-29 -176 -29 -406h-203q0 236 -28 406h-371q55 142 55 317v531q0 175 -55 317h346q-32 -78 -44.5 -150t-12.5 -167v-674h419v674q0 175 -55 317h346q-32 -78 -44.5 -150t-12.5 -167v-531q0 -175 55 -317z" />
    <glyph glyph-name="uni0490" unicode="&#x490;" horiz-adv-x="1026" 
d="M436 1501v-1020q0 -151 15 -260.5t51 -220.5h-375q36 111 51 220.5t15 260.5v715q0 151 -15 260.5t-51 220.5h623q22 126 22 301h211v-567q-119 48 -247 69t-300 21z" />
    <glyph glyph-name="uni0491" unicode="&#x491;" horiz-adv-x="804" 
d="M410 977v-660q0 -95 12.5 -167t44.5 -150h-346q55 142 55 317v531q0 175 -55 317h440q23 135 23 271h209v-514q-168 52 -383 55z" />
    <glyph glyph-name="uni0492" unicode="&#x492;" horiz-adv-x="1026" 
d="M436 1501v-579h107q160 0 266 16v-201q-112 17 -266 17h-107v-273q0 -151 15 -260.5t51 -220.5h-375q36 111 51 220.5t15 260.5v273q-122 -3 -213 -17v201q84 -13 213 -16v274q0 151 -15 260.5t-51 220.5h928l-115 -266q-109 48 -227 69t-277 21z" />
    <glyph glyph-name="uni0493" unicode="&#x493;" horiz-adv-x="804" 
d="M410 977v-328h26q154 0 266 17v-179q-112 17 -266 17h-26v-187q0 -95 12.5 -167t44.5 -150h-346q55 142 55 317v183q-54 -2 -115 -13v179q61 -10 115 -13v195q0 175 -55 317h717l-62 -235q-147 44 -366 47z" />
    <glyph glyph-name="uni0496" unicode="&#x496;" horiz-adv-x="2013" 
d="M514 1440l350 -518l-387 -590q-61 -92 -101 -182t-46 -150h-391v8q127 118 249 301l408 625l-238 356q-138 203 -331 379v8h405q5 -71 22 -122t60 -115zM1102 1196v-715q0 -152 15 -261t50 -220h-362q35 111 50 220t15 261v715q0 152 -15 261t-50 220h362
q-35 -111 -50 -220t-15 -261zM1864 199h211q-39 -163 -52 -279q-14 -126 -14 -326h-211v406h-156q-6 60 -46 150t-101 182l-387 590l350 518q43 64 60 115t22 122h406v-8q-199 -181 -330 -379l-238 -356l408 -625q45 -69 78 -110z" />
    <glyph glyph-name="uni0497" unicode="&#x497;" horiz-adv-x="1579" 
d="M401 1006l252 -375l-211 -391q-79 -147 -82 -240h-354v6q140 188 221 336l183 326l-144 211q-121 177 -241 280v6h317q3 -81 59 -159zM893 848v-531q0 -95 12.5 -167t44.5 -150h-338q56 145 56 317v531q0 172 -56 317h338q-32 -78 -44.5 -150t-12.5 -167zM1436 174h157
q-34 -136 -49 -268q-14 -123 -14 -312h-203v406h-127q-3 93 -82 240l-211 391l252 375q31 43 45 79t15 80h317v-6q-122 -105 -242 -280l-143 -211l182 -326q49 -86 103 -168z" />
    </font>
</defs>
</svg>
