<svg width="32" height="32" viewBox="0 0 32 32" fill="none" xmlns="http://www.w3.org/2000/svg">
<path d="M5.33301 7.99984C5.33301 7.26346 5.92996 6.6665 6.66634 6.6665H25.333C26.0694 6.6665 26.6663 7.26346 26.6663 7.99984C26.6663 8.73622 26.0694 9.33317 25.333 9.33317H6.66634C5.92996 9.33317 5.33301 8.73622 5.33301 7.99984Z" fill="white"/>
<path d="M5.33301 15.9998C5.33301 15.2635 5.92996 14.6665 6.66634 14.6665H25.333C26.0694 14.6665 26.6663 15.2635 26.6663 15.9998C26.6663 16.7362 26.0694 17.3332 25.333 17.3332H6.66634C5.92996 17.3332 5.33301 16.7362 5.33301 15.9998Z" fill="white"/>
<path d="M6.66634 22.6665C5.92996 22.6665 5.33301 23.2635 5.33301 23.9998C5.33301 24.7362 5.92996 25.3332 6.66634 25.3332H25.333C26.0694 25.3332 26.6663 24.7362 26.6663 23.9998C26.6663 23.2635 26.0694 22.6665 25.333 22.6665H6.66634Z" fill="white"/>
</svg>
