<svg width="22" height="20" viewBox="0 0 22 20" fill="none" xmlns="http://www.w3.org/2000/svg">
<path d="M0.333008 1.99984C0.333008 1.26346 0.929961 0.666504 1.66634 0.666504H20.333C21.0694 0.666504 21.6663 1.26346 21.6663 1.99984C21.6663 2.73622 21.0694 3.33317 20.333 3.33317H1.66634C0.929961 3.33317 0.333008 2.73622 0.333008 1.99984Z" fill="white"/>
<path d="M0.333008 9.99984C0.333008 9.26346 0.929961 8.6665 1.66634 8.6665H20.333C21.0694 8.6665 21.6663 9.26346 21.6663 9.99984C21.6663 10.7362 21.0694 11.3332 20.333 11.3332H1.66634C0.929961 11.3332 0.333008 10.7362 0.333008 9.99984Z" fill="white"/>
<path d="M1.66634 16.6665C0.929961 16.6665 0.333008 17.2635 0.333008 17.9998C0.333008 18.7362 0.929961 19.3332 1.66634 19.3332H20.333C21.0694 19.3332 21.6663 18.7362 21.6663 17.9998C21.6663 17.2635 21.0694 16.6665 20.333 16.6665H1.66634Z" fill="white"/>
</svg>
